<svg width="715" height="1024" viewBox="0 0 715 1024" fill="none" xmlns="http://www.w3.org/2000/svg">
<path d="M354.676 43.4808H282.421C274.852 43.4808 270.073 51.8082 274.081 58.229C275.147 59.9253 276.394 61.4534 277.838 62.7993C282.617 67.2574 288.49 69.4864 295.442 69.4864C304.076 69.4864 310.524 66.4442 314.771 60.3739C316.579 57.7944 319.635 56.3645 322.788 56.3645H347.065C354.409 56.3645 359.189 64.2292 355.643 70.678C353.765 74.0987 351.55 77.3371 348.999 80.4214C343.084 87.5431 335.683 93.1368 326.769 97.1883C317.855 101.24 307.903 103.259 296.886 103.259C283.598 103.259 271.783 100.427 261.424 94.749C251.052 89.0852 242.965 80.9821 237.134 70.4537C231.303 59.9253 228.388 47.6165 228.388 33.5272C228.388 19.4379 231.261 7.12907 237.008 -3.39935C242.755 -13.9278 250.814 -22.0308 261.172 -27.6946C271.558 -33.3864 283.458 -36.2183 296.9 -36.2183C310.019 -36.2183 321.681 -33.4565 331.885 -27.961C342.089 -22.4514 350.064 -14.6007 355.811 -4.39471C361.558 5.81126 364.431 17.7136 364.431 31.3262C364.431 32.1814 364.417 33.0365 364.403 33.8917C364.249 39.205 359.988 43.4808 354.676 43.4808ZM308.183 20.3912C317.042 20.3912 321.415 9.37213 314.771 3.51212C314.729 3.47006 314.673 3.428 314.631 3.38594C309.767 -0.819814 303.698 -2.93671 296.409 -2.93671C289.443 -2.93671 283.57 -0.903931 278.805 3.1336C278.679 3.23173 278.567 3.34389 278.44 3.44202C271.769 9.33008 276.086 20.3772 284.972 20.3772H308.183V20.3912Z" fill="#3A3752"/>
<path d="M524.737 94.735C514.126 89.0712 505.787 80.9681 499.718 70.4397C493.649 59.9113 490.607 47.6025 490.607 33.5132C490.607 19.5781 493.677 7.31131 499.844 -3.30121C505.997 -13.9137 514.421 -22.0449 525.101 -27.7226C535.796 -33.3864 547.78 -36.2183 561.053 -36.2183C574.327 -36.2183 586.311 -33.3864 597.006 -27.7086C607.7 -22.0308 616.11 -13.8997 622.263 -3.28719C628.416 7.32533 631.5 19.5921 631.5 33.5272C631.5 47.4623 628.374 59.7291 622.151 70.3416C615.914 80.9541 607.42 89.0852 596.641 94.763C585.863 100.441 573.85 103.273 560.563 103.273C547.289 103.245 535.347 100.413 524.737 94.735ZM580.859 58.5374C586.451 52.7054 589.241 44.364 589.241 33.5132C589.241 22.6623 586.521 14.3209 581.097 8.48892C575.673 2.65694 568.987 -0.259047 561.053 -0.259047C552.952 -0.259047 546.238 2.61488 540.898 8.36275C535.558 14.1106 532.88 22.4941 532.88 33.5132C532.88 44.364 535.516 52.7054 540.772 58.5374C546.028 64.3694 552.63 67.2854 560.577 67.2854C568.496 67.2854 575.266 64.3694 580.859 58.5374Z" fill="#3A3752"/>
<path d="M218.324 33.1487V80.6457C218.324 92.0573 209.087 101.296 197.678 101.296C186.268 101.296 177.032 92.0573 177.032 80.6457V33.2889C177.032 24.2185 174.677 17.1668 169.981 12.1479C165.286 7.12906 158.964 4.61963 151.031 4.61963C143.098 4.61963 136.776 7.12906 132.081 12.1479C127.385 17.1668 125.045 24.2185 125.045 33.2889V80.6457C125.045 92.0573 115.808 101.296 104.398 101.296H104.146C92.7368 101.296 83.5 92.0573 83.5 80.6457V33.1487C83.5 2.36254 106.389 -25.8721 136.412 -32.4751C165.244 -38.8118 195.926 -24.6665 210.096 1.17091C210.951 2.72704 211.736 4.29718 212.465 5.90939C216.292 14.4611 218.324 23.7839 218.324 33.1487Z" fill="#3A3752"/>
<path d="M461.565 -34.2696C455.37 -34.2696 449.581 -31.2414 446.035 -26.1665L427.519 0.399857L409.003 -26.1665C405.457 -31.2414 399.668 -34.2696 393.473 -34.2696C378.167 -34.2696 369.197 -17.054 377.943 -4.50686L404.448 33.5132L377.943 71.5332C369.197 84.0804 378.167 101.296 393.473 101.296C399.668 101.296 405.457 98.2678 409.003 93.1928L427.519 66.6265L446.035 93.1928C449.581 98.2678 455.37 101.296 461.565 101.296C476.871 101.296 485.841 84.0804 477.095 71.5332L450.59 33.5132L477.095 -4.50686C485.855 -17.0681 476.871 -34.2696 461.565 -34.2696Z" fill="#3A3752"/>
<path d="M354.676 202.972H282.421C274.852 202.972 270.073 211.299 274.081 217.72C275.147 219.416 276.394 220.944 277.838 222.29C282.617 226.748 288.49 228.977 295.442 228.977C304.076 228.977 310.524 225.935 314.771 219.865C316.579 217.285 319.635 215.855 322.788 215.855H347.065C354.409 215.855 359.189 223.72 355.643 230.169C353.765 233.59 351.55 236.828 348.999 239.912C343.084 247.034 335.683 252.628 326.769 256.679C317.855 260.731 307.903 262.75 296.886 262.75C283.598 262.75 271.783 259.918 261.424 254.24C251.052 248.576 242.965 240.473 237.134 229.945C231.303 219.416 228.388 207.107 228.388 193.018C228.388 178.929 231.261 166.62 237.008 156.092C242.755 145.563 250.814 137.46 261.172 131.796C271.558 126.105 283.458 123.273 296.9 123.273C310.019 123.273 321.681 126.034 331.885 131.53C342.089 137.04 350.064 144.89 355.811 155.096C361.558 165.302 364.431 177.205 364.431 190.817C364.431 191.672 364.417 192.527 364.403 193.383C364.249 198.696 359.988 202.972 354.676 202.972ZM308.183 179.882C317.042 179.882 321.415 168.863 314.771 163.003C314.729 162.961 314.673 162.919 314.631 162.877C309.767 158.671 303.698 156.554 296.409 156.554C289.443 156.554 283.57 158.587 278.805 162.625C278.679 162.723 278.567 162.835 278.44 162.933C271.769 168.821 276.086 179.868 284.972 179.868H308.183V179.882Z" fill="#24EF00"/>
<path d="M524.737 254.226C514.126 248.562 505.787 240.459 499.718 229.931C493.649 219.402 490.607 207.093 490.607 193.004C490.607 179.069 493.677 166.802 499.844 156.19C505.997 145.577 514.421 137.446 525.101 131.768C535.796 126.105 547.78 123.273 561.053 123.273C574.327 123.273 586.311 126.105 597.006 131.782C607.7 137.46 616.11 145.591 622.263 156.204C628.416 166.816 631.5 179.083 631.5 193.018C631.5 206.953 628.374 219.22 622.151 229.833C615.914 240.445 607.42 248.576 596.641 254.254C585.863 259.932 573.85 262.764 560.563 262.764C547.289 262.736 535.347 259.904 524.737 254.226ZM580.859 218.028C586.451 212.196 589.241 203.855 589.241 193.004C589.241 182.153 586.521 173.812 581.097 167.98C575.673 162.148 568.987 159.232 561.053 159.232C552.952 159.232 546.238 162.106 540.898 167.854C535.558 173.602 532.88 181.985 532.88 193.004C532.88 203.855 535.516 212.196 540.772 218.028C546.028 223.86 552.63 226.776 560.577 226.776C568.496 226.776 575.266 223.86 580.859 218.028Z" fill="#24EF00"/>
<path d="M218.324 192.64V240.137C218.324 251.548 209.087 260.787 197.678 260.787C186.268 260.787 177.032 251.548 177.032 240.137V192.78C177.032 183.709 174.677 176.658 169.981 171.639C165.286 166.62 158.964 164.111 151.031 164.111C143.098 164.111 136.776 166.62 132.081 171.639C127.385 176.658 125.045 183.709 125.045 192.78V240.137C125.045 251.548 115.808 260.787 104.398 260.787H104.146C92.7368 260.787 83.5 251.548 83.5 240.137V192.64C83.5 161.854 106.389 133.619 136.412 127.016C165.244 120.679 195.926 134.825 210.096 160.662C210.951 162.218 211.736 163.788 212.465 165.4C216.292 173.952 218.324 183.275 218.324 192.64Z" fill="#24EF00"/>
<path d="M461.565 125.221C455.37 125.221 449.581 128.25 446.035 133.324L427.519 159.891L409.003 133.324C405.457 128.25 399.668 125.221 393.473 125.221C378.167 125.221 369.197 142.437 377.943 154.984L404.448 193.004L377.943 231.024C369.197 243.571 378.167 260.787 393.473 260.787C399.668 260.787 405.457 257.759 409.003 252.684L427.519 226.117L446.035 252.684C449.581 257.759 455.37 260.787 461.565 260.787C476.871 260.787 485.841 243.571 477.095 231.024L450.59 193.004L477.095 154.984C485.855 142.423 476.871 125.221 461.565 125.221Z" fill="#24EF00"/>
<path d="M354.676 362.463H282.421C274.852 362.463 270.073 370.79 274.081 377.211C275.147 378.907 276.394 380.435 277.838 381.781C282.617 386.239 288.49 388.468 295.442 388.468C304.076 388.468 310.524 385.426 314.771 379.356C316.579 376.776 319.635 375.346 322.788 375.346H347.065C354.409 375.346 359.189 383.211 355.643 389.66C353.765 393.081 351.55 396.319 348.999 399.403C343.084 406.525 335.683 412.119 326.769 416.17C317.855 420.222 307.903 422.241 296.886 422.241C283.598 422.241 271.783 419.409 261.424 413.731C251.052 408.067 242.965 399.964 237.134 389.436C231.303 378.907 228.388 366.598 228.388 352.509C228.388 338.42 231.261 326.111 237.008 315.583C242.755 305.054 250.814 296.951 261.172 291.287C271.558 285.596 283.458 282.764 296.9 282.764C310.019 282.764 321.681 285.525 331.885 291.021C342.089 296.531 350.064 304.381 355.811 314.587C361.558 324.793 364.431 336.695 364.431 350.308C364.431 351.163 364.417 352.018 364.403 352.874C364.249 358.187 359.988 362.463 354.676 362.463ZM308.183 339.373C317.042 339.373 321.415 328.354 314.771 322.494C314.729 322.452 314.673 322.41 314.631 322.368C309.767 318.162 303.698 316.045 296.409 316.045C289.443 316.045 283.57 318.078 278.805 322.116C278.679 322.214 278.567 322.326 278.44 322.424C271.769 328.312 276.086 339.359 284.972 339.359H308.183V339.373Z" fill="#3A3752"/>
<path d="M524.737 413.717C514.126 408.053 505.787 399.95 499.718 389.422C493.649 378.893 490.607 366.584 490.607 352.495C490.607 338.56 493.677 326.293 499.844 315.681C505.997 305.068 514.421 296.937 525.101 291.259C535.796 285.596 547.78 282.764 561.053 282.764C574.327 282.764 586.311 285.596 597.006 291.273C607.7 296.951 616.11 305.082 622.263 315.695C628.416 326.307 631.5 338.574 631.5 352.509C631.5 366.444 628.374 378.711 622.151 389.324C615.914 399.936 607.42 408.067 596.641 413.745C585.863 419.423 573.85 422.255 560.563 422.255C547.289 422.227 535.347 419.395 524.737 413.717ZM580.859 377.519C586.451 371.687 589.241 363.346 589.241 352.495C589.241 341.644 586.521 333.303 581.097 327.471C575.673 321.639 568.987 318.723 561.053 318.723C552.952 318.723 546.238 321.597 540.898 327.345C535.558 333.093 532.88 341.476 532.88 352.495C532.88 363.346 535.516 371.687 540.772 377.519C546.028 383.351 552.63 386.267 560.577 386.267C568.496 386.267 575.266 383.351 580.859 377.519Z" fill="#3A3752"/>
<path d="M218.324 352.131V399.628C218.324 411.039 209.087 420.278 197.678 420.278C186.268 420.278 177.032 411.039 177.032 399.628V352.271C177.032 343.2 174.677 336.149 169.981 331.13C165.286 326.111 158.964 323.602 151.031 323.602C143.098 323.602 136.776 326.111 132.081 331.13C127.385 336.149 125.045 343.2 125.045 352.271V399.628C125.045 411.039 115.808 420.278 104.398 420.278H104.146C92.7368 420.278 83.5 411.039 83.5 399.628V352.131C83.5 321.344 106.389 293.11 136.412 286.507C165.244 280.17 195.926 294.315 210.096 320.153C210.951 321.709 211.736 323.279 212.465 324.891C216.292 333.443 218.324 342.766 218.324 352.131Z" fill="#3A3752"/>
<path d="M461.565 284.712C455.37 284.712 449.581 287.74 446.035 292.815L427.519 319.382L409.003 292.815C405.457 287.74 399.668 284.712 393.473 284.712C378.167 284.712 369.197 301.928 377.943 314.475L404.448 352.495L377.943 390.515C369.197 403.062 378.167 420.278 393.473 420.278C399.668 420.278 405.457 417.25 409.003 412.175L427.519 385.608L446.035 412.175C449.581 417.25 455.37 420.278 461.565 420.278C476.871 420.278 485.841 403.062 477.095 390.515L450.59 352.495L477.095 314.475C485.855 301.914 476.871 284.712 461.565 284.712Z" fill="#3A3752"/>
<path d="M354.676 521.954H282.421C274.852 521.954 270.073 530.281 274.081 536.702C275.147 538.398 276.394 539.926 277.838 541.272C282.617 545.73 288.49 547.959 295.442 547.959C304.076 547.959 310.524 544.917 314.771 538.847C316.579 536.267 319.635 534.837 322.788 534.837H347.065C354.409 534.837 359.189 542.702 355.643 549.151C353.765 552.572 351.55 555.81 348.999 558.894C343.084 566.016 335.683 571.61 326.769 575.661C317.855 579.713 307.903 581.731 296.886 581.731C283.598 581.731 271.783 578.9 261.424 573.222C251.052 567.558 242.965 559.455 237.134 548.927C231.303 538.398 228.388 526.089 228.388 512C228.388 497.911 231.261 485.602 237.008 475.073C242.755 464.545 250.814 456.442 261.172 450.778C271.558 445.086 283.458 442.255 296.9 442.255C310.019 442.255 321.681 445.016 331.885 450.512C342.089 456.021 350.064 463.872 355.811 474.078C361.558 484.284 364.431 496.186 364.431 509.799C364.431 510.654 364.417 511.509 364.403 512.364C364.249 517.678 359.988 521.954 354.676 521.954ZM308.183 498.864C317.042 498.864 321.415 487.845 314.771 481.985C314.729 481.943 314.673 481.901 314.631 481.859C309.767 477.653 303.698 475.536 296.409 475.536C289.443 475.536 283.57 477.569 278.805 481.606C278.679 481.705 278.567 481.817 278.44 481.915C271.769 487.803 276.086 498.85 284.972 498.85H308.183V498.864Z" fill="#24EF00"/>
<path d="M524.737 573.208C514.126 567.544 505.787 559.441 499.718 548.912C493.649 538.384 490.607 526.075 490.607 511.986C490.607 498.051 493.677 485.784 499.844 475.172C505.997 464.559 514.421 456.428 525.101 450.75C535.796 445.086 547.78 442.255 561.053 442.255C574.327 442.255 586.311 445.086 597.006 450.764C607.7 456.442 616.11 464.573 622.263 475.186C628.416 485.798 631.5 498.065 631.5 512C631.5 525.935 628.374 538.202 622.151 548.814C615.914 559.427 607.42 567.558 596.641 573.236C585.863 578.914 573.85 581.745 560.563 581.745C547.289 581.717 535.347 578.886 524.737 573.208ZM580.859 537.01C586.451 531.178 589.241 522.837 589.241 511.986C589.241 501.135 586.521 492.794 581.097 486.962C575.673 481.13 568.987 478.214 561.053 478.214C552.952 478.214 546.238 481.088 540.898 486.836C535.558 492.583 532.88 500.967 532.88 511.986C532.88 522.837 535.516 531.178 540.772 537.01C546.028 542.842 552.63 545.758 560.577 545.758C568.496 545.758 575.266 542.842 580.859 537.01Z" fill="#24EF00"/>
<path d="M218.324 511.621V559.118C218.324 570.53 209.087 579.769 197.678 579.769C186.268 579.769 177.032 570.53 177.032 559.118V511.762C177.032 502.691 174.677 495.64 169.981 490.621C165.286 485.602 158.964 483.092 151.031 483.092C143.098 483.092 136.776 485.602 132.081 490.621C127.385 495.64 125.045 502.691 125.045 511.762V559.118C125.045 570.53 115.808 579.769 104.398 579.769H104.146C92.7368 579.769 83.5 570.53 83.5 559.118V511.621C83.5 480.835 106.389 452.601 136.412 445.998C165.244 439.661 195.926 453.806 210.096 479.644C210.951 481.2 211.736 482.77 212.465 484.382C216.292 492.934 218.324 502.257 218.324 511.621Z" fill="#24EF00"/>
<path d="M461.565 444.203C455.37 444.203 449.581 447.231 446.035 452.306L427.519 478.873L409.003 452.306C405.457 447.231 399.668 444.203 393.473 444.203C378.167 444.203 369.197 461.419 377.943 473.966L404.448 511.986L377.943 550.006C369.197 562.553 378.167 579.769 393.473 579.769C399.668 579.769 405.457 576.741 409.003 571.666L427.519 545.099L446.035 571.666C449.581 576.741 455.37 579.769 461.565 579.769C476.871 579.769 485.841 562.553 477.095 550.006L450.59 511.986L477.095 473.966C485.855 461.405 476.871 444.203 461.565 444.203Z" fill="#24EF00"/>
<path d="M354.676 681.445H282.421C274.852 681.445 270.073 689.772 274.081 696.193C275.147 697.889 276.394 699.417 277.838 700.763C282.617 705.221 288.49 707.45 295.442 707.45C304.076 707.45 310.524 704.408 314.771 698.338C316.579 695.758 319.635 694.328 322.788 694.328H347.065C354.409 694.328 359.189 702.193 355.643 708.642C353.765 712.062 351.55 715.301 348.999 718.385C343.084 725.507 335.683 731.101 326.769 735.152C317.855 739.204 307.903 741.222 296.886 741.222C283.598 741.222 271.783 738.39 261.424 732.713C251.052 727.049 242.965 718.946 237.134 708.417C231.303 697.889 228.388 685.58 228.388 671.491C228.388 657.402 231.261 645.093 237.008 634.564C242.755 624.036 250.814 615.933 261.172 610.269C271.558 604.577 283.458 601.745 296.9 601.745C310.019 601.745 321.681 604.507 331.885 610.003C342.089 615.512 350.064 623.363 355.811 633.569C361.558 643.775 364.431 655.677 364.431 669.29C364.431 670.145 364.417 671 364.403 671.855C364.249 677.169 359.988 681.445 354.676 681.445ZM308.183 658.355C317.042 658.355 321.415 647.336 314.771 641.476C314.729 641.434 314.673 641.392 314.631 641.35C309.767 637.144 303.698 635.027 296.409 635.027C289.443 635.027 283.57 637.06 278.805 641.097C278.679 641.195 278.567 641.308 278.44 641.406C271.769 647.294 276.086 658.341 284.972 658.341H308.183V658.355Z" fill="#3A3752"/>
<path d="M524.737 732.699C514.126 727.035 505.787 718.932 499.718 708.403C493.649 697.875 490.607 685.566 490.607 671.477C490.607 657.542 493.677 645.275 499.844 634.663C505.997 624.05 514.421 615.919 525.101 610.241C535.796 604.577 547.78 601.745 561.053 601.745C574.327 601.745 586.311 604.577 597.006 610.255C607.7 615.933 616.11 624.064 622.263 634.677C628.416 645.289 631.5 657.556 631.5 671.491C631.5 685.426 628.374 697.693 622.151 708.305C615.914 718.918 607.42 727.049 596.641 732.727C585.863 738.405 573.85 741.236 560.563 741.236C547.289 741.208 535.347 738.376 524.737 732.699ZM580.859 696.501C586.451 690.669 589.241 682.328 589.241 671.477C589.241 660.626 586.521 652.285 581.097 646.453C575.673 640.621 568.987 637.705 561.053 637.705C552.952 637.705 546.238 640.579 540.898 646.326C535.558 652.074 532.88 660.458 532.88 671.477C532.88 682.328 535.516 690.669 540.772 696.501C546.028 702.333 552.63 705.249 560.577 705.249C568.496 705.249 575.266 702.333 580.859 696.501Z" fill="#3A3752"/>
<path d="M218.324 671.112V718.609C218.324 730.021 209.087 739.26 197.678 739.26C186.268 739.26 177.032 730.021 177.032 718.609V671.253C177.032 662.182 174.677 655.131 169.981 650.112C165.286 645.093 158.964 642.583 151.031 642.583C143.098 642.583 136.776 645.093 132.081 650.112C127.385 655.131 125.045 662.182 125.045 671.253V718.609C125.045 730.021 115.808 739.26 104.398 739.26H104.146C92.7368 739.26 83.5 730.021 83.5 718.609V671.112C83.5 640.326 106.389 612.092 136.412 605.489C165.244 599.152 195.926 613.297 210.096 639.135C210.951 640.691 211.736 642.261 212.465 643.873C216.292 652.425 218.324 661.748 218.324 671.112Z" fill="#3A3752"/>
<path d="M461.565 603.694C455.37 603.694 449.581 606.722 446.035 611.797L427.519 638.364L409.003 611.797C405.457 606.722 399.668 603.694 393.473 603.694C378.167 603.694 369.197 620.91 377.943 633.457L404.448 671.477L377.943 709.497C369.197 722.044 378.167 739.26 393.473 739.26C399.668 739.26 405.457 736.232 409.003 731.157L427.519 704.59L446.035 731.157C449.581 736.232 455.37 739.26 461.565 739.26C476.871 739.26 485.841 722.044 477.095 709.497L450.59 671.477L477.095 633.457C485.855 620.896 476.871 603.694 461.565 603.694Z" fill="#3A3752"/>
<path d="M354.676 840.935H282.421C274.852 840.935 270.073 849.263 274.081 855.684C275.147 857.38 276.394 858.908 277.838 860.254C282.617 864.712 288.49 866.941 295.442 866.941C304.076 866.941 310.524 863.899 314.771 857.829C316.579 855.249 319.635 853.819 322.788 853.819H347.065C354.409 853.819 359.189 861.684 355.643 868.133C353.765 871.553 351.55 874.792 348.999 877.876C343.084 884.998 335.683 890.591 326.769 894.643C317.855 898.694 307.903 900.713 296.886 900.713C283.598 900.713 271.783 897.881 261.424 892.204C251.052 886.54 242.965 878.437 237.134 867.908C231.303 857.38 228.388 845.071 228.388 830.982C228.388 816.892 231.261 804.584 237.008 794.055C242.755 783.527 250.814 775.424 261.172 769.76C271.558 764.068 283.458 761.236 296.9 761.236C310.019 761.236 321.681 763.998 331.885 769.494C342.089 775.003 350.064 782.854 355.811 793.06C361.558 803.266 364.431 815.168 364.431 828.781C364.431 829.636 364.417 830.491 364.403 831.346C364.249 836.66 359.988 840.935 354.676 840.935ZM308.183 817.846C317.042 817.846 321.415 806.827 314.771 800.967C314.729 800.925 314.673 800.883 314.631 800.841C309.767 796.635 303.698 794.518 296.409 794.518C289.443 794.518 283.57 796.551 278.805 800.588C278.679 800.686 278.567 800.798 278.44 800.897C271.769 806.785 276.086 817.832 284.972 817.832H308.183V817.846Z" fill="#24EF00"/>
<path d="M524.737 892.19C514.126 886.526 505.787 878.423 499.718 867.894C493.649 857.366 490.607 845.057 490.607 830.968C490.607 817.033 493.677 804.766 499.844 794.153C505.997 783.541 514.421 775.41 525.101 769.732C535.796 764.068 547.78 761.236 561.053 761.236C574.327 761.236 586.311 764.068 597.006 769.746C607.7 775.424 616.11 783.555 622.263 794.167C628.416 804.78 631.5 817.047 631.5 830.982C631.5 844.917 628.374 857.184 622.151 867.796C615.914 878.409 607.42 886.54 596.641 892.218C585.863 897.895 573.85 900.727 560.563 900.727C547.289 900.699 535.347 897.867 524.737 892.19ZM580.859 855.992C586.451 850.16 589.241 841.819 589.241 830.968C589.241 820.117 586.521 811.775 581.097 805.944C575.673 800.112 568.987 797.196 561.053 797.196C552.952 797.196 546.238 800.069 540.898 805.817C535.558 811.565 532.88 819.949 532.88 830.968C532.88 841.819 535.516 850.16 540.772 855.992C546.028 861.824 552.63 864.74 560.577 864.74C568.496 864.74 575.266 861.824 580.859 855.992Z" fill="#24EF00"/>
<path d="M218.324 830.603V878.1C218.324 889.512 209.087 898.751 197.678 898.751C186.268 898.751 177.032 889.512 177.032 878.1V830.743C177.032 821.673 174.677 814.621 169.981 809.603C165.286 804.584 158.964 802.074 151.031 802.074C143.098 802.074 136.776 804.584 132.081 809.603C127.385 814.621 125.045 821.673 125.045 830.743V878.1C125.045 889.512 115.808 898.751 104.398 898.751H104.146C92.7368 898.751 83.5 889.512 83.5 878.1V830.603C83.5 799.817 106.389 771.582 136.412 764.979C165.244 758.643 195.926 772.788 210.096 798.625C210.951 800.182 211.736 801.752 212.465 803.364C216.292 811.916 218.324 821.238 218.324 830.603Z" fill="#24EF00"/>
<path d="M461.565 763.185C455.37 763.185 449.581 766.213 446.035 771.288L427.519 797.854L409.003 771.288C405.457 766.213 399.668 763.185 393.473 763.185C378.167 763.185 369.197 780.401 377.943 792.948L404.448 830.968L377.943 868.988C369.197 881.535 378.167 898.751 393.473 898.751C399.668 898.751 405.457 895.722 409.003 890.647L427.519 864.081L446.035 890.647C449.581 895.722 455.37 898.751 461.565 898.751C476.871 898.751 485.841 881.535 477.095 868.988L450.59 830.968L477.095 792.948C485.855 780.387 476.871 763.185 461.565 763.185Z" fill="#24EF00"/>
<path d="M354.676 1000.43H282.421C274.852 1000.43 270.073 1008.75 274.081 1015.17C275.147 1016.87 276.394 1018.4 277.838 1019.74C282.617 1024.2 288.49 1026.43 295.442 1026.43C304.076 1026.43 310.524 1023.39 314.771 1017.32C316.579 1014.74 319.635 1013.31 322.788 1013.31H347.065C354.409 1013.31 359.189 1021.17 355.643 1027.62C353.765 1031.04 351.55 1034.28 348.999 1037.37C343.084 1044.49 335.683 1050.08 326.769 1054.13C317.855 1058.19 307.903 1060.2 296.886 1060.2C283.598 1060.2 271.783 1057.37 261.424 1051.69C251.052 1046.03 242.965 1037.93 237.134 1027.4C231.303 1016.87 228.388 1004.56 228.388 990.473C228.388 976.383 231.261 964.075 237.008 953.546C242.755 943.018 250.814 934.915 261.172 929.251C271.558 923.559 283.458 920.727 296.9 920.727C310.019 920.727 321.681 923.489 331.885 928.985C342.089 934.494 350.064 942.345 355.811 952.551C361.558 962.757 364.431 974.659 364.431 988.272C364.431 989.127 364.417 989.982 364.403 990.837C364.249 996.151 359.988 1000.43 354.676 1000.43ZM308.183 977.337C317.042 977.337 321.415 966.318 314.771 960.458C314.729 960.416 314.673 960.374 314.631 960.331C309.767 956.126 303.698 954.009 296.409 954.009C289.443 954.009 283.57 956.042 278.805 960.079C278.679 960.177 278.567 960.289 278.44 960.388C271.769 966.276 276.086 977.323 284.972 977.323H308.183V977.337Z" fill="#3A3752"/>
<path d="M524.737 1051.68C514.126 1046.02 505.787 1037.91 499.718 1027.39C493.649 1016.86 490.607 1004.55 490.607 990.459C490.607 976.524 493.677 964.257 499.844 953.644C505.997 943.032 514.421 934.901 525.101 929.223C535.796 923.559 547.78 920.727 561.053 920.727C574.327 920.727 586.311 923.559 597.006 929.237C607.7 934.915 616.11 943.046 622.263 953.658C628.416 964.271 631.5 976.538 631.5 990.473C631.5 1004.41 628.374 1016.67 622.151 1027.29C615.914 1037.9 607.42 1046.03 596.641 1051.71C585.863 1057.39 573.85 1060.22 560.563 1060.22C547.289 1060.19 535.347 1057.36 524.737 1051.68ZM580.859 1015.48C586.451 1009.65 589.241 1001.31 589.241 990.459C589.241 979.608 586.521 971.266 581.097 965.434C575.673 959.603 568.987 956.687 561.053 956.687C552.952 956.687 546.238 959.56 540.898 965.308C535.558 971.056 532.88 979.44 532.88 990.459C532.88 1001.31 535.516 1009.65 540.772 1015.48C546.028 1021.31 552.63 1024.23 560.577 1024.23C568.496 1024.23 575.266 1021.31 580.859 1015.48Z" fill="#3A3752"/>
<path d="M218.324 990.094V1037.59C218.324 1049 209.087 1058.24 197.678 1058.24C186.268 1058.24 177.032 1049 177.032 1037.59V990.234C177.032 981.164 174.677 974.112 169.981 969.093C165.286 964.075 158.964 961.565 151.031 961.565C143.098 961.565 136.776 964.075 132.081 969.093C127.385 974.112 125.045 981.164 125.045 990.234V1037.59C125.045 1049 115.808 1058.24 104.398 1058.24H104.146C92.7368 1058.24 83.5 1049 83.5 1037.59V990.094C83.5 959.308 106.389 931.073 136.412 924.47C165.244 918.134 195.926 932.279 210.096 958.116C210.951 959.673 211.736 961.243 212.465 962.855C216.292 971.407 218.324 980.729 218.324 990.094Z" fill="#3A3752"/>
<path d="M461.565 922.676C455.37 922.676 449.581 925.704 446.035 930.779L427.519 957.345L409.003 930.779C405.457 925.704 399.668 922.676 393.473 922.676C378.167 922.676 369.197 939.892 377.943 952.439L404.448 990.459L377.943 1028.48C369.197 1041.03 378.167 1058.24 393.473 1058.24C399.668 1058.24 405.457 1055.21 409.003 1050.14L427.519 1023.57L446.035 1050.14C449.581 1055.21 455.37 1058.24 461.565 1058.24C476.871 1058.24 485.841 1041.03 477.095 1028.48L450.59 990.459L477.095 952.439C485.855 939.878 476.871 922.676 461.565 922.676Z" fill="#3A3752"/>
</svg>
