<svg width="25" height="24" viewBox="0 0 25 24" fill="none" xmlns="http://www.w3.org/2000/svg">
<path d="M5.7793 9.00002V17M10.2793 9.00002V17M15.2793 9.00002V17M19.7793 9.00002V17M3.7793 18.6L3.7793 19.4C3.7793 19.9601 3.7793 20.2401 3.88829 20.454C3.98416 20.6422 4.13714 20.7952 4.32531 20.891C4.53922 21 4.81924 21 5.3793 21H20.1793C20.7393 21 21.0194 21 21.2333 20.891C21.4214 20.7952 21.5744 20.6422 21.6703 20.454C21.7793 20.2401 21.7793 19.9601 21.7793 19.4V18.6C21.7793 18.04 21.7793 17.7599 21.6703 17.546C21.5744 17.3579 21.4214 17.2049 21.2333 17.109C21.0194 17 20.7393 17 20.1793 17H5.3793C4.81924 17 4.53922 17 4.32531 17.109C4.13714 17.2049 3.98416 17.3579 3.88829 17.546C3.7793 17.7599 3.7793 18.04 3.7793 18.6ZM12.4322 3.07715L5.03221 4.7216C4.58515 4.82094 4.36162 4.87062 4.19476 4.99082C4.04759 5.09685 3.93202 5.24092 3.86045 5.40759C3.7793 5.59654 3.7793 5.82553 3.7793 6.28349L3.7793 7.40002C3.7793 7.96007 3.7793 8.2401 3.88829 8.45401C3.98416 8.64217 4.13714 8.79515 4.32531 8.89103C4.53922 9.00002 4.81924 9.00002 5.3793 9.00002H20.1793C20.7393 9.00002 21.0194 9.00002 21.2333 8.89103C21.4214 8.79515 21.5744 8.64217 21.6703 8.45401C21.7793 8.2401 21.7793 7.96007 21.7793 7.40002V6.2835C21.7793 5.82553 21.7793 5.59655 21.6981 5.40759C21.6266 5.24092 21.511 5.09685 21.3638 4.99082C21.197 4.87062 20.9734 4.82094 20.5264 4.7216L13.1264 3.07715C12.9969 3.04837 12.9321 3.03398 12.8667 3.02824C12.8085 3.02314 12.7501 3.02314 12.6919 3.02824C12.6265 3.03398 12.5617 3.04837 12.4322 3.07715Z" stroke="#304607" stroke-width="2" stroke-linecap="round" stroke-linejoin="round"/>
</svg>
