<svg width="25" height="24" viewBox="0 0 25 24" fill="none" xmlns="http://www.w3.org/2000/svg">
<path d="M12.7793 19C12.9771 19 13.1704 18.9414 13.3349 18.8315C13.4993 18.7216 13.6275 18.5654 13.7032 18.3827C13.7789 18.2 13.7987 17.9989 13.7601 17.8049C13.7215 17.6109 13.6263 17.4327 13.4864 17.2929C13.3466 17.153 13.1684 17.0578 12.9744 17.0192C12.7804 16.9806 12.5793 17.0004 12.3966 17.0761C12.2139 17.1518 12.0577 17.28 11.9478 17.4444C11.8379 17.6089 11.7793 17.8022 11.7793 18C11.7793 18.2652 11.8847 18.5196 12.0722 18.7071C12.2597 18.8946 12.5141 19 12.7793 19ZM17.7793 19C17.9771 19 18.1704 18.9414 18.3349 18.8315C18.4993 18.7216 18.6275 18.5654 18.7032 18.3827C18.7789 18.2 18.7987 17.9989 18.7601 17.8049C18.7215 17.6109 18.6263 17.4327 18.4864 17.2929C18.3466 17.153 18.1684 17.0578 17.9744 17.0192C17.7804 16.9806 17.5793 17.0004 17.3966 17.0761C17.2139 17.1518 17.0577 17.28 16.9478 17.4444C16.8379 17.6089 16.7793 17.8022 16.7793 18C16.7793 18.2652 16.8847 18.5196 17.0722 18.7071C17.2597 18.8946 17.5141 19 17.7793 19ZM17.7793 15C17.9771 15 18.1704 14.9414 18.3349 14.8315C18.4993 14.7216 18.6275 14.5654 18.7032 14.3827C18.7789 14.2 18.7987 13.9989 18.7601 13.8049C18.7215 13.6109 18.6263 13.4327 18.4864 13.2929C18.3466 13.153 18.1684 13.0578 17.9744 13.0192C17.7804 12.9806 17.5793 13.0004 17.3966 13.0761C17.2139 13.1518 17.0577 13.28 16.9478 13.4444C16.8379 13.6089 16.7793 13.8022 16.7793 14C16.7793 14.2652 16.8847 14.5196 17.0722 14.7071C17.2597 14.8946 17.5141 15 17.7793 15ZM12.7793 15C12.9771 15 13.1704 14.9414 13.3349 14.8315C13.4993 14.7216 13.6275 14.5654 13.7032 14.3827C13.7789 14.2 13.7987 13.9989 13.7601 13.8049C13.7215 13.6109 13.6263 13.4327 13.4864 13.2929C13.3466 13.153 13.1684 13.0578 12.9744 13.0192C12.7804 12.9806 12.5793 13.0004 12.3966 13.0761C12.2139 13.1518 12.0577 13.28 11.9478 13.4444C11.8379 13.6089 11.7793 13.8022 11.7793 14C11.7793 14.2652 11.8847 14.5196 12.0722 14.7071C12.2597 14.8946 12.5141 15 12.7793 15ZM19.7793 3H18.7793V2C18.7793 1.73478 18.6739 1.48043 18.4864 1.29289C18.2989 1.10536 18.0445 1 17.7793 1C17.5141 1 17.2597 1.10536 17.0722 1.29289C16.8847 1.48043 16.7793 1.73478 16.7793 2V3H8.7793V2C8.7793 1.73478 8.67394 1.48043 8.4864 1.29289C8.29887 1.10536 8.04451 1 7.7793 1C7.51408 1 7.25973 1.10536 7.07219 1.29289C6.88465 1.48043 6.7793 1.73478 6.7793 2V3H5.7793C4.98365 3 4.22059 3.31607 3.65798 3.87868C3.09537 4.44129 2.7793 5.20435 2.7793 6V20C2.7793 20.7956 3.09537 21.5587 3.65798 22.1213C4.22059 22.6839 4.98365 23 5.7793 23H19.7793C20.5749 23 21.338 22.6839 21.9006 22.1213C22.4632 21.5587 22.7793 20.7956 22.7793 20V6C22.7793 5.20435 22.4632 4.44129 21.9006 3.87868C21.338 3.31607 20.5749 3 19.7793 3ZM20.7793 20C20.7793 20.2652 20.6739 20.5196 20.4864 20.7071C20.2989 20.8946 20.0445 21 19.7793 21H5.7793C5.51408 21 5.25973 20.8946 5.07219 20.7071C4.88465 20.5196 4.7793 20.2652 4.7793 20V11H20.7793V20ZM20.7793 9H4.7793V6C4.7793 5.73478 4.88465 5.48043 5.07219 5.29289C5.25973 5.10536 5.51408 5 5.7793 5H6.7793V6C6.7793 6.26522 6.88465 6.51957 7.07219 6.70711C7.25973 6.89464 7.51408 7 7.7793 7C8.04451 7 8.29887 6.89464 8.4864 6.70711C8.67394 6.51957 8.7793 6.26522 8.7793 6V5H16.7793V6C16.7793 6.26522 16.8847 6.51957 17.0722 6.70711C17.2597 6.89464 17.5141 7 17.7793 7C18.0445 7 18.2989 6.89464 18.4864 6.70711C18.6739 6.51957 18.7793 6.26522 18.7793 6V5H19.7793C20.0445 5 20.2989 5.10536 20.4864 5.29289C20.6739 5.48043 20.7793 5.73478 20.7793 6V9ZM7.7793 15C7.97708 15 8.17042 14.9414 8.33487 14.8315C8.49932 14.7216 8.62749 14.5654 8.70318 14.3827C8.77886 14.2 8.79867 13.9989 8.76008 13.8049C8.7215 13.6109 8.62626 13.4327 8.4864 13.2929C8.34655 13.153 8.16837 13.0578 7.97439 13.0192C7.78041 12.9806 7.57934 13.0004 7.39661 13.0761C7.21389 13.1518 7.05771 13.28 6.94783 13.4444C6.83795 13.6089 6.7793 13.8022 6.7793 14C6.7793 14.2652 6.88465 14.5196 7.07219 14.7071C7.25973 14.8946 7.51408 15 7.7793 15ZM7.7793 19C7.97708 19 8.17042 18.9414 8.33487 18.8315C8.49932 18.7216 8.62749 18.5654 8.70318 18.3827C8.77886 18.2 8.79867 17.9989 8.76008 17.8049C8.7215 17.6109 8.62626 17.4327 8.4864 17.2929C8.34655 17.153 8.16837 17.0578 7.97439 17.0192C7.78041 16.9806 7.57934 17.0004 7.39661 17.0761C7.21389 17.1518 7.05771 17.28 6.94783 17.4444C6.83795 17.6089 6.7793 17.8022 6.7793 18C6.7793 18.2652 6.88465 18.5196 7.07219 18.7071C7.25973 18.8946 7.51408 19 7.7793 19Z" fill="#304607"/>
</svg>
