<svg width="25" height="24" viewBox="0 0 25 24" fill="none" xmlns="http://www.w3.org/2000/svg">
<path d="M2.7793 8.37722C2.7793 8.0269 2.7793 7.85174 2.79391 7.70421C2.9349 6.28127 4.06057 5.1556 5.48351 5.01462C5.63104 5 5.81565 5 6.18488 5C6.32715 5 6.39829 5 6.45868 4.99634C7.22991 4.94963 7.90525 4.46288 8.19344 3.746C8.21601 3.68986 8.23711 3.62657 8.2793 3.5C8.32149 3.37343 8.34258 3.31014 8.36515 3.254C8.65335 2.53712 9.32869 2.05037 10.0999 2.00366C10.1603 2 10.227 2 10.3604 2H15.1982C15.3316 2 15.3983 2 15.4587 2.00366C16.2299 2.05037 16.9052 2.53712 17.1934 3.254C17.216 3.31014 17.2371 3.37343 17.2793 3.5C17.3215 3.62657 17.3426 3.68986 17.3652 3.746C17.6533 4.46288 18.3287 4.94963 19.0999 4.99634C19.1603 5 19.2314 5 19.3737 5C19.7429 5 19.9276 5 20.0751 5.01462C21.498 5.1556 22.6237 6.28127 22.7647 7.70421C22.7793 7.85174 22.7793 8.0269 22.7793 8.37722V16.2C22.7793 17.8802 22.7793 18.7202 22.4523 19.362C22.1647 19.9265 21.7058 20.3854 21.1413 20.673C20.4995 21 19.6595 21 17.9793 21H7.5793C5.89914 21 5.05906 21 4.41733 20.673C3.85284 20.3854 3.3939 19.9265 3.10628 19.362C2.7793 18.7202 2.7793 17.8802 2.7793 16.2V8.37722Z" stroke="#304607" stroke-width="2" stroke-linecap="round" stroke-linejoin="round"/>
<path d="M12.7793 16.5C14.9884 16.5 16.7793 14.7091 16.7793 12.5C16.7793 10.2909 14.9884 8.5 12.7793 8.5C10.5702 8.5 8.7793 10.2909 8.7793 12.5C8.7793 14.7091 10.5702 16.5 12.7793 16.5Z" stroke="#304607" stroke-width="2" stroke-linecap="round" stroke-linejoin="round"/>
</svg>
