<svg width="25" height="24" viewBox="0 0 25 24" fill="none" xmlns="http://www.w3.org/2000/svg">
<path d="M21.7793 16H7.7793C7.51408 16 7.25973 15.8946 7.07219 15.7071C6.88465 15.5196 6.7793 15.2652 6.7793 15C6.7793 14.7348 6.88465 14.4804 7.07219 14.2929C7.25973 14.1054 7.51408 14 7.7793 14H18.2193C18.8879 14 19.5374 13.7767 20.0647 13.3654C20.5919 12.9542 20.9666 12.3786 21.1293 11.73L22.7793 5.24C22.8167 5.09241 22.82 4.93821 22.7888 4.78917C22.7576 4.64013 22.6928 4.50018 22.5993 4.38C22.502 4.25673 22.3771 4.1581 22.2347 4.09208C22.0922 4.02606 21.9362 3.99452 21.7793 4H7.5393C7.33298 3.41645 6.95123 2.911 6.44636 2.55294C5.9415 2.19488 5.33824 2.00174 4.7193 2H3.7793C3.51408 2 3.25973 2.10536 3.07219 2.29289C2.88465 2.48043 2.7793 2.73478 2.7793 3C2.7793 3.26522 2.88465 3.51957 3.07219 3.70711C3.25973 3.89464 3.51408 4 3.7793 4H4.7193C4.94773 3.99334 5.17155 4.06513 5.3535 4.20341C5.53545 4.34169 5.66455 4.53812 5.7193 4.76L5.7793 5.24L7.5093 12C6.71365 12.0358 5.96481 12.3862 5.42752 12.9741C4.89023 13.5621 4.60849 14.3394 4.6443 15.135C4.6801 15.9306 5.03051 16.6795 5.61844 17.2168C6.20636 17.7541 6.98365 18.0358 7.7793 18H7.9593C7.79483 18.4531 7.74198 18.9392 7.80523 19.4171C7.86847 19.895 8.04594 20.3506 8.32262 20.7454C8.59929 21.1401 8.96701 21.4624 9.39465 21.6849C9.82229 21.9074 10.2972 22.0235 10.7793 22.0235C11.2614 22.0235 11.7363 21.9074 12.1639 21.6849C12.5916 21.4624 12.9593 21.1401 13.236 20.7454C13.5127 20.3506 13.6901 19.895 13.7534 19.4171C13.8166 18.9392 13.7638 18.4531 13.5993 18H15.9593C15.7948 18.4531 15.742 18.9392 15.8052 19.4171C15.8685 19.895 16.0459 20.3506 16.3226 20.7454C16.5993 21.1401 16.967 21.4624 17.3946 21.6849C17.8223 21.9074 18.2972 22.0235 18.7793 22.0235C19.2614 22.0235 19.7363 21.9074 20.1639 21.6849C20.5916 21.4624 20.9593 21.1401 21.236 20.7454C21.5127 20.3506 21.6901 19.895 21.7534 19.4171C21.8166 18.9392 21.7638 18.4531 21.5993 18H21.7793C22.0445 18 22.2989 17.8946 22.4864 17.7071C22.6739 17.5196 22.7793 17.2652 22.7793 17C22.7793 16.7348 22.6739 16.4804 22.4864 16.2929C22.2989 16.1054 22.0445 16 21.7793 16ZM20.4993 6L19.1893 11.24C19.1345 11.4619 19.0054 11.6583 18.8235 11.7966C18.6416 11.9349 18.4177 12.0067 18.1893 12H9.5593L8.0593 6H20.4993ZM10.7793 20C10.5815 20 10.3882 19.9414 10.2237 19.8315C10.0593 19.7216 9.9311 19.5654 9.85542 19.3827C9.77973 19.2 9.75993 18.9989 9.79851 18.8049C9.8371 18.6109 9.93234 18.4327 10.0722 18.2929C10.212 18.153 10.3902 18.0578 10.5842 18.0192C10.7782 17.9806 10.9793 18.0004 11.162 18.0761C11.3447 18.1518 11.5009 18.28 11.6108 18.4444C11.7206 18.6089 11.7793 18.8022 11.7793 19C11.7793 19.2652 11.6739 19.5196 11.4864 19.7071C11.2989 19.8946 11.0445 20 10.7793 20ZM18.7793 20C18.5815 20 18.3882 19.9414 18.2237 19.8315C18.0593 19.7216 17.9311 19.5654 17.8554 19.3827C17.7797 19.2 17.7599 18.9989 17.7985 18.8049C17.8371 18.6109 17.9323 18.4327 18.0722 18.2929C18.212 18.153 18.3902 18.0578 18.5842 18.0192C18.7782 17.9806 18.9793 18.0004 19.162 18.0761C19.3447 18.1518 19.5009 18.28 19.6108 18.4444C19.7206 18.6089 19.7793 18.8022 19.7793 19C19.7793 19.2652 19.6739 19.5196 19.4864 19.7071C19.2989 19.8946 19.0445 20 18.7793 20Z" fill="#304607"/>
</svg>
