<svg width="25" height="24" viewBox="0 0 25 24" fill="none" xmlns="http://www.w3.org/2000/svg">
<path d="M15.4993 8.79L11.2093 13.09L9.5593 11.44C9.46965 11.3353 9.35934 11.2503 9.23527 11.1903C9.11121 11.1303 8.97607 11.0965 8.83835 11.0912C8.70064 11.0859 8.5633 11.1091 8.43498 11.1594C8.30665 11.2096 8.19011 11.2859 8.09265 11.3833C7.9952 11.4808 7.91894 11.5974 7.86866 11.7257C7.81839 11.854 7.79518 11.9913 7.8005 12.1291C7.80582 12.2668 7.83955 12.4019 7.89958 12.526C7.9596 12.65 8.04462 12.7604 8.1493 12.85L10.4993 15.21C10.5927 15.3027 10.7036 15.376 10.8254 15.4258C10.9472 15.4755 11.0777 15.5008 11.2093 15.5C11.4716 15.4989 11.723 15.3947 11.9093 15.21L16.9093 10.21C17.003 10.117 17.0774 10.0064 17.1282 9.88458C17.179 9.76272 17.2051 9.63201 17.2051 9.5C17.2051 9.36799 17.179 9.23728 17.1282 9.11542C17.0774 8.99356 17.003 8.88296 16.9093 8.79C16.7219 8.60375 16.4685 8.49921 16.2043 8.49921C15.9401 8.49921 15.6867 8.60375 15.4993 8.79ZM12.7793 2C10.8015 2 8.86809 2.58649 7.2236 3.6853C5.57911 4.78412 4.29738 6.3459 3.54051 8.17317C2.78363 10.0004 2.5856 12.0111 2.97145 13.9509C3.3573 15.8907 4.30971 17.6725 5.70823 19.0711C7.10676 20.4696 8.88859 21.422 10.8284 21.8079C12.7682 22.1937 14.7789 21.9957 16.6061 21.2388C18.4334 20.4819 19.9952 19.2002 21.094 17.5557C22.1928 15.9112 22.7793 13.9778 22.7793 12C22.7793 10.6868 22.5206 9.38642 22.0181 8.17317C21.5156 6.95991 20.779 5.85752 19.8504 4.92893C18.9218 4.00035 17.8194 3.26375 16.6061 2.7612C15.3929 2.25866 14.0925 2 12.7793 2ZM12.7793 20C11.1971 20 9.65033 19.5308 8.33474 18.6518C7.01915 17.7727 5.99377 16.5233 5.38827 15.0615C4.78276 13.5997 4.62434 11.9911 4.93302 10.4393C5.2417 8.88743 6.00363 7.46197 7.12245 6.34315C8.24127 5.22433 9.66673 4.4624 11.2186 4.15372C12.7704 3.84504 14.379 4.00346 15.8408 4.60896C17.3026 5.21447 18.552 6.23984 19.4311 7.55544C20.3101 8.87103 20.7793 10.4177 20.7793 12C20.7793 14.1217 19.9364 16.1566 18.4362 17.6569C16.9359 19.1571 14.901 20 12.7793 20Z" fill="#304607"/>
</svg>
