<svg width="25" height="24" viewBox="0 0 25 24" fill="none" xmlns="http://www.w3.org/2000/svg">
<path d="M19.4892 7.20998C19.3963 7.11625 19.2857 7.04186 19.1638 6.99109C19.042 6.94032 18.9113 6.91418 18.7792 6.91418C18.6472 6.91418 18.5165 6.94032 18.3947 6.99109C18.2728 7.04186 18.1622 7.11625 18.0692 7.20998L10.6192 14.67L7.48925 11.53C7.39273 11.4367 7.27878 11.3634 7.15393 11.3142C7.02907 11.265 6.89575 11.2409 6.76157 11.2432C6.62739 11.2455 6.49498 11.2743 6.3719 11.3278C6.24882 11.3812 6.13749 11.4585 6.04425 11.555C5.95101 11.6515 5.87769 11.7654 5.82849 11.8903C5.77929 12.0152 5.75516 12.1485 5.75748 12.2827C5.7598 12.4168 5.78853 12.5493 5.84202 12.6723C5.89551 12.7954 5.97273 12.9067 6.06925 13L9.90925 16.84C10.0022 16.9337 10.1128 17.0081 10.2347 17.0589C10.3565 17.1096 10.4872 17.1358 10.6192 17.1358C10.7513 17.1358 10.882 17.1096 11.0038 17.0589C11.1257 17.0081 11.2363 16.9337 11.3292 16.84L19.4892 8.67998C19.5908 8.58634 19.6718 8.47269 19.7272 8.34619C19.7826 8.21969 19.8112 8.08308 19.8112 7.94498C19.8112 7.80688 19.7826 7.67028 19.7272 7.54378C19.6718 7.41728 19.5908 7.30363 19.4892 7.20998Z" fill="#304607"/>
</svg>
