<svg width="25" height="24" viewBox="0 0 25 24" fill="none" xmlns="http://www.w3.org/2000/svg">
<path d="M14.3088 8.35186C13.7364 8.75995 13.0359 9 12.2793 9C10.3463 9 8.7793 7.433 8.7793 5.5C8.7793 3.567 10.3463 2 12.2793 2C13.5323 2 14.6315 2.65842 15.2498 3.64814M6.7793 20.0872H9.38959C9.72992 20.0872 10.0682 20.1277 10.3981 20.2086L13.1562 20.8789C13.7546 21.0247 14.3781 21.0388 14.9828 20.9214L18.0323 20.3281C18.8378 20.1712 19.5789 19.7854 20.1596 19.2205L22.3172 17.1217C22.9333 16.5234 22.9333 15.5524 22.3172 14.9531C21.7624 14.4134 20.884 14.3527 20.2564 14.8103L17.7419 16.6449C17.3818 16.9081 16.9436 17.0498 16.4929 17.0498H14.0648L15.6104 17.0498C16.4815 17.0498 17.1872 16.3633 17.1872 15.5159V15.2091C17.1872 14.5055 16.6949 13.892 15.9934 13.7219L13.6079 13.1417C13.2197 13.0476 12.8221 13 12.4224 13C11.4576 13 9.71119 13.7988 9.71119 13.7988L6.7793 15.0249M20.7793 6.5C20.7793 8.433 19.2123 10 17.2793 10C15.3463 10 13.7793 8.433 13.7793 6.5C13.7793 4.567 15.3463 3 17.2793 3C19.2123 3 20.7793 4.567 20.7793 6.5ZM2.7793 14.6L2.7793 20.4C2.7793 20.9601 2.7793 21.2401 2.88829 21.454C2.98416 21.6422 3.13714 21.7951 3.32531 21.891C3.53922 22 3.81924 22 4.3793 22H5.1793C5.73935 22 6.01938 22 6.23329 21.891C6.42145 21.7951 6.57443 21.6422 6.6703 21.454C6.7793 21.2401 6.7793 20.9601 6.7793 20.4V14.6C6.7793 14.0399 6.7793 13.7599 6.6703 13.546C6.57443 13.3578 6.42145 13.2049 6.23329 13.109C6.01938 13 5.73935 13 5.1793 13L4.3793 13C3.81924 13 3.53922 13 3.32531 13.109C3.13714 13.2049 2.98416 13.3578 2.88829 13.546C2.7793 13.7599 2.7793 14.0399 2.7793 14.6Z" stroke="#304607" stroke-width="2" stroke-linecap="round" stroke-linejoin="round"/>
</svg>
