<svg width="25" height="24" viewBox="0 0 25 24" fill="none" xmlns="http://www.w3.org/2000/svg">
<path d="M2.7793 10H22.7793V8.2C22.7793 7.0799 22.7793 6.51984 22.5613 6.09202C22.3696 5.7157 22.0636 5.40974 21.6873 5.21799C21.2595 5 20.6994 5 19.5793 5H5.9793C4.85919 5 4.29914 5 3.87132 5.21799C3.49499 5.40973 3.18903 5.71569 2.99728 6.09202C2.7793 6.51984 2.7793 7.0799 2.7793 8.2V15.8C2.7793 16.9201 2.7793 17.4802 2.99728 17.908C3.18903 18.2843 3.49499 18.5903 3.87132 18.782C4.29914 19 4.85919 19 5.9793 19H11.7793M15.2793 21L17.3043 20.595C17.4808 20.5597 17.5691 20.542 17.6514 20.5097C17.7245 20.4811 17.7939 20.4439 17.8583 20.399C17.9309 20.3484 17.9945 20.2848 18.1218 20.1574L22.2793 16C22.8316 15.4477 22.8316 14.5523 22.2793 14C21.727 13.4477 20.8316 13.4477 20.2793 14L16.1218 18.1574C15.9945 18.2848 15.9309 18.3484 15.8803 18.421C15.8354 18.4853 15.7982 18.5548 15.7696 18.6279C15.7373 18.7102 15.7196 18.7985 15.6843 18.975L15.2793 21Z" stroke="#304607" stroke-width="2" stroke-linecap="round" stroke-linejoin="round"/>
</svg>
