<svg width="25" height="24" viewBox="0 0 25 24" fill="none" xmlns="http://www.w3.org/2000/svg">
<path d="M22.7793 10H2.7793M11.7793 14H6.7793M2.7793 8.2L2.7793 15.8C2.7793 16.9201 2.7793 17.4802 2.99728 17.908C3.18903 18.2843 3.49499 18.5903 3.87132 18.782C4.29914 19 4.85919 19 5.9793 19L19.5793 19C20.6994 19 21.2595 19 21.6873 18.782C22.0636 18.5903 22.3696 18.2843 22.5613 17.908C22.7793 17.4802 22.7793 16.9201 22.7793 15.8V8.2C22.7793 7.0799 22.7793 6.51984 22.5613 6.09202C22.3696 5.7157 22.0636 5.40974 21.6873 5.21799C21.2595 5 20.6994 5 19.5793 5L5.9793 5C4.85919 5 4.29914 5 3.87132 5.21799C3.49499 5.40973 3.18903 5.71569 2.99728 6.09202C2.7793 6.51984 2.7793 7.07989 2.7793 8.2Z" stroke="#304607" stroke-width="2" stroke-linecap="round" stroke-linejoin="round"/>
</svg>
