<svg width="25" height="24" viewBox="0 0 25 24" fill="none" xmlns="http://www.w3.org/2000/svg">
<path d="M3.27883 9H22.2788M10.7788 3L8.77883 9L12.7788 20.5L16.7788 9L14.7788 3M13.3934 20.2625L22.352 9.51215C22.5039 9.32995 22.5798 9.23885 22.6088 9.13717C22.6344 9.04751 22.6344 8.95249 22.6088 8.86283C22.5798 8.76114 22.5039 8.67005 22.352 8.48785L18.0187 3.28785C17.9305 3.18204 17.8864 3.12914 17.8324 3.09111C17.7845 3.05741 17.7311 3.03238 17.6745 3.01717C17.6107 3 17.5419 3 17.4041 3H8.15353C8.0158 3 7.94694 3 7.88312 3.01717C7.82658 3.03238 7.77314 3.05741 7.72526 3.09111C7.67122 3.12914 7.62713 3.18204 7.53896 3.28785L3.20562 8.48785C3.05379 8.67004 2.97788 8.76114 2.94887 8.86283C2.92329 8.95249 2.92329 9.04751 2.94887 9.13716C2.97788 9.23885 3.05379 9.32995 3.20562 9.51215L12.1643 20.2625C12.3753 20.5158 12.4808 20.6424 12.6072 20.6886C12.718 20.7291 12.8396 20.7291 12.9505 20.6886C13.0768 20.6424 13.1824 20.5158 13.3934 20.2625Z" stroke="#304607" stroke-width="2" stroke-linecap="round" stroke-linejoin="round"/>
</svg>
