<svg width="25" height="24" viewBox="0 0 25 24" fill="none" xmlns="http://www.w3.org/2000/svg">
<path d="M9.7793 9H9.7893M15.7793 15H15.7893M16.7793 8L8.7793 16M22.7793 12C22.7793 17.5228 18.3021 22 12.7793 22C7.25645 22 2.7793 17.5228 2.7793 12C2.7793 6.47715 7.25645 2 12.7793 2C18.3021 2 22.7793 6.47715 22.7793 12ZM10.2793 9C10.2793 9.27614 10.0554 9.5 9.7793 9.5C9.50315 9.5 9.2793 9.27614 9.2793 9C9.2793 8.72386 9.50315 8.5 9.7793 8.5C10.0554 8.5 10.2793 8.72386 10.2793 9ZM16.2793 15C16.2793 15.2761 16.0554 15.5 15.7793 15.5C15.5032 15.5 15.2793 15.2761 15.2793 15C15.2793 14.7239 15.5032 14.5 15.7793 14.5C16.0554 14.5 16.2793 14.7239 16.2793 15Z" stroke="#304607" stroke-width="2" stroke-linecap="round" stroke-linejoin="round"/>
</svg>
