<svg width="25" height="24" viewBox="0 0 25 24" fill="none" xmlns="http://www.w3.org/2000/svg">
<path fill-rule="evenodd" clip-rule="evenodd" d="M2.7793 6.07411C2.7793 5.4809 3.26019 5 3.85341 5H21.7052C22.2984 5 22.7793 5.4809 22.7793 6.07411V8.85393C22.7793 9.44122 22.308 9.91842 21.7229 9.9279C21.7061 9.93159 21.6907 9.94027 21.6788 9.95294C21.6638 9.96888 21.6555 9.98995 21.6555 10.0118C21.6555 10.0337 21.6638 10.0548 21.6788 10.0707C21.6907 10.0834 21.7061 10.0921 21.7229 10.0958C22.308 10.1052 22.7793 10.5824 22.7793 11.1697V14.087C22.7793 14.6802 22.2984 15.1611 21.7052 15.1611H21.6708C21.6492 15.1611 21.6284 15.1697 21.6131 15.185C21.5978 15.2003 21.5892 15.2211 21.5892 15.2428C21.5892 15.2644 21.5978 15.2852 21.6131 15.3005C21.6284 15.3158 21.6492 15.3244 21.6708 15.3244H21.7052C22.2984 15.3244 22.7793 15.8053 22.7793 16.3985V18.3835C22.7793 18.9767 22.2984 19.4576 21.7052 19.4576H3.85341C3.26019 19.4576 2.7793 18.9767 2.7793 18.3835V16.3942C2.7793 15.8264 3.22121 15.3567 3.78795 15.3221C3.80872 15.3208 3.8282 15.3117 3.84243 15.2965C3.85667 15.2814 3.86461 15.2614 3.86461 15.2406C3.86461 15.2198 3.85667 15.1998 3.84243 15.1847C3.8282 15.1695 3.80872 15.1604 3.78795 15.1591C3.22121 15.1245 2.7793 14.6548 2.7793 14.087V11.1611C2.7793 10.5933 3.22121 10.1236 3.78795 10.089C3.80872 10.0877 3.8282 10.0786 3.84243 10.0635C3.85667 10.0483 3.86461 10.0283 3.86461 10.0075C3.86461 9.98672 3.85667 9.96671 3.84243 9.95158C3.8282 9.93646 3.80872 9.92731 3.78795 9.92605C3.22121 9.89144 2.7793 9.42173 2.7793 8.85393V6.07411ZM4.92753 7.14823V8.09381C5.103 8.19875 5.26462 8.32817 5.40706 8.47957C5.79619 8.89318 6.01284 9.43967 6.01284 10.0075C6.01284 10.5754 5.79619 11.1219 5.40706 11.5355C5.26462 11.6869 5.103 11.8163 4.92753 11.9212V13.3269C5.103 13.4318 5.26462 13.5612 5.40706 13.7126C5.79619 14.1263 6.01284 14.6727 6.01284 15.2406C6.01284 15.8085 5.79619 16.3549 5.40706 16.7686C5.26462 16.92 5.103 17.0494 4.92753 17.1543V17.3093H20.6311V17.2154C20.435 17.112 20.2537 16.9791 20.0941 16.8195C19.6759 16.4013 19.441 15.8341 19.441 15.2428C19.441 14.6514 19.6759 14.0842 20.0941 13.666C20.2537 13.5064 20.435 13.3735 20.6311 13.2701V11.9506C20.4412 11.8418 20.2668 11.7049 20.1143 11.5428C19.7243 11.1284 19.5072 10.5808 19.5072 10.0118C19.5072 9.44281 19.7243 8.89524 20.1143 8.48084C20.2668 8.31876 20.4412 8.18183 20.6311 8.0731V7.14823H4.92753Z" fill="#304607"/>
<path d="M8.94471 11.6595C8.60902 11.2542 8.42532 10.7444 8.42532 10.218C8.42532 9.69174 8.60902 9.18195 8.94471 8.7766C9.32044 8.42843 9.81378 8.23498 10.326 8.23498C10.8383 8.23498 11.3316 8.42843 11.7073 8.7766C12.043 9.18195 12.2267 9.69174 12.2267 10.218C12.2267 10.7444 12.043 11.2542 11.7073 11.6595C11.333 12.0105 10.8392 12.2059 10.326 12.2059C9.81289 12.2059 9.31901 12.0105 8.94471 11.6595ZM10.268 15.9946C10.0317 15.9946 9.94149 15.8314 10.0661 15.6294L12.0296 12.4629C12.1855 12.2198 12.3289 11.9688 12.4592 11.7111L13.8169 8.81955C13.8775 8.70741 13.9657 8.61264 14.0733 8.5442C14.1808 8.47577 14.304 8.43597 14.4313 8.42859H15.4538C15.6901 8.42859 15.7761 8.59184 15.6515 8.78947L13.5634 12.0462C13.4129 12.2894 13.278 12.542 13.1595 12.8024L11.9222 15.6037C11.864 15.7159 11.7775 15.8111 11.6712 15.8796C11.565 15.9482 11.4426 15.9879 11.3164 15.9946H10.268ZM10.6676 10.7744C10.7589 10.6029 10.8019 10.4099 10.7922 10.2159C10.804 10.0195 10.7624 9.8235 10.6719 9.64876C10.6374 9.58801 10.5874 9.5375 10.527 9.50236C10.4666 9.46721 10.398 9.44868 10.3282 9.44868C10.2583 9.44868 10.1897 9.46721 10.1293 9.50236C10.0689 9.5375 10.0189 9.58801 9.98445 9.64876C9.89665 9.82588 9.85666 10.0229 9.86845 10.2202C9.85935 10.4142 9.90238 10.607 9.99305 10.7787C10.0253 10.8409 10.074 10.893 10.1339 10.9294C10.1937 10.9658 10.2624 10.985 10.3325 10.985C10.4025 10.985 10.4712 10.9658 10.5311 10.9294C10.5909 10.893 10.6396 10.8409 10.6719 10.7787L10.6676 10.7744ZM13.8985 15.6638C13.5625 15.2578 13.3786 14.7472 13.3786 14.2202C13.3786 13.6931 13.5625 13.1826 13.8985 12.7766C14.2735 12.4287 14.7662 12.2354 15.2777 12.2354C15.7892 12.2354 16.2818 12.4287 16.6568 12.7766C16.9906 13.1837 17.1729 13.6938 17.1729 14.2202C17.1729 14.7466 16.9906 15.2567 16.6568 15.6638C16.2818 16.0117 15.7892 16.205 15.2777 16.205C14.7662 16.205 14.2735 16.0117 13.8985 15.6638ZM15.6171 14.7744C15.7094 14.6033 15.7526 14.41 15.7417 14.2159C15.7539 14.0194 15.7123 13.8234 15.6214 13.6488C15.5891 13.5872 15.5402 13.5361 15.4801 13.5011C15.4201 13.4662 15.3514 13.4488 15.282 13.4511C15.2117 13.4499 15.1424 13.4681 15.0817 13.5038C15.0211 13.5394 14.9714 13.591 14.9383 13.6531C14.846 13.8257 14.8029 14.0204 14.8137 14.2159C14.8046 14.4099 14.8476 14.6027 14.9383 14.7744C14.9715 14.8354 15.0206 14.8863 15.0803 14.9217C15.1401 14.9572 15.2082 14.9759 15.2777 14.9759C15.3471 14.9759 15.4153 14.9572 15.475 14.9217C15.5348 14.8863 15.5838 14.8354 15.6171 14.7744Z" fill="#304607"/>
</svg>
