<svg width="25" height="24" viewBox="0 0 25 24" fill="none" xmlns="http://www.w3.org/2000/svg">
<path d="M21.7793 14C21.5141 14 21.2597 14.1054 21.0722 14.2929C20.8847 14.4804 20.7793 14.7348 20.7793 15V19C20.7793 19.2652 20.6739 19.5196 20.4864 19.7071C20.2989 19.8946 20.0445 20 19.7793 20H5.7793C5.51408 20 5.25973 19.8946 5.07219 19.7071C4.88465 19.5196 4.7793 19.2652 4.7793 19V15C4.7793 14.7348 4.67394 14.4804 4.4864 14.2929C4.29887 14.1054 4.04451 14 3.7793 14C3.51408 14 3.25973 14.1054 3.07219 14.2929C2.88465 14.4804 2.7793 14.7348 2.7793 15V19C2.7793 19.7956 3.09537 20.5587 3.65798 21.1213C4.22059 21.6839 4.98365 22 5.7793 22H19.7793C20.5749 22 21.338 21.6839 21.9006 21.1213C22.4632 20.5587 22.7793 19.7956 22.7793 19V15C22.7793 14.7348 22.6739 14.4804 22.4864 14.2929C22.2989 14.1054 22.0445 14 21.7793 14ZM12.0693 15.71C12.1644 15.801 12.2765 15.8724 12.3993 15.92C12.519 15.9729 12.6484 16.0002 12.7793 16.0002C12.9102 16.0002 13.0396 15.9729 13.1593 15.92C13.282 15.8724 13.3942 15.801 13.4893 15.71L17.4893 11.71C17.6776 11.5217 17.7834 11.2663 17.7834 11C17.7834 10.7337 17.6776 10.4783 17.4893 10.29C17.301 10.1017 17.0456 9.99591 16.7793 9.99591C16.513 9.99591 16.2576 10.1017 16.0693 10.29L13.7793 12.59V3C13.7793 2.73478 13.6739 2.48043 13.4864 2.29289C13.2989 2.10536 13.0445 2 12.7793 2C12.5141 2 12.2597 2.10536 12.0722 2.29289C11.8847 2.48043 11.7793 2.73478 11.7793 3V12.59L9.4893 10.29C9.39606 10.1968 9.28537 10.1228 9.16355 10.0723C9.04172 10.0219 8.91116 9.99591 8.7793 9.99591C8.64744 9.99591 8.51687 10.0219 8.39505 10.0723C8.27323 10.1228 8.16254 10.1968 8.0693 10.29C7.97606 10.3832 7.9021 10.4939 7.85164 10.6158C7.80118 10.7376 7.77521 10.8681 7.77521 11C7.77521 11.1319 7.80118 11.2624 7.85164 11.3842C7.9021 11.5061 7.97606 11.6168 8.0693 11.71L12.0693 15.71Z" fill="#304607"/>
</svg>
