<svg width="25" height="24" viewBox="0 0 25 24" fill="none" xmlns="http://www.w3.org/2000/svg">
<path d="M5.7793 18H10.0193C10.1509 18.0008 10.2814 17.9755 10.4032 17.9258C10.525 17.876 10.6359 17.8027 10.7293 17.71L17.6493 10.78L20.4893 8C20.583 7.90704 20.6574 7.79644 20.7082 7.67458C20.759 7.55272 20.7851 7.42201 20.7851 7.29C20.7851 7.15799 20.759 7.02728 20.7082 6.90542C20.6574 6.78356 20.583 6.67296 20.4893 6.58L16.2493 2.29C16.1563 2.19627 16.0457 2.12188 15.9239 2.07111C15.802 2.02034 15.6713 1.9942 15.5393 1.9942C15.4073 1.9942 15.2766 2.02034 15.1547 2.07111C15.0329 2.12188 14.9223 2.19627 14.8293 2.29L12.0093 5.12L5.0693 12.05C4.97662 12.1434 4.90329 12.2543 4.85353 12.3761C4.80376 12.4979 4.77854 12.6284 4.7793 12.76V17C4.7793 17.2652 4.88465 17.5196 5.07219 17.7071C5.25973 17.8946 5.51408 18 5.7793 18ZM15.5393 4.41L18.3693 7.24L16.9493 8.66L14.1193 5.83L15.5393 4.41ZM6.7793 13.17L12.7093 7.24L15.5393 10.07L9.6093 16H6.7793V13.17ZM21.7793 20H3.7793C3.51408 20 3.25973 20.1054 3.07219 20.2929C2.88465 20.4804 2.7793 20.7348 2.7793 21C2.7793 21.2652 2.88465 21.5196 3.07219 21.7071C3.25973 21.8946 3.51408 22 3.7793 22H21.7793C22.0445 22 22.2989 21.8946 22.4864 21.7071C22.6739 21.5196 22.7793 21.2652 22.7793 21C22.7793 20.7348 22.6739 20.4804 22.4864 20.2929C22.2989 20.1054 22.0445 20 21.7793 20Z" fill="#304607"/>
</svg>
