<svg width="25" height="24" viewBox="0 0 25 24" fill="none" xmlns="http://www.w3.org/2000/svg">
<path d="M16.8343 15.5041H3.58244L5.59029 4.26013H18.8421L16.8343 15.5041ZM16.8343 15.5041L21.6531 15.5041L22.657 11.9703C22.7796 11.5914 22.8106 11.1888 22.7474 10.7956C22.6842 10.4024 22.5286 10.0298 22.2934 9.7084C22.0583 9.38701 21.7502 9.12597 21.3946 8.94675C21.0389 8.76752 20.6459 8.67522 20.2476 8.67741H18.039L16.8343 15.5041ZM2.7793 8.67741H8.80285M8.329 18.0902C8.329 18.6247 7.89571 19.058 7.36122 19.058C6.82672 19.058 6.39343 18.6247 6.39343 18.0902C6.39343 17.5557 6.82672 17.1224 7.36122 17.1224C7.89571 17.1224 8.329 17.5557 8.329 18.0902ZM16.6375 18.0902C16.6375 18.6247 16.2042 19.058 15.6697 19.058C15.1352 19.058 14.7019 18.6247 14.7019 18.0902C14.7019 17.5557 15.1352 17.1224 15.6697 17.1224C16.2042 17.1224 16.6375 17.5557 16.6375 18.0902Z" stroke="#304607" stroke-width="2" stroke-linecap="round" stroke-linejoin="round"/>
</svg>
