<svg width="25" height="24" viewBox="0 0 25 24" fill="none" xmlns="http://www.w3.org/2000/svg">
<path d="M19.7793 2H5.7793C4.98365 2 4.22059 2.31607 3.65798 2.87868C3.09537 3.44129 2.7793 4.20435 2.7793 5V6.17C2.77915 6.58294 2.86426 6.99147 3.0293 7.37V7.43C3.17058 7.75097 3.37069 8.04266 3.6193 8.29L9.7793 14.41V21C9.77896 21.1699 9.82193 21.3372 9.90417 21.4859C9.9864 21.6346 10.1052 21.7599 10.2493 21.85C10.4084 21.9486 10.5921 22.0006 10.7793 22C10.9358 21.9991 11.09 21.9614 11.2293 21.89L15.2293 19.89C15.3942 19.8069 15.5329 19.6798 15.63 19.5227C15.7271 19.3656 15.7787 19.1847 15.7793 19V14.41L21.8993 8.29C22.1479 8.04266 22.348 7.75097 22.4893 7.43V7.37C22.6681 6.99443 22.7669 6.58578 22.7793 6.17V5C22.7793 4.20435 22.4632 3.44129 21.9006 2.87868C21.338 2.31607 20.5749 2 19.7793 2ZM14.0693 13.29C13.9766 13.3834 13.9033 13.4943 13.8535 13.6161C13.8038 13.7379 13.7785 13.8684 13.7793 14V18.38L11.7793 19.38V14C11.7801 13.8684 11.7548 13.7379 11.7051 13.6161C11.6553 13.4943 11.582 13.3834 11.4893 13.29L6.1893 8H19.3693L14.0693 13.29ZM20.7793 6H4.7793V5C4.7793 4.73478 4.88465 4.48043 5.07219 4.29289C5.25973 4.10536 5.51408 4 5.7793 4H19.7793C20.0445 4 20.2989 4.10536 20.4864 4.29289C20.6739 4.48043 20.7793 4.73478 20.7793 5V6Z" fill="#304607"/>
</svg>
