<svg width="25" height="24" viewBox="0 0 25 24" fill="none" xmlns="http://www.w3.org/2000/svg">
<path d="M12.7793 6V22M12.7793 6H9.24358C8.72262 6 8.223 5.78929 7.85462 5.41421C7.48625 5.03914 7.2793 4.53043 7.2793 4C7.2793 3.46957 7.48625 2.96086 7.85462 2.58579C8.223 2.21071 8.72262 2 9.24358 2C11.9936 2 12.7793 6 12.7793 6ZM12.7793 6H16.315C16.836 6 17.3356 5.78929 17.704 5.41421C18.0723 5.03914 18.2793 4.53043 18.2793 4C18.2793 3.46957 18.0723 2.96086 17.704 2.58579C17.3356 2.21071 16.836 2 16.315 2C13.565 2 12.7793 6 12.7793 6ZM20.7793 11V18.8C20.7793 19.9201 20.7793 20.4802 20.5613 20.908C20.3696 21.2843 20.0636 21.5903 19.6873 21.782C19.2595 22 18.6994 22 17.5793 22L7.9793 22C6.85919 22 6.29914 22 5.87132 21.782C5.49499 21.5903 5.18903 21.2843 4.99728 20.908C4.7793 20.4802 4.7793 19.9201 4.7793 18.8V11M2.7793 7.6L2.7793 9.4C2.7793 9.96005 2.7793 10.2401 2.88829 10.454C2.98416 10.6422 3.13714 10.7951 3.32531 10.891C3.53922 11 3.81924 11 4.3793 11L21.1793 11C21.7394 11 22.0194 11 22.2333 10.891C22.4214 10.7951 22.5744 10.6422 22.6703 10.454C22.7793 10.2401 22.7793 9.96005 22.7793 9.4V7.6C22.7793 7.03995 22.7793 6.75992 22.6703 6.54601C22.5744 6.35785 22.4214 6.20487 22.2333 6.10899C22.0194 6 21.7393 6 21.1793 6L4.3793 6C3.81924 6 3.53922 6 3.32531 6.10899C3.13714 6.20487 2.98416 6.35785 2.88829 6.54601C2.7793 6.75992 2.7793 7.03995 2.7793 7.6Z" stroke="#304607" stroke-width="2" stroke-linecap="round" stroke-linejoin="round"/>
</svg>
