<svg width="25" height="24" viewBox="0 0 25 24" fill="none" xmlns="http://www.w3.org/2000/svg">
<path d="M20.9391 4.99998C19.8791 3.93719 18.4739 3.28852 16.9774 3.17115C15.481 3.05378 13.9918 3.47545 12.7791 4.35998C11.5067 3.41362 9.92308 2.98449 8.347 3.15902C6.77093 3.33355 5.31952 4.09876 4.28506 5.30057C3.25059 6.50237 2.70991 8.0515 2.77189 9.636C2.83386 11.2205 3.4939 12.7227 4.61908 13.84L10.8291 20.06C11.3491 20.5718 12.0495 20.8586 12.7791 20.8586C13.5087 20.8586 14.2091 20.5718 14.7291 20.06L20.9391 13.84C22.1067 12.6652 22.762 11.0763 22.762 9.41998C22.762 7.76371 22.1067 6.17472 20.9391 4.99998ZM19.5291 12.46L13.3191 18.67C13.2484 18.7413 13.1643 18.798 13.0716 18.8366C12.9789 18.8753 12.8795 18.8952 12.7791 18.8952C12.6787 18.8952 12.5792 18.8753 12.4865 18.8366C12.3939 18.798 12.3098 18.7413 12.2391 18.67L6.02908 12.43C5.24484 11.6283 4.80569 10.5514 4.80569 9.42998C4.80569 8.30852 5.24484 7.23164 6.02908 6.42998C6.82824 5.64097 7.90606 5.19855 9.02908 5.19855C10.1521 5.19855 11.2299 5.64097 12.0291 6.42998C12.122 6.52371 12.2326 6.59811 12.3545 6.64887C12.4764 6.69964 12.6071 6.72578 12.7391 6.72578C12.8711 6.72578 13.0018 6.69964 13.1237 6.64887C13.2455 6.59811 13.3561 6.52371 13.4491 6.42998C14.2482 5.64097 15.3261 5.19855 16.4491 5.19855C17.5721 5.19855 18.6499 5.64097 19.4491 6.42998C20.2441 7.22113 20.6977 8.29217 20.7126 9.41367C20.7276 10.5352 20.3027 11.6179 19.5291 12.43V12.46Z" fill="#304607"/>
</svg>
