<svg width="25" height="24" viewBox="0 0 25 24" fill="none" xmlns="http://www.w3.org/2000/svg">
<path d="M20.5059 7.53171L15.1148 2.8712C14.4614 2.30911 13.6281 2 12.7662 2C11.9044 2 11.0711 2.30911 10.4177 2.8712L5.02662 7.53171C4.6352 7.87066 4.32125 8.28981 4.10604 8.76075C3.89083 9.23169 3.77939 9.7434 3.7793 10.2612V18.4758C3.7793 18.8319 3.84953 19.1845 3.98598 19.5135C4.12243 19.8425 4.3224 20.1413 4.57448 20.3928C4.82655 20.6444 5.12576 20.8438 5.45499 20.9797C5.78422 21.1155 6.13699 21.185 6.49313 21.1843H10.1098V15.2452C10.1098 14.5366 10.3914 13.8569 10.8925 13.3558C11.3936 12.8547 12.0732 12.5732 12.7819 12.5732C13.4906 12.5732 14.1702 12.8547 14.6713 13.3558C15.1725 13.8569 15.454 14.5366 15.454 15.2452V21.1843H19.389C20.023 21.1843 20.6309 20.9325 21.0792 20.4843C21.5275 20.036 21.7793 19.428 21.7793 18.7941V10.2612C21.776 9.74138 21.6605 9.22841 21.4407 8.75734C21.2209 8.28627 20.9021 7.86822 20.5059 7.53171V7.53171Z" stroke="#304607" stroke-width="2" stroke-linecap="round" stroke-linejoin="round"/>
</svg>
