<svg width="25" height="24" viewBox="0 0 25 24" fill="none" xmlns="http://www.w3.org/2000/svg">
<path d="M16.9793 21H7.71067C7.10485 21 6.80194 21 6.66168 20.8802C6.53997 20.7763 6.47539 20.6203 6.48795 20.4608C6.50242 20.2769 6.71661 20.0627 7.14498 19.6343L15.6479 11.1314C16.0439 10.7354 16.242 10.5373 16.4703 10.4632C16.6711 10.3979 16.8875 10.3979 17.0883 10.4632C17.3166 10.5373 17.5147 10.7354 17.9107 11.1314L21.7793 15V16.2M16.9793 21C18.6595 21 19.4995 21 20.1413 20.673C20.7058 20.3854 21.1647 19.9265 21.4523 19.362C21.7793 18.7202 21.7793 17.8802 21.7793 16.2M16.9793 21H8.5793C6.89914 21 6.05906 21 5.41733 20.673C4.85284 20.3854 4.3939 19.9265 4.10628 19.362C3.7793 18.7202 3.7793 17.8802 3.7793 16.2V7.8C3.7793 6.11984 3.7793 5.27976 4.10628 4.63803C4.3939 4.07354 4.85284 3.6146 5.41733 3.32698C6.05906 3 6.89914 3 8.5793 3H16.9793C18.6595 3 19.4995 3 20.1413 3.32698C20.7058 3.6146 21.1647 4.07354 21.4523 4.63803C21.7793 5.27976 21.7793 6.11984 21.7793 7.8V16.2M11.2793 8.5C11.2793 9.60457 10.3839 10.5 9.2793 10.5C8.17473 10.5 7.2793 9.60457 7.2793 8.5C7.2793 7.39543 8.17473 6.5 9.2793 6.5C10.3839 6.5 11.2793 7.39543 11.2793 8.5Z" stroke="#304607" stroke-width="2" stroke-linecap="round" stroke-linejoin="round"/>
</svg>
