<svg width="25" height="24" viewBox="0 0 25 24" fill="none" xmlns="http://www.w3.org/2000/svg">
<path d="M13.2793 3H8.5793C6.89914 3 6.05906 3 5.41733 3.32698C4.85284 3.6146 4.3939 4.07354 4.10628 4.63803C3.7793 5.27976 3.7793 6.11984 3.7793 7.8V16.2C3.7793 17.8802 3.7793 18.7202 4.10628 19.362C4.3939 19.9265 4.85284 20.3854 5.41733 20.673C6.05906 21 6.89914 21 8.5793 21H17.7793C18.7093 21 19.1743 21 19.5558 20.8978C20.591 20.6204 21.3997 19.8117 21.6771 18.7765C21.7793 18.395 21.7793 17.93 21.7793 17M19.7793 8V2M16.7793 5H22.7793M11.2793 8.5C11.2793 9.60457 10.3839 10.5 9.2793 10.5C8.17473 10.5 7.2793 9.60457 7.2793 8.5C7.2793 7.39543 8.17473 6.5 9.2793 6.5C10.3839 6.5 11.2793 7.39543 11.2793 8.5ZM15.7693 11.9181L7.31045 19.608C6.83466 20.0406 6.59677 20.2568 6.57572 20.4442C6.55749 20.6066 6.61975 20.7676 6.74248 20.8755C6.88408 21 7.20558 21 7.84858 21H17.2353C18.6744 21 19.394 21 19.9592 20.7582C20.6687 20.4547 21.234 19.8894 21.5375 19.1799C21.7793 18.6147 21.7793 17.8951 21.7793 16.456C21.7793 15.9717 21.7793 15.7296 21.7264 15.5042C21.6598 15.2208 21.5323 14.9554 21.3526 14.7264C21.2095 14.5442 21.0205 14.3929 20.6424 14.0905L17.8451 11.8527C17.4667 11.5499 17.2775 11.3985 17.0691 11.3451C16.8854 11.298 16.6922 11.3041 16.5118 11.3627C16.3072 11.4291 16.1279 11.5921 15.7693 11.9181Z" stroke="#304607" stroke-width="2" stroke-linecap="round" stroke-linejoin="round"/>
</svg>
