<svg width="25" height="24" viewBox="0 0 25 24" fill="none" xmlns="http://www.w3.org/2000/svg">
<path d="M12.7793 11C12.5141 11 12.2597 11.1054 12.0722 11.2929C11.8847 11.4804 11.7793 11.7348 11.7793 12V16C11.7793 16.2652 11.8847 16.5196 12.0722 16.7071C12.2597 16.8946 12.5141 17 12.7793 17C13.0445 17 13.2989 16.8946 13.4864 16.7071C13.6739 16.5196 13.7793 16.2652 13.7793 16V12C13.7793 11.7348 13.6739 11.4804 13.4864 11.2929C13.2989 11.1054 13.0445 11 12.7793 11ZM13.1593 7.08C12.9158 6.97998 12.6428 6.97998 12.3993 7.08C12.2766 7.12759 12.1644 7.19896 12.0693 7.29C11.981 7.3872 11.9099 7.49882 11.8593 7.62C11.8033 7.73868 11.7759 7.86882 11.7793 8C11.7785 8.13161 11.8038 8.26207 11.8535 8.38391C11.9033 8.50574 11.9766 8.61656 12.0693 8.71C12.1665 8.79833 12.2781 8.86936 12.3993 8.92C12.5508 8.98224 12.7153 9.00632 12.8782 8.99011C13.0412 8.97391 13.1977 8.91792 13.334 8.82707C13.4703 8.73622 13.5822 8.61328 13.6598 8.46907C13.7375 8.32486 13.7785 8.16378 13.7793 8C13.7756 7.73523 13.672 7.48163 13.4893 7.29C13.3942 7.19896 13.2821 7.12759 13.1593 7.08ZM12.7793 2C10.8015 2 8.86809 2.58649 7.2236 3.6853C5.57911 4.78412 4.29738 6.3459 3.54051 8.17317C2.78363 10.0004 2.5856 12.0111 2.97145 13.9509C3.3573 15.8907 4.30971 17.6725 5.70823 19.0711C7.10676 20.4696 8.88859 21.422 10.8284 21.8079C12.7682 22.1937 14.7789 21.9957 16.6061 21.2388C18.4334 20.4819 19.9952 19.2002 21.094 17.5557C22.1928 15.9112 22.7793 13.9778 22.7793 12C22.7793 10.6868 22.5206 9.38642 22.0181 8.17317C21.5156 6.95991 20.779 5.85752 19.8504 4.92893C18.9218 4.00035 17.8194 3.26375 16.6061 2.7612C15.3929 2.25866 14.0925 2 12.7793 2ZM12.7793 20C11.1971 20 9.65033 19.5308 8.33474 18.6518C7.01915 17.7727 5.99377 16.5233 5.38827 15.0615C4.78276 13.5997 4.62434 11.9911 4.93302 10.4393C5.2417 8.88743 6.00363 7.46197 7.12245 6.34315C8.24127 5.22433 9.66673 4.4624 11.2186 4.15372C12.7704 3.84504 14.379 4.00346 15.8408 4.60896C17.3026 5.21447 18.552 6.23984 19.4311 7.55544C20.3101 8.87103 20.7793 10.4177 20.7793 12C20.7793 14.1217 19.9364 16.1566 18.4362 17.6569C16.9359 19.1571 14.901 20 12.7793 20Z" fill="#304607"/>
</svg>
