<svg width="25" height="24" viewBox="0 0 25 24" fill="none" xmlns="http://www.w3.org/2000/svg">
<path d="M22.1892 8.64C22.1892 8.64 22.1892 8.64 22.1892 8.59C21.4846 6.66623 20.2062 5.00529 18.5267 3.83187C16.8473 2.65845 14.848 2.02917 12.7992 2.02917C10.7505 2.02917 8.75118 2.65845 7.07176 3.83187C5.39233 5.00529 4.11385 6.66623 3.40925 8.59C3.40925 8.59 3.40925 8.59 3.40925 8.64C2.62237 10.8109 2.62237 13.1891 3.40925 15.36C3.40925 15.36 3.40925 15.36 3.40925 15.41C4.11385 17.3338 5.39233 18.9947 7.07176 20.1681C8.75118 21.3416 10.7505 21.9708 12.7992 21.9708C14.848 21.9708 16.8473 21.3416 18.5267 20.1681C20.2062 18.9947 21.4846 17.3338 22.1892 15.41C22.1892 15.41 22.1892 15.41 22.1892 15.36C22.9761 13.1891 22.9761 10.8109 22.1892 8.64ZM5.03925 14C4.69248 12.6892 4.69248 11.3108 5.03925 10H6.89925C6.73928 11.3285 6.73928 12.6715 6.89925 14H5.03925ZM5.85925 16H7.25925C7.49397 16.8918 7.82946 17.7541 8.25925 18.57C7.27855 17.9019 6.45874 17.0241 5.85925 16ZM7.25925 8H5.85925C6.45012 6.97909 7.25944 6.10147 8.22925 5.43C7.8098 6.24725 7.48439 7.10942 7.25925 8ZM11.7792 19.7C10.551 18.7987 9.6884 17.4852 9.34925 16H11.7792V19.7ZM11.7792 14H8.91925C8.73264 12.6732 8.73264 11.3268 8.91925 10H11.7792V14ZM11.7792 8H9.34925C9.6884 6.51477 10.551 5.20132 11.7792 4.3V8ZM19.6992 8H18.2992C18.0645 7.10816 17.729 6.24594 17.2992 5.43C18.28 6.09807 19.0998 6.97594 19.6992 8ZM13.7792 4.3C15.0075 5.20132 15.8701 6.51477 16.2092 8H13.7792V4.3ZM13.7792 19.7V16H16.2092C15.8701 17.4852 15.0075 18.7987 13.7792 19.7ZM16.6392 14H13.7792V10H16.6392C16.8259 11.3268 16.8259 12.6732 16.6392 14ZM17.3292 18.57C17.759 17.7541 18.0945 16.8918 18.3292 16H19.7292C19.1298 17.0241 18.3099 17.9019 17.3292 18.57ZM20.5192 14H18.6592C18.7406 13.3365 18.7807 12.6685 18.7792 12C18.7803 11.3315 18.7403 10.6636 18.6592 10H20.5192C20.866 11.3108 20.866 12.6892 20.5192 14Z" fill="#304607"/>
</svg>
