<svg width="25" height="24" viewBox="0 0 25 24" fill="none" xmlns="http://www.w3.org/2000/svg">
<path d="M21.2004 10.4549V21.7736H4.38013V10.3917M22.6744 6.56963L19.9158 1.92633H5.58041L2.82706 6.56963H2.77441V8.20693C2.79638 8.80602 3.05455 9.37208 3.49252 9.78144C3.93049 10.1908 4.51266 10.4102 5.11187 10.3917H5.46986C6.06907 10.4102 6.65124 10.1908 7.08921 9.78144C7.52718 9.37208 7.78535 8.80602 7.80732 8.20693C7.82793 8.80555 8.08495 9.37158 8.52208 9.78109C8.95921 10.1906 9.54081 10.4102 10.1395 10.3917H10.5028C11.6031 10.3917 12.5244 9.14402 12.7665 8.18061C13.0087 9.14402 13.93 10.3917 15.0355 10.3917H15.4093C16.0085 10.4102 16.5907 10.1908 17.0287 9.78144C17.4666 9.37208 17.7248 8.80602 17.7468 8.20693C17.7674 8.80555 18.0244 9.37158 18.4615 9.78109C18.8987 10.1906 19.4803 10.4102 20.079 10.3917H20.437C21.0362 10.4102 21.6183 10.1908 22.0563 9.78144C22.4943 9.37208 22.7524 8.80602 22.7744 8.20693V6.56963H22.6744ZM9.57623 14.7665H15.999V21.7736H9.57623V14.7665Z" stroke="#304607" stroke-width="2" stroke-linecap="round" stroke-linejoin="round"/>
</svg>
