<svg width="25" height="24" viewBox="0 0 25 24" fill="none" xmlns="http://www.w3.org/2000/svg">
<path d="M12.0694 12L15.6094 8.46001C15.7956 8.27265 15.9002 8.0192 15.9002 7.75501C15.9002 7.49082 15.7956 7.23737 15.6094 7.05001C15.5164 6.95628 15.4058 6.88189 15.2839 6.83112C15.1621 6.78035 15.0314 6.75421 14.8994 6.75421C14.7674 6.75421 14.6366 6.78035 14.5148 6.83112C14.3929 6.88189 14.2823 6.95628 14.1894 7.05001L9.94936 11.29C9.85563 11.383 9.78124 11.4936 9.73047 11.6154C9.6797 11.7373 9.65356 11.868 9.65356 12C9.65356 12.132 9.6797 12.2627 9.73047 12.3846C9.78124 12.5064 9.85563 12.617 9.94936 12.71L14.1894 17C14.2828 17.0927 14.3936 17.166 14.5155 17.2158C14.6373 17.2655 14.7678 17.2908 14.8994 17.29C15.031 17.2908 15.1614 17.2655 15.2833 17.2158C15.4051 17.166 15.5159 17.0927 15.6094 17C15.7956 16.8126 15.9002 16.5592 15.9002 16.295C15.9002 16.0308 15.7956 15.7774 15.6094 15.59L12.0694 12Z" fill="#304607"/>
</svg>
