<svg width="25" height="24" viewBox="0 0 25 24" fill="none" xmlns="http://www.w3.org/2000/svg">
<path d="M9.0693 11.29C8.97826 11.3851 8.90689 11.4972 8.8593 11.62C8.75928 11.8635 8.75928 12.1365 8.8593 12.38C8.90689 12.5028 8.97826 12.6149 9.0693 12.71L12.0693 15.71C12.2576 15.8983 12.513 16.0041 12.7793 16.0041C13.0456 16.0041 13.301 15.8983 13.4893 15.71C13.6776 15.5217 13.7834 15.2663 13.7834 15C13.7834 14.7337 13.6776 14.4783 13.4893 14.29L12.1893 13H15.7793C16.0445 13 16.2989 12.8946 16.4864 12.7071C16.6739 12.5196 16.7793 12.2652 16.7793 12C16.7793 11.7348 16.6739 11.4804 16.4864 11.2929C16.2989 11.1054 16.0445 11 15.7793 11H12.1893L13.4893 9.71C13.583 9.61704 13.6574 9.50644 13.7082 9.38458C13.759 9.26272 13.7851 9.13201 13.7851 9C13.7851 8.86799 13.759 8.73728 13.7082 8.61542C13.6574 8.49356 13.583 8.38296 13.4893 8.29C13.3963 8.19627 13.2857 8.12188 13.1639 8.07111C13.042 8.02034 12.9113 7.9942 12.7793 7.9942C12.6473 7.9942 12.5166 8.02034 12.3947 8.07111C12.2729 8.12188 12.1623 8.19627 12.0693 8.29L9.0693 11.29ZM2.7793 12C2.7793 13.9778 3.36579 15.9112 4.4646 17.5557C5.56342 19.2002 7.1252 20.4819 8.95246 21.2388C10.7797 21.9957 12.7904 22.1937 14.7302 21.8079C16.67 21.422 18.4518 20.4696 19.8504 19.0711C21.2489 17.6725 22.2013 15.8907 22.5872 13.9509C22.973 12.0111 22.775 10.0004 22.0181 8.17317C21.2612 6.3459 19.9795 4.78412 18.335 3.6853C16.6905 2.58649 14.7571 2 12.7793 2C11.4661 2 10.1657 2.25866 8.95246 2.7612C7.73921 3.26375 6.63681 4.00035 5.70823 4.92893C3.83287 6.8043 2.7793 9.34784 2.7793 12ZM20.7793 12C20.7793 13.5823 20.3101 15.129 19.4311 16.4446C18.552 17.7602 17.3026 18.7855 15.8408 19.391C14.379 19.9965 12.7704 20.155 11.2186 19.8463C9.66673 19.5376 8.24126 18.7757 7.12244 17.6569C6.00362 16.538 5.2417 15.1126 4.93301 13.5607C4.62433 12.0089 4.78276 10.4003 5.38826 8.93853C5.99376 7.47672 7.01914 6.22729 8.33473 5.34824C9.65033 4.46919 11.197 4 12.7793 4C14.901 4 16.9359 4.84285 18.4362 6.34315C19.9364 7.84344 20.7793 9.87827 20.7793 12Z" fill="#304607"/>
</svg>
