<svg width="25" height="24" viewBox="0 0 25 24" fill="none" xmlns="http://www.w3.org/2000/svg">
<path d="M17.7792 11H10.1892L13.4892 7.71C13.6775 7.5217 13.7833 7.2663 13.7833 7C13.7833 6.7337 13.6775 6.47831 13.4892 6.29C13.3009 6.1017 13.0455 5.99591 12.7792 5.99591C12.5129 5.99591 12.2575 6.1017 12.0692 6.29L7.06919 11.29C6.97815 11.3851 6.90679 11.4973 6.85919 11.62C6.75918 11.8635 6.75918 12.1365 6.85919 12.38C6.90679 12.5028 6.97815 12.6149 7.06919 12.71L12.0692 17.71C12.1622 17.8037 12.2728 17.8781 12.3946 17.9289C12.5165 17.9797 12.6472 18.0058 12.7792 18.0058C12.9112 18.0058 13.0419 17.9797 13.1638 17.9289C13.2856 17.8781 13.3962 17.8037 13.4892 17.71C13.5829 17.617 13.6573 17.5064 13.7081 17.3846C13.7589 17.2627 13.785 17.132 13.785 17C13.785 16.868 13.7589 16.7373 13.7081 16.6154C13.6573 16.4936 13.5829 16.383 13.4892 16.29L10.1892 13H17.7792C18.0444 13 18.2988 12.8946 18.4863 12.7071C18.6738 12.5196 18.7792 12.2652 18.7792 12C18.7792 11.7348 18.6738 11.4804 18.4863 11.2929C18.2988 11.1054 18.0444 11 17.7792 11Z" fill="#304607"/>
</svg>
