<svg width="25" height="24" viewBox="0 0 25 24" fill="none" xmlns="http://www.w3.org/2000/svg">
<path d="M12.7793 13C12.5141 13 12.2597 13.1054 12.0722 13.2929C11.8847 13.4804 11.7793 13.7348 11.7793 14V17C11.7793 17.2652 11.8847 17.5196 12.0722 17.7071C12.2597 17.8946 12.5141 18 12.7793 18C13.0445 18 13.2989 17.8946 13.4864 17.7071C13.6739 17.5196 13.7793 17.2652 13.7793 17V14C13.7793 13.7348 13.6739 13.4804 13.4864 13.2929C13.2989 13.1054 13.0445 13 12.7793 13ZM17.7793 9V7C17.7793 5.67392 17.2525 4.40215 16.3148 3.46447C15.3771 2.52678 14.1054 2 12.7793 2C11.4532 2 10.1814 2.52678 9.24376 3.46447C8.30608 4.40215 7.7793 5.67392 7.7793 7V9C6.98365 9 6.22059 9.31607 5.65798 9.87868C5.09537 10.4413 4.7793 11.2044 4.7793 12V19C4.7793 19.7956 5.09537 20.5587 5.65798 21.1213C6.22059 21.6839 6.98365 22 7.7793 22H17.7793C18.5749 22 19.338 21.6839 19.9006 21.1213C20.4632 20.5587 20.7793 19.7956 20.7793 19V12C20.7793 11.2044 20.4632 10.4413 19.9006 9.87868C19.338 9.31607 18.5749 9 17.7793 9ZM9.7793 7C9.7793 6.20435 10.0954 5.44129 10.658 4.87868C11.2206 4.31607 11.9836 4 12.7793 4C13.5749 4 14.338 4.31607 14.9006 4.87868C15.4632 5.44129 15.7793 6.20435 15.7793 7V9H9.7793V7ZM18.7793 19C18.7793 19.2652 18.6739 19.5196 18.4864 19.7071C18.2989 19.8946 18.0445 20 17.7793 20H7.7793C7.51408 20 7.25973 19.8946 7.07219 19.7071C6.88465 19.5196 6.7793 19.2652 6.7793 19V12C6.7793 11.7348 6.88465 11.4804 7.07219 11.2929C7.25973 11.1054 7.51408 11 7.7793 11H17.7793C18.0445 11 18.2989 11.1054 18.4864 11.2929C18.6739 11.4804 18.7793 11.7348 18.7793 12V19Z" fill="#304607"/>
</svg>
