<svg width="25" height="24" viewBox="0 0 25 24" fill="none" xmlns="http://www.w3.org/2000/svg">
<path d="M12.7793 13C12.4748 12.9964 12.1766 13.0862 11.9247 13.2573C11.6729 13.4283 11.4794 13.6725 11.3705 13.9568C11.2616 14.2411 11.2424 14.552 11.3154 14.8475C11.3885 15.1431 11.5504 15.4092 11.7793 15.61V17C11.7793 17.2652 11.8847 17.5196 12.0722 17.7071C12.2597 17.8946 12.5141 18 12.7793 18C13.0445 18 13.2989 17.8946 13.4864 17.7071C13.6739 17.5196 13.7793 17.2652 13.7793 17V15.61C14.0082 15.4092 14.1701 15.1431 14.2431 14.8475C14.3162 14.552 14.297 14.2411 14.1881 13.9568C14.0791 13.6725 13.8857 13.4283 13.6339 13.2573C13.382 13.0862 13.0837 12.9964 12.7793 13ZM17.7793 8.99998H9.7793V6.99998C9.77784 6.40617 9.95264 5.82528 10.2816 5.33088C10.6105 4.83649 11.0787 4.45083 11.627 4.22274C12.1752 3.99466 12.7789 3.93441 13.3614 4.04963C13.9439 4.16485 14.4791 4.45035 14.8993 4.86998C15.2752 5.25405 15.5442 5.72981 15.6793 6.24998C15.7121 6.37736 15.7697 6.49703 15.8488 6.60215C15.9279 6.70728 16.0269 6.79579 16.1402 6.86265C16.2535 6.92951 16.3788 6.9734 16.5091 6.99182C16.6393 7.01023 16.7719 7.00281 16.8993 6.96998C17.0267 6.93715 17.1463 6.87955 17.2515 6.80047C17.3566 6.72139 17.4451 6.62239 17.512 6.5091C17.5788 6.39581 17.6227 6.27046 17.6411 6.14021C17.6595 6.00996 17.6521 5.87736 17.6193 5.74998C17.3915 4.88478 16.9396 4.09492 16.3093 3.45998C15.6095 2.76235 14.7186 2.28772 13.7493 2.09602C12.7799 1.90433 11.7754 2.00417 10.8628 2.38294C9.95008 2.7617 9.1701 3.40241 8.6213 4.22415C8.07251 5.0459 7.77951 6.01183 7.7793 6.99998V8.99998C6.98365 8.99998 6.22059 9.31605 5.65798 9.87866C5.09537 10.4413 4.7793 11.2043 4.7793 12V19C4.7793 19.7956 5.09537 20.5587 5.65798 21.1213C6.22059 21.6839 6.98365 22 7.7793 22H17.7793C18.5749 22 19.338 21.6839 19.9006 21.1213C20.4632 20.5587 20.7793 19.7956 20.7793 19V12C20.7793 11.2043 20.4632 10.4413 19.9006 9.87866C19.338 9.31605 18.5749 8.99998 17.7793 8.99998ZM18.7793 19C18.7793 19.2652 18.6739 19.5196 18.4864 19.7071C18.2989 19.8946 18.0445 20 17.7793 20H7.7793C7.51408 20 7.25973 19.8946 7.07219 19.7071C6.88465 19.5196 6.7793 19.2652 6.7793 19V12C6.7793 11.7348 6.88465 11.4804 7.07219 11.2929C7.25973 11.1053 7.51408 11 7.7793 11H17.7793C18.0445 11 18.2989 11.1053 18.4864 11.2929C18.6739 11.4804 18.7793 11.7348 18.7793 12V19Z" fill="#304607"/>
</svg>
