<svg width="25" height="24" viewBox="0 0 25 24" fill="none" xmlns="http://www.w3.org/2000/svg">
<path d="M4.7793 12C4.7793 12.2652 4.88465 12.5196 5.07219 12.7071C5.25973 12.8946 5.51408 13 5.7793 13H13.3693L11.0693 15.29C10.9756 15.383 10.9012 15.4936 10.8504 15.6154C10.7996 15.7373 10.7735 15.868 10.7735 16C10.7735 16.132 10.7996 16.2627 10.8504 16.3846C10.9012 16.5064 10.9756 16.617 11.0693 16.71C11.1623 16.8037 11.2729 16.8781 11.3947 16.9289C11.5166 16.9797 11.6473 17.0058 11.7793 17.0058C11.9113 17.0058 12.042 16.9797 12.1639 16.9289C12.2857 16.8781 12.3963 16.8037 12.4893 16.71L16.4893 12.71C16.5803 12.6149 16.6517 12.5028 16.6993 12.38C16.7993 12.1365 16.7993 11.8635 16.6993 11.62C16.6517 11.4972 16.5803 11.3851 16.4893 11.29L12.4893 7.29C12.3961 7.19676 12.2854 7.1228 12.1635 7.07234C12.0417 7.02188 11.9112 6.99591 11.7793 6.99591C11.6474 6.99591 11.5169 7.02188 11.395 7.07234C11.2732 7.1228 11.1625 7.19676 11.0693 7.29C10.9761 7.38324 10.9021 7.49393 10.8516 7.61575C10.8012 7.73757 10.7752 7.86814 10.7752 8C10.7752 8.13186 10.8012 8.26243 10.8516 8.38425C10.9021 8.50607 10.9761 8.61676 11.0693 8.71L13.3693 11H5.7793C5.51408 11 5.25973 11.1054 5.07219 11.2929C4.88465 11.4804 4.7793 11.7348 4.7793 12ZM17.7793 2H7.7793C6.98365 2 6.22059 2.31607 5.65798 2.87868C5.09537 3.44129 4.7793 4.20435 4.7793 5V8C4.7793 8.26522 4.88465 8.51957 5.07219 8.70711C5.25973 8.89464 5.51408 9 5.7793 9C6.04451 9 6.29887 8.89464 6.4864 8.70711C6.67394 8.51957 6.7793 8.26522 6.7793 8V5C6.7793 4.73478 6.88465 4.48043 7.07219 4.29289C7.25973 4.10536 7.51408 4 7.7793 4H17.7793C18.0445 4 18.2989 4.10536 18.4864 4.29289C18.6739 4.48043 18.7793 4.73478 18.7793 5V19C18.7793 19.2652 18.6739 19.5196 18.4864 19.7071C18.2989 19.8946 18.0445 20 17.7793 20H7.7793C7.51408 20 7.25973 19.8946 7.07219 19.7071C6.88465 19.5196 6.7793 19.2652 6.7793 19V16C6.7793 15.7348 6.67394 15.4804 6.4864 15.2929C6.29887 15.1054 6.04451 15 5.7793 15C5.51408 15 5.25973 15.1054 5.07219 15.2929C4.88465 15.4804 4.7793 15.7348 4.7793 16V19C4.7793 19.7956 5.09537 20.5587 5.65798 21.1213C6.22059 21.6839 6.98365 22 7.7793 22H17.7793C18.5749 22 19.338 21.6839 19.9006 21.1213C20.4632 20.5587 20.7793 19.7956 20.7793 19V5C20.7793 4.20435 20.4632 3.44129 19.9006 2.87868C19.338 2.31607 18.5749 2 17.7793 2Z" fill="#304607"/>
</svg>
