<svg width="25" height="24" viewBox="0 0 25 24" fill="none" xmlns="http://www.w3.org/2000/svg">
<path d="M19.7793 4H5.7793C4.98365 4 4.22059 4.31607 3.65798 4.87868C3.09537 5.44129 2.7793 6.20435 2.7793 7V17C2.7793 17.7956 3.09537 18.5587 3.65798 19.1213C4.22059 19.6839 4.98365 20 5.7793 20H19.7793C20.5749 20 21.338 19.6839 21.9006 19.1213C22.4632 18.5587 22.7793 17.7956 22.7793 17V7C22.7793 6.20435 22.4632 5.44129 21.9006 4.87868C21.338 4.31607 20.5749 4 19.7793 4ZM5.7793 6H19.7793C20.0445 6 20.2989 6.10536 20.4864 6.29289C20.6739 6.48043 20.7793 6.73478 20.7793 7L12.7793 11.88L4.7793 7C4.7793 6.73478 4.88465 6.48043 5.07219 6.29289C5.25973 6.10536 5.51408 6 5.7793 6ZM20.7793 17C20.7793 17.2652 20.6739 17.5196 20.4864 17.7071C20.2989 17.8946 20.0445 18 19.7793 18H5.7793C5.51408 18 5.25973 17.8946 5.07219 17.7071C4.88465 17.5196 4.7793 17.2652 4.7793 17V9.28L12.2593 13.85C12.4113 13.9378 12.5838 13.984 12.7593 13.984C12.9348 13.984 13.1073 13.9378 13.2593 13.85L20.7793 9.28V17Z" fill="#304607"/>
</svg>
