<svg width="25" height="24" viewBox="0 0 25 24" fill="none" xmlns="http://www.w3.org/2000/svg">
<path d="M14.7793 9H12.2793C11.4509 9 10.7793 9.67157 10.7793 10.5C10.7793 11.3284 11.4509 12 12.2793 12H13.2793C14.1077 12 14.7793 12.6716 14.7793 13.5C14.7793 14.3284 14.1077 15 13.2793 15H10.7793M12.7793 8V9M12.7793 15V16M18.7793 12H18.7893M6.7793 12H6.7893M2.7793 8.2L2.7793 15.8C2.7793 16.9201 2.7793 17.4802 2.99728 17.908C3.18903 18.2843 3.49499 18.5903 3.87132 18.782C4.29914 19 4.85919 19 5.9793 19L19.5793 19C20.6994 19 21.2595 19 21.6873 18.782C22.0636 18.5903 22.3696 18.2843 22.5613 17.908C22.7793 17.4802 22.7793 16.9201 22.7793 15.8V8.2C22.7793 7.0799 22.7793 6.51984 22.5613 6.09202C22.3696 5.7157 22.0636 5.40974 21.6873 5.21799C21.2595 5 20.6994 5 19.5793 5L5.9793 5C4.85919 5 4.29914 5 3.87132 5.21799C3.49499 5.40973 3.18903 5.71569 2.99728 6.09202C2.7793 6.51984 2.7793 7.07989 2.7793 8.2ZM19.2793 12C19.2793 12.2761 19.0554 12.5 18.7793 12.5C18.5032 12.5 18.2793 12.2761 18.2793 12C18.2793 11.7239 18.5032 11.5 18.7793 11.5C19.0554 11.5 19.2793 11.7239 19.2793 12ZM7.2793 12C7.2793 12.2761 7.05544 12.5 6.7793 12.5C6.50315 12.5 6.2793 12.2761 6.2793 12C6.2793 11.7239 6.50315 11.5 6.7793 11.5C7.05544 11.5 7.2793 11.7239 7.2793 12Z" stroke="#304607" stroke-width="2" stroke-linecap="round" stroke-linejoin="round"/>
</svg>
