<svg width="25" height="24" viewBox="0 0 25 24" fill="none" xmlns="http://www.w3.org/2000/svg">
<path d="M22.4194 13C22.2751 12.8807 22.1001 12.8043 21.9145 12.7796C21.7289 12.7548 21.54 12.7827 21.3694 12.86C20.312 13.3439 19.1623 13.593 17.9994 13.59C15.8483 13.5874 13.7854 12.7345 12.2606 11.2171C10.7357 9.69979 9.87263 7.64114 9.85943 5.49003C9.86399 4.81586 9.9479 4.14458 10.1094 3.49003C10.1437 3.31557 10.1309 3.13512 10.0722 2.96728C10.0135 2.79944 9.91117 2.65028 9.77567 2.53516C9.64018 2.42004 9.47644 2.34313 9.30133 2.31234C9.12622 2.28156 8.94607 2.29802 8.77943 2.36003C7.21176 3.06494 5.849 4.15679 4.81919 5.53301C3.78938 6.90924 3.12631 8.52465 2.89228 10.2275C2.65825 11.9304 2.86094 13.6648 3.4813 15.2678C4.10167 16.8708 5.11934 18.2898 6.43873 19.3915C7.75812 20.4932 9.33591 21.2414 11.0239 21.5658C12.7118 21.8903 14.4546 21.7803 16.0884 21.2463C17.7222 20.7122 19.1934 19.7716 20.3638 18.5128C21.5343 17.254 22.3655 15.7183 22.7794 14.05C22.8298 13.859 22.8226 13.6574 22.7585 13.4705C22.6944 13.2836 22.5764 13.1199 22.4194 13ZM12.9194 19.69C11.2412 19.6782 9.60763 19.1479 8.24242 18.1718C6.87722 17.1956 5.8471 15.8214 5.29312 14.2372C4.73913 12.6529 4.68837 10.9362 5.14777 9.32203C5.60718 7.70785 6.55429 6.27513 7.85943 5.22003V5.49003C7.86208 8.17851 8.93125 10.7561 10.8323 12.6572C12.7333 14.5582 15.3109 15.6274 17.9994 15.63C18.7053 15.6326 19.4094 15.5589 20.0994 15.41C19.4093 16.7155 18.3759 17.8079 17.1106 18.5692C15.8453 19.3305 14.3961 19.7319 12.9194 19.73V19.69Z" fill="#304607"/>
</svg>
