<svg width="25" height="24" viewBox="0 0 25 24" fill="none" xmlns="http://www.w3.org/2000/svg">
<path d="M12.7793 2C10.8015 2 8.86809 2.58649 7.2236 3.6853C5.57911 4.78412 4.29738 6.3459 3.54051 8.17317C2.78363 10.0004 2.5856 12.0111 2.97145 13.9509C3.3573 15.8907 4.30971 17.6725 5.70823 19.0711C7.10676 20.4696 8.88859 21.422 10.8284 21.8079C12.7682 22.1937 14.7789 21.9957 16.6061 21.2388C18.4334 20.4819 19.9952 19.2002 21.094 17.5557C22.1928 15.9112 22.7793 13.9778 22.7793 12C22.7793 10.6868 22.5206 9.38642 22.0181 8.17317C21.5156 6.95991 20.779 5.85752 19.8504 4.92893C18.9218 4.00035 17.8194 3.26375 16.6061 2.7612C15.3929 2.25866 14.0925 2 12.7793 2ZM12.7793 20C11.1971 20 9.65033 19.5308 8.33474 18.6518C7.01915 17.7727 5.99377 16.5233 5.38827 15.0615C4.78276 13.5997 4.62434 11.9911 4.93302 10.4393C5.2417 8.88743 6.00363 7.46197 7.12245 6.34315C8.24127 5.22433 9.66673 4.4624 11.2186 4.15372C12.7704 3.84504 14.379 4.00346 15.8408 4.60896C17.3026 5.21447 18.552 6.23984 19.4311 7.55544C20.3101 8.87103 20.7793 10.4177 20.7793 12C20.7793 14.1217 19.9364 16.1566 18.4362 17.6569C16.9359 19.1571 14.901 20 12.7793 20ZM16.7793 11H13.7793V8C13.7793 7.73478 13.6739 7.48043 13.4864 7.29289C13.2989 7.10536 13.0445 7 12.7793 7C12.5141 7 12.2597 7.10536 12.0722 7.29289C11.8847 7.48043 11.7793 7.73478 11.7793 8V11H8.7793C8.51408 11 8.25973 11.1054 8.07219 11.2929C7.88466 11.4804 7.7793 11.7348 7.7793 12C7.7793 12.2652 7.88466 12.5196 8.07219 12.7071C8.25973 12.8946 8.51408 13 8.7793 13H11.7793V16C11.7793 16.2652 11.8847 16.5196 12.0722 16.7071C12.2597 16.8946 12.5141 17 12.7793 17C13.0445 17 13.2989 16.8946 13.4864 16.7071C13.6739 16.5196 13.7793 16.2652 13.7793 16V13H16.7793C17.0445 13 17.2989 12.8946 17.4864 12.7071C17.6739 12.5196 17.7793 12.2652 17.7793 12C17.7793 11.7348 17.6739 11.4804 17.4864 11.2929C17.2989 11.1054 17.0445 11 16.7793 11Z" fill="#304607"/>
</svg>
