<svg width="25" height="24" viewBox="0 0 25 24" fill="none" xmlns="http://www.w3.org/2000/svg">
<path d="M19.7793 11H13.7793V5C13.7793 4.73478 13.6739 4.48043 13.4864 4.29289C13.2989 4.10536 13.0445 4 12.7793 4C12.5141 4 12.2597 4.10536 12.0722 4.29289C11.8847 4.48043 11.7793 4.73478 11.7793 5V11H5.7793C5.51408 11 5.25973 11.1054 5.07219 11.2929C4.88465 11.4804 4.7793 11.7348 4.7793 12C4.7793 12.2652 4.88465 12.5196 5.07219 12.7071C5.25973 12.8946 5.51408 13 5.7793 13H11.7793V19C11.7793 19.2652 11.8847 19.5196 12.0722 19.7071C12.2597 19.8946 12.5141 20 12.7793 20C13.0445 20 13.2989 19.8946 13.4864 19.7071C13.6739 19.5196 13.7793 19.2652 13.7793 19V13H19.7793C20.0445 13 20.2989 12.8946 20.4864 12.7071C20.6739 12.5196 20.7793 12.2652 20.7793 12C20.7793 11.7348 20.6739 11.4804 20.4864 11.2929C20.2989 11.1054 20.0445 11 19.7793 11Z" fill="#304607"/>
</svg>
