<svg width="25" height="24" viewBox="0 0 25 24" fill="none" xmlns="http://www.w3.org/2000/svg">
<path d="M9.7793 10.5L11.7793 12.5L16.2793 8M20.7793 21V7.8C20.7793 6.11984 20.7793 5.27976 20.4523 4.63803C20.1647 4.07354 19.7058 3.6146 19.1413 3.32698C18.4995 3 17.6595 3 15.9793 3H9.5793C7.89914 3 7.05906 3 6.41733 3.32698C5.85284 3.6146 5.3939 4.07354 5.10628 4.63803C4.7793 5.27976 4.7793 6.11984 4.7793 7.8V21L7.5293 19L10.0293 21L12.7793 19L15.5293 21L18.0293 19L20.7793 21Z" stroke="#304607" stroke-width="2" stroke-linecap="round" stroke-linejoin="round"/>
</svg>
