<svg width="25" height="24" viewBox="0 0 25 24" fill="none" xmlns="http://www.w3.org/2000/svg">
<path d="M21.7793 11C21.5141 11 21.2597 11.1054 21.0722 11.2929C20.8847 11.4804 20.7793 11.7348 20.7793 12C20.7912 13.873 20.1496 15.6916 18.965 17.1425C17.7803 18.5933 16.1268 19.5857 14.2893 19.9486C12.4517 20.3115 10.5451 20.0223 8.8978 19.1308C7.25053 18.2392 5.9657 16.8012 5.26462 15.0643C4.56354 13.3273 4.49009 11.4003 5.05692 9.61508C5.62375 7.82983 6.79537 6.29813 8.37 5.28378C9.94463 4.26942 11.8237 3.83591 13.6836 4.05791C15.5434 4.27991 17.2677 5.14352 18.5593 6.5H16.1593C15.8941 6.5 15.6397 6.60536 15.4522 6.79289C15.2647 6.98043 15.1593 7.23478 15.1593 7.5C15.1593 7.76522 15.2647 8.01957 15.4522 8.20711C15.6397 8.39464 15.8941 8.5 16.1593 8.5H20.6893C20.9545 8.5 21.2089 8.39464 21.3964 8.20711C21.5839 8.01957 21.6893 7.76522 21.6893 7.5V3C21.6893 2.73478 21.5839 2.48043 21.3964 2.29289C21.2089 2.10536 20.9545 2 20.6893 2C20.4241 2 20.1697 2.10536 19.9822 2.29289C19.7947 2.48043 19.6893 2.73478 19.6893 3V4.77C18.024 3.17806 15.86 2.20995 13.5633 2.02933C11.2666 1.84871 8.97793 2.46664 7.08422 3.77869C5.19051 5.09074 3.80791 7.01641 3.17013 9.23019C2.53235 11.444 2.67851 13.8101 3.58391 15.9285C4.48931 18.047 6.0984 19.7878 8.1392 20.8568C10.18 21.9258 12.5273 22.2574 14.7843 21.7955C17.0414 21.3336 19.0697 20.1065 20.5264 18.3217C21.9832 16.5369 22.779 14.3038 22.7793 12C22.7793 11.7348 22.6739 11.4804 22.4864 11.2929C22.2989 11.1054 22.0445 11 21.7793 11Z" fill="#304607"/>
</svg>
