<svg width="25" height="24" viewBox="0 0 25 24" fill="none" xmlns="http://www.w3.org/2000/svg">
<path d="M16.4891 8.29002C16.3962 8.19629 16.2856 8.1219 16.1637 8.07113C16.0418 8.02036 15.9111 7.99422 15.7791 7.99422C15.6471 7.99422 15.5164 8.02036 15.3946 8.07113C15.2727 8.1219 15.1621 8.19629 15.0691 8.29002L12.7791 10.59L10.4891 8.29002C10.3008 8.10171 10.0454 7.99593 9.77913 7.99593C9.51283 7.99593 9.25744 8.10171 9.06913 8.29002C8.88083 8.47832 8.77504 8.73372 8.77504 9.00002C8.77504 9.26632 8.88083 9.52171 9.06913 9.71002L11.3691 12L9.06913 14.29C8.9754 14.383 8.90101 14.4936 8.85024 14.6154C8.79947 14.7373 8.77333 14.868 8.77333 15C8.77333 15.132 8.79947 15.2627 8.85024 15.3846C8.90101 15.5065 8.9754 15.6171 9.06913 15.71C9.1621 15.8037 9.2727 15.8781 9.39456 15.9289C9.51641 15.9797 9.64712 16.0058 9.77913 16.0058C9.91114 16.0058 10.0418 15.9797 10.1637 15.9289C10.2856 15.8781 10.3962 15.8037 10.4891 15.71L12.7791 13.41L15.0691 15.71C15.1621 15.8037 15.2727 15.8781 15.3946 15.9289C15.5164 15.9797 15.6471 16.0058 15.7791 16.0058C15.9111 16.0058 16.0418 15.9797 16.1637 15.9289C16.2856 15.8781 16.3962 15.8037 16.4891 15.71C16.5829 15.6171 16.6573 15.5065 16.708 15.3846C16.7588 15.2627 16.7849 15.132 16.7849 15C16.7849 14.868 16.7588 14.7373 16.708 14.6154C16.6573 14.4936 16.5829 14.383 16.4891 14.29L14.1891 12L16.4891 9.71002C16.5829 9.61705 16.6573 9.50645 16.708 9.38459C16.7588 9.26274 16.7849 9.13203 16.7849 9.00002C16.7849 8.86801 16.7588 8.7373 16.708 8.61544C16.6573 8.49358 16.5829 8.38298 16.4891 8.29002ZM19.8491 4.93002C18.9267 3.97492 17.8232 3.21309 16.6032 2.689C15.3831 2.16491 14.0709 1.88905 12.7431 1.87751C11.4154 1.86598 10.0986 2.11899 8.86959 2.6218C7.64063 3.12461 6.52411 3.86714 5.58518 4.80607C4.64626 5.745 3.90372 6.86151 3.40092 8.09048C2.89811 9.31944 2.64509 10.6362 2.65663 11.964C2.66817 13.2918 2.94403 14.604 3.46812 15.8241C3.99221 17.0441 4.75403 18.1476 5.70913 19.07C6.6316 20.0251 7.73505 20.7869 8.95509 21.311C10.1751 21.8351 11.4873 22.111 12.8151 22.1225C14.1429 22.1341 15.4597 21.881 16.6887 21.3782C17.9176 20.8754 19.0342 20.1329 19.9731 19.194C20.912 18.255 21.6545 17.1385 22.1574 15.9096C22.6602 14.6806 22.9132 13.3638 22.9016 12.036C22.8901 10.7082 22.6142 9.39601 22.0901 8.17597C21.5661 6.95593 20.8042 5.85249 19.8491 4.93002ZM18.4391 17.66C17.1312 18.9694 15.4097 19.7848 13.5679 19.9673C11.7262 20.1498 9.87814 19.6881 8.33865 18.6608C6.79917 17.6335 5.66349 16.1042 5.12511 14.3335C4.58672 12.5628 4.67894 10.6602 5.38605 8.9498C6.09315 7.23945 7.37141 5.82717 9.00302 4.95358C10.6346 4.07999 12.5187 3.79915 14.3341 4.15889C16.1496 4.51863 17.7842 5.49671 18.9594 6.92648C20.1346 8.35625 20.7777 10.1493 20.7791 12C20.7827 13.0513 20.5777 14.0929 20.1761 15.0644C19.7744 16.0359 19.184 16.9182 18.4391 17.66Z" fill="#304607"/>
</svg>
