<svg width="25" height="24" viewBox="0 0 25 24" fill="none" xmlns="http://www.w3.org/2000/svg">
<path d="M21.8493 16.83L19.7793 14.71C19.334 14.2868 18.7724 14.0063 18.1665 13.9047C17.5606 13.8032 16.9382 13.8851 16.3793 14.14L15.4793 13.24C16.5398 11.8229 17.0242 10.0567 16.8348 8.29684C16.6455 6.537 15.7965 4.91423 14.4587 3.7552C13.121 2.59618 11.3938 1.98696 9.62495 2.05019C7.85608 2.11341 6.17684 2.84439 4.92526 4.09597C3.67368 5.34755 2.9427 7.0268 2.87947 8.79567C2.81624 10.5645 3.42546 12.2917 4.58449 13.6294C5.74351 14.9672 7.36628 15.8162 9.12612 16.0055C10.886 16.1949 12.6522 15.7106 14.0693 14.65L14.9593 15.54C14.6744 16.0996 14.5723 16.7346 14.6674 17.3553C14.7624 17.9761 15.0499 18.5513 15.4893 19L17.6093 21.12C18.1718 21.6818 18.9343 21.9974 19.7293 21.9974C20.5243 21.9974 21.2868 21.6818 21.8493 21.12C22.135 20.8406 22.3621 20.5069 22.5171 20.1386C22.6721 19.7702 22.7519 19.3746 22.7519 18.975C22.7519 18.5754 22.6721 18.1798 22.5171 17.8114C22.3621 17.4431 22.135 17.1094 21.8493 16.83V16.83ZM13.3693 12.59C12.6695 13.288 11.7786 13.763 10.809 13.9549C9.83947 14.1468 8.83478 14.047 7.92189 13.6682C7.00899 13.2894 6.22885 12.6485 5.68 11.8265C5.13115 11.0046 4.83823 10.0384 4.83823 9.05C4.83823 8.06163 5.13115 7.09544 5.68 6.27347C6.22885 5.45149 7.00899 4.81062 7.92189 4.43182C8.83478 4.05301 9.83947 3.95325 10.809 4.14515C11.7786 4.33706 12.6695 4.812 13.3693 5.51C13.8349 5.97446 14.2043 6.52621 14.4564 7.13367C14.7085 7.74112 14.8382 8.39233 14.8382 9.05C14.8382 9.70768 14.7085 10.3589 14.4564 10.9663C14.2043 11.5738 13.8349 12.1255 13.3693 12.59V12.59ZM20.4393 19.66C20.3463 19.7537 20.2357 19.8281 20.1139 19.8789C19.992 19.9297 19.8613 19.9558 19.7293 19.9558C19.5973 19.9558 19.4666 19.9297 19.3447 19.8789C19.2229 19.8281 19.1123 19.7537 19.0193 19.66L16.8993 17.54C16.8056 17.447 16.7312 17.3364 16.6804 17.2146C16.6296 17.0927 16.6035 16.962 16.6035 16.83C16.6035 16.698 16.6296 16.5673 16.6804 16.4454C16.7312 16.3236 16.8056 16.213 16.8993 16.12C16.9923 16.0263 17.1029 15.9519 17.2247 15.9011C17.3466 15.8503 17.4773 15.8242 17.6093 15.8242C17.7413 15.8242 17.872 15.8503 17.9939 15.9011C18.1157 15.9519 18.2263 16.0263 18.3193 16.12L20.4393 18.24C20.533 18.333 20.6074 18.4436 20.6582 18.5654C20.7089 18.6873 20.7351 18.818 20.7351 18.95C20.7351 19.082 20.7089 19.2127 20.6582 19.3346C20.6074 19.4564 20.533 19.567 20.4393 19.66V19.66Z" fill="#304607"/>
</svg>
