<svg width="25" height="24" viewBox="0 0 25 24" fill="none" xmlns="http://www.w3.org/2000/svg">
<path d="M16.7793 2H8.7793C7.98366 2 7.22059 2.31607 6.65798 2.87868C6.09538 3.44129 5.7793 4.20435 5.7793 5V21C5.77861 21.1762 5.82448 21.3495 5.91228 21.5023C6.00009 21.655 6.1267 21.7819 6.2793 21.87C6.43132 21.9578 6.60377 22.004 6.7793 22.004C6.95484 22.004 7.12729 21.9578 7.2793 21.87L12.7793 18.69L18.2793 21.87C18.4317 21.9564 18.6041 22.0012 18.7793 22C18.9545 22.0012 19.1269 21.9564 19.2793 21.87C19.4319 21.7819 19.5585 21.655 19.6463 21.5023C19.7341 21.3495 19.78 21.1762 19.7793 21V5C19.7793 4.20435 19.4632 3.44129 18.9006 2.87868C18.338 2.31607 17.575 2 16.7793 2ZM17.7793 19.27L13.2793 16.67C13.1273 16.5822 12.9548 16.536 12.7793 16.536C12.6038 16.536 12.4313 16.5822 12.2793 16.67L7.7793 19.27V5C7.7793 4.73478 7.88466 4.48043 8.0722 4.29289C8.25973 4.10536 8.51409 4 8.7793 4H16.7793C17.0445 4 17.2989 4.10536 17.4864 4.29289C17.6739 4.48043 17.7793 4.73478 17.7793 5V19.27Z" fill="#304607"/>
</svg>
