<svg width="25" height="24" viewBox="0 0 25 24" fill="none" xmlns="http://www.w3.org/2000/svg">
<path d="M16.4893 12.71C16.5803 12.6149 16.6517 12.5028 16.6993 12.38C16.7993 12.1365 16.7993 11.8635 16.6993 11.62C16.6517 11.4973 16.5803 11.3851 16.4893 11.29L13.4893 8.29C13.301 8.1017 13.0456 7.99591 12.7793 7.99591C12.513 7.99591 12.2576 8.1017 12.0693 8.29C11.881 8.47831 11.7752 8.7337 11.7752 9C11.7752 9.26631 11.881 9.5217 12.0693 9.71L13.3693 11H9.7793C9.51408 11 9.25973 11.1054 9.07219 11.2929C8.88466 11.4804 8.7793 11.7348 8.7793 12C8.7793 12.2652 8.88466 12.5196 9.07219 12.7071C9.25973 12.8946 9.51408 13 9.7793 13H13.3693L12.0693 14.29C11.9756 14.383 11.9012 14.4936 11.8504 14.6154C11.7996 14.7373 11.7735 14.868 11.7735 15C11.7735 15.132 11.7996 15.2627 11.8504 15.3846C11.9012 15.5064 11.9756 15.617 12.0693 15.71C12.1623 15.8037 12.2729 15.8781 12.3947 15.9289C12.5166 15.9797 12.6473 16.0058 12.7793 16.0058C12.9113 16.0058 13.042 15.9797 13.1639 15.9289C13.2857 15.8781 13.3963 15.8037 13.4893 15.71L16.4893 12.71ZM22.7793 12C22.7793 10.0222 22.1928 8.08879 21.094 6.4443C19.9952 4.79981 18.4334 3.51809 16.6061 2.76121C14.7789 2.00433 12.7682 1.8063 10.8284 2.19215C8.88859 2.578 7.10676 3.53041 5.70823 4.92894C4.30971 6.32746 3.3573 8.10929 2.97145 10.0491C2.5856 11.9889 2.78363 13.9996 3.54051 15.8268C4.29738 17.6541 5.57911 19.2159 7.2236 20.3147C8.86809 21.4135 10.8015 22 12.7793 22C15.4315 22 17.975 20.9464 19.8504 19.0711C21.7257 17.1957 22.7793 14.6522 22.7793 12ZM4.7793 12C4.7793 10.4178 5.24849 8.87104 6.12754 7.55544C7.0066 6.23985 8.25603 5.21447 9.71783 4.60897C11.1796 4.00347 12.7882 3.84504 14.34 4.15372C15.8919 4.4624 17.3173 5.22433 18.4362 6.34315C19.555 7.46197 20.3169 8.88743 20.6256 10.4393C20.9343 11.9911 20.7758 13.5997 20.1703 15.0615C19.5648 16.5233 18.5395 17.7727 17.2239 18.6518C15.9083 19.5308 14.3616 20 12.7793 20C10.6576 20 8.62274 19.1572 7.12245 17.6569C5.62216 16.1566 4.7793 14.1217 4.7793 12Z" fill="#304607"/>
</svg>
