<svg width="25" height="24" viewBox="0 0 25 24" fill="none" xmlns="http://www.w3.org/2000/svg">
<path d="M15.6092 11.29L11.3692 7.05001C11.2763 6.95628 11.1657 6.88189 11.0438 6.83112C10.922 6.78035 10.7913 6.75421 10.6592 6.75421C10.5272 6.75421 10.3965 6.78035 10.2747 6.83112C10.1528 6.88189 10.0422 6.95628 9.94924 7.05001C9.76299 7.23737 9.65845 7.49082 9.65845 7.75501C9.65845 8.0192 9.76299 8.27265 9.94924 8.46001L13.4892 12L9.94924 15.54C9.76299 15.7274 9.65845 15.9808 9.65845 16.245C9.65845 16.5092 9.76299 16.7626 9.94924 16.95C10.0427 17.0427 10.1535 17.116 10.2753 17.1658C10.3972 17.2155 10.5276 17.2408 10.6592 17.24C10.7908 17.2408 10.9213 17.2155 11.0431 17.1658C11.165 17.116 11.2758 17.0427 11.3692 16.95L15.6092 12.71C15.703 12.617 15.7774 12.5064 15.8281 12.3846C15.8789 12.2627 15.905 12.132 15.905 12C15.905 11.868 15.8789 11.7373 15.8281 11.6154C15.7774 11.4936 15.703 11.383 15.6092 11.29Z" fill="#304607"/>
</svg>
