<svg width="25" height="24" viewBox="0 0 25 24" fill="none" xmlns="http://www.w3.org/2000/svg">
<path d="M18.6993 11.62C18.6517 11.4973 18.5803 11.3851 18.4893 11.29L13.4893 6.29C13.3961 6.19676 13.2854 6.1228 13.1635 6.07234C13.0417 6.02188 12.9112 5.99591 12.7793 5.99591C12.513 5.99591 12.2576 6.1017 12.0693 6.29C11.9761 6.38324 11.9021 6.49393 11.8516 6.61575C11.8012 6.73758 11.7752 6.86814 11.7752 7C11.7752 7.2663 11.881 7.5217 12.0693 7.71L15.3693 11H7.7793C7.51408 11 7.25973 11.1054 7.07219 11.2929C6.88465 11.4804 6.7793 11.7348 6.7793 12C6.7793 12.2652 6.88465 12.5196 7.07219 12.7071C7.25973 12.8946 7.51408 13 7.7793 13H15.3693L12.0693 16.29C11.9756 16.383 11.9012 16.4936 11.8504 16.6154C11.7996 16.7373 11.7735 16.868 11.7735 17C11.7735 17.132 11.7996 17.2627 11.8504 17.3846C11.9012 17.5064 11.9756 17.617 12.0693 17.71C12.1623 17.8037 12.2729 17.8781 12.3947 17.9289C12.5166 17.9797 12.6473 18.0058 12.7793 18.0058C12.9113 18.0058 13.042 17.9797 13.1639 17.9289C13.2857 17.8781 13.3963 17.8037 13.4893 17.71L18.4893 12.71C18.5803 12.6149 18.6517 12.5028 18.6993 12.38C18.7993 12.1365 18.7993 11.8635 18.6993 11.62Z" fill="#304607"/>
</svg>
