<svg width="25" height="24" viewBox="0 0 25 24" fill="none" xmlns="http://www.w3.org/2000/svg">
<path d="M22.0993 9.55L20.2093 8.92L21.0993 7.14C21.1895 6.95369 21.2197 6.74397 21.1857 6.53978C21.1516 6.33558 21.0551 6.14699 20.9093 6L18.7793 3.87C18.6315 3.72209 18.4411 3.62421 18.2348 3.59013C18.0286 3.55605 17.8168 3.58748 17.6293 3.68L15.8493 4.57L15.2193 2.68C15.1528 2.483 15.0265 2.31163 14.858 2.18975C14.6895 2.06787 14.4872 2.00155 14.2793 2H11.2793C11.0697 1.99946 10.8651 2.06482 10.6947 2.18685C10.5242 2.30887 10.3964 2.48138 10.3293 2.68L9.6993 4.57L7.9193 3.68C7.73299 3.58978 7.52326 3.55961 7.31907 3.59364C7.11488 3.62767 6.92628 3.72423 6.7793 3.87L4.6493 6C4.50139 6.14777 4.40351 6.33818 4.36943 6.54446C4.33534 6.75074 4.36678 6.96251 4.4593 7.15L5.3493 8.93L3.4593 9.56C3.26229 9.62654 3.09093 9.75283 2.96905 9.92131C2.84717 10.0898 2.78084 10.2921 2.7793 10.5V13.5C2.77876 13.7096 2.84412 13.9142 2.96614 14.0846C3.08817 14.2551 3.26068 14.3829 3.4593 14.45L5.3493 15.08L4.4593 16.86C4.36908 17.0463 4.3389 17.256 4.37294 17.4602C4.40697 17.6644 4.50353 17.853 4.6493 18L6.7793 20.13C6.92707 20.2779 7.11748 20.3758 7.32376 20.4099C7.53004 20.444 7.74181 20.4125 7.9293 20.32L9.7093 19.43L10.3393 21.32C10.4064 21.5186 10.5342 21.6911 10.7047 21.8132C10.8751 21.9352 11.0797 22.0005 11.2893 22H14.2893C14.4989 22.0005 14.7035 21.9352 14.8739 21.8132C15.0444 21.6911 15.1722 21.5186 15.2393 21.32L15.8693 19.43L17.6493 20.32C17.8344 20.4079 18.0421 20.4369 18.2442 20.4029C18.4463 20.3689 18.6331 20.2737 18.7793 20.13L20.9093 18C21.0572 17.8522 21.1551 17.6618 21.1892 17.4555C21.2233 17.2493 21.1918 17.0375 21.0993 16.85L20.2093 15.07L22.0993 14.44C22.2963 14.3735 22.4677 14.2472 22.5896 14.0787C22.7114 13.9102 22.7778 13.7079 22.7793 13.5V10.5C22.7798 10.2904 22.7145 10.0858 22.5925 9.91537C22.4704 9.7449 22.2979 9.61709 22.0993 9.55ZM20.7793 12.78L19.5793 13.18C19.3034 13.2695 19.0502 13.418 18.8374 13.6151C18.6245 13.8122 18.4571 14.0533 18.3468 14.3216C18.2364 14.5899 18.1857 14.879 18.1983 15.1688C18.2108 15.4586 18.2862 15.7422 18.4193 16L18.9893 17.14L17.8893 18.24L16.7793 17.64C16.5229 17.5122 16.242 17.4411 15.9556 17.4313C15.6693 17.4215 15.3842 17.4734 15.1196 17.5834C14.8551 17.6934 14.6172 17.8589 14.4222 18.0688C14.2272 18.2787 14.0796 18.5281 13.9893 18.8L13.5893 20H11.9993L11.5993 18.8C11.5098 18.5241 11.3613 18.2709 11.1642 18.0581C10.9671 17.8452 10.726 17.6778 10.4577 17.5675C10.1894 17.4571 9.90035 17.4064 9.61052 17.419C9.3207 17.4315 9.03706 17.5069 8.7793 17.64L7.6393 18.21L6.5393 17.11L7.1393 16C7.27239 15.7422 7.34782 15.4586 7.36035 15.1688C7.37287 14.879 7.3222 14.5899 7.21184 14.3216C7.10148 14.0533 6.93408 13.8122 6.72125 13.6151C6.50841 13.418 6.25524 13.2695 5.9793 13.18L4.7793 12.78V11.22L5.9793 10.82C6.25524 10.7305 6.50841 10.582 6.72125 10.3849C6.93408 10.1878 7.10148 9.94671 7.21184 9.67842C7.3222 9.41014 7.37287 9.12105 7.36035 8.83123C7.34782 8.5414 7.27239 8.25777 7.1393 8L6.5693 6.89L7.6693 5.79L8.7793 6.36C9.03706 6.4931 9.3207 6.56852 9.61052 6.58105C9.90035 6.59358 10.1894 6.5429 10.4577 6.43254C10.726 6.32218 10.9671 6.15478 11.1642 5.94195C11.3613 5.72912 11.5098 5.47595 11.5993 5.2L11.9993 4H13.5593L13.9593 5.2C14.0488 5.47595 14.1973 5.72912 14.3944 5.94195C14.5915 6.15478 14.8326 6.32218 15.1009 6.43254C15.3692 6.5429 15.6582 6.59358 15.9481 6.58105C16.2379 6.56852 16.5215 6.4931 16.7793 6.36L17.9193 5.79L19.0193 6.89L18.4193 8C18.2915 8.25645 18.2204 8.53735 18.2106 8.82369C18.2008 9.11003 18.2527 9.39513 18.3627 9.65969C18.4727 9.92424 18.6382 10.1621 18.8481 10.3571C19.058 10.5521 19.3074 10.6997 19.5793 10.79L20.7793 11.19V12.78ZM12.7793 8C11.9882 8 11.2148 8.2346 10.557 8.67413C9.89922 9.11365 9.38653 9.73836 9.08378 10.4693C8.78103 11.2002 8.70182 12.0044 8.85616 12.7804C9.0105 13.5563 9.39146 14.269 9.95087 14.8284C10.5103 15.3878 11.223 15.7688 11.9989 15.9231C12.7749 16.0775 13.5791 15.9983 14.31 15.6955C15.0409 15.3928 15.6657 14.8801 16.1052 14.2223C16.5447 13.5645 16.7793 12.7911 16.7793 12C16.7793 10.9391 16.3579 9.92172 15.6077 9.17158C14.8576 8.42143 13.8402 8 12.7793 8ZM12.7793 14C12.3837 14 11.9971 13.8827 11.6682 13.6629C11.3393 13.4432 11.0829 13.1308 10.9315 12.7654C10.7802 12.3999 10.7406 11.9978 10.8177 11.6098C10.8949 11.2219 11.0854 10.8655 11.3651 10.5858C11.6448 10.3061 12.0012 10.1156 12.3891 10.0384C12.7771 9.96126 13.1792 10.0009 13.5447 10.1522C13.9101 10.3036 14.2225 10.56 14.4422 10.8889C14.662 11.2178 14.7793 11.6044 14.7793 12C14.7793 12.5304 14.5686 13.0391 14.1935 13.4142C13.8184 13.7893 13.3097 14 12.7793 14Z" fill="#304607"/>
</svg>
