<svg width="25" height="24" viewBox="0 0 25 24" fill="none" xmlns="http://www.w3.org/2000/svg">
<path fill-rule="evenodd" clip-rule="evenodd" d="M14.1112 2.63121C14.4797 2.47399 14.9065 2.55186 15.1957 2.82909L22.9713 10.2826C23.168 10.4712 23.2793 10.732 23.2793 11.0045C23.2793 11.2771 23.168 11.5378 22.9713 11.7264L15.1957 19.18C14.9065 19.4572 14.4797 19.5351 14.1112 19.3779C13.7427 19.2207 13.5037 18.8587 13.5037 18.4581V14.6458C12.4739 14.779 11.4685 15.0688 10.5227 15.5068C9.26423 16.0896 8.13771 16.9226 7.2118 17.9551L7.21023 17.9568L5.0222 20.3851C4.74511 20.6926 4.30719 20.7976 3.92076 20.6492C3.53434 20.5008 3.2793 20.1296 3.2793 19.7157V16.4595C3.2793 16.4594 3.2793 16.4597 3.2793 16.4595C3.27862 15.2223 3.52209 13.9968 3.99572 12.8539C4.46942 11.7107 5.16406 10.6723 6.03984 9.79811C6.91563 8.92393 7.95532 8.23117 9.09933 7.75954C10.2429 7.28808 11.4683 7.04687 12.7053 7.0497H13.5037V3.55099C13.5037 3.15037 13.7427 2.78842 14.1112 2.63121ZM15.5037 5.8948V8.0497C15.5037 8.60199 15.0559 9.0497 14.5037 9.0497H12.7042L12.7017 9.0497C11.7275 9.04733 10.7623 9.23725 9.86161 9.60858C8.96088 9.97991 8.1423 10.5253 7.45277 11.2136C6.76324 11.9019 6.21633 12.7195 5.84336 13.6195C5.47039 14.5196 5.2787 15.4844 5.2793 16.4586L5.2793 17.112L5.72285 16.6198C5.72308 16.6195 5.72331 16.6192 5.72354 16.619C6.83068 15.3847 8.17759 14.3888 9.68219 13.692C11.1871 12.995 12.8182 12.612 14.476 12.5661C14.7459 12.5587 15.0074 12.6607 15.2009 12.8489C15.3945 13.0372 15.5037 13.2957 15.5037 13.5657V16.1143L20.8342 11.0045L15.5037 5.8948Z" fill="#304607"/>
</svg>
