<svg width="25" height="24" viewBox="0 0 25 24" fill="none" xmlns="http://www.w3.org/2000/svg">
<path d="M18.7794 14C18.1886 14.0039 17.606 14.1386 17.0735 14.3945C16.5409 14.6504 16.0717 15.0211 15.6994 15.48L10.5994 13.13C10.8392 12.3957 10.8392 11.6042 10.5994 10.87L15.6994 8.51999C16.3011 9.24596 17.1398 9.73607 18.0676 9.90383C18.9954 10.0716 19.9527 9.90622 20.7704 9.4369C21.5881 8.96757 22.2138 8.22447 22.537 7.33874C22.8602 6.453 22.8601 5.48157 22.5367 4.5959C22.2134 3.71022 21.5876 2.96724 20.7698 2.49806C19.9519 2.02889 18.9947 1.86369 18.0669 2.03162C17.1391 2.19955 16.3005 2.68981 15.699 3.41589C15.0975 4.14196 14.7718 5.05717 14.7794 5.99999C14.7825 6.23822 14.8059 6.47576 14.8494 6.70999L9.56945 9.13999C9.00653 8.58957 8.29369 8.21751 7.52025 8.07042C6.74681 7.92333 5.94717 8.00776 5.2215 8.31312C4.49583 8.61849 3.87641 9.13121 3.44085 9.78705C3.00528 10.4429 2.77295 11.2127 2.77295 12C2.77295 12.7873 3.00528 13.5571 3.44085 14.2129C3.87641 14.8688 4.49583 15.3815 5.2215 15.6869C5.94717 15.9922 6.74681 16.0767 7.52025 15.9296C8.29369 15.7825 9.00653 15.4104 9.56945 14.86L14.8494 17.29C14.8059 17.5242 14.7825 17.7618 14.7794 18C14.7794 18.7911 15.014 19.5645 15.4536 20.2223C15.8931 20.8801 16.5178 21.3928 17.2487 21.6955C17.9796 21.9983 18.7839 22.0775 19.5598 21.9231C20.3357 21.7688 21.0485 21.3878 21.6079 20.8284C22.1673 20.269 22.5482 19.5563 22.7026 18.7804C22.8569 18.0044 22.7777 17.2002 22.475 16.4693C22.1722 15.7384 21.6595 15.1136 21.0017 14.6741C20.3439 14.2346 19.5706 14 18.7794 14ZM18.7794 3.99999C19.175 3.99999 19.5617 4.11729 19.8906 4.33705C20.2195 4.55682 20.4758 4.86917 20.6272 5.23463C20.7786 5.60008 20.8182 6.00221 20.741 6.39017C20.6638 6.77813 20.4734 7.1345 20.1937 7.41421C19.914 7.69391 19.5576 7.88439 19.1696 7.96156C18.7817 8.03873 18.3795 7.99913 18.0141 7.84775C17.6486 7.69638 17.3363 7.44003 17.1165 7.11113C16.8967 6.78223 16.7794 6.39556 16.7794 5.99999C16.7794 5.46956 16.9902 4.96085 17.3652 4.58578C17.7403 4.21071 18.249 3.99999 18.7794 3.99999ZM6.77945 14C6.38388 14 5.99721 13.8827 5.66831 13.6629C5.33941 13.4432 5.08306 13.1308 4.93169 12.7654C4.78031 12.3999 4.74071 11.9978 4.81788 11.6098C4.89505 11.2218 5.08553 10.8655 5.36523 10.5858C5.64494 10.3061 6.0013 10.1156 6.38927 10.0384C6.77723 9.96125 7.17936 10.0009 7.54481 10.1522C7.91027 10.3036 8.22262 10.56 8.44239 10.8889C8.66215 11.2178 8.77945 11.6044 8.77945 12C8.77945 12.5304 8.56873 13.0391 8.19366 13.4142C7.81859 13.7893 7.30988 14 6.77945 14ZM18.7794 20C18.3839 20 17.9972 19.8827 17.6683 19.6629C17.3394 19.4432 17.0831 19.1308 16.9317 18.7654C16.7803 18.3999 16.7407 17.9978 16.8179 17.6098C16.895 17.2218 17.0855 16.8655 17.3652 16.5858C17.6449 16.3061 18.0013 16.1156 18.3893 16.0384C18.7772 15.9613 19.1794 16.0009 19.5448 16.1522C19.9103 16.3036 20.2226 16.56 20.4424 16.8889C20.6621 17.2177 20.7794 17.6044 20.7794 18C20.7794 18.5304 20.5687 19.0391 20.1937 19.4142C19.8186 19.7893 19.3099 20 18.7794 20Z" fill="#304607"/>
</svg>
