<svg width="25" height="24" viewBox="0 0 25 24" fill="none" xmlns="http://www.w3.org/2000/svg">
<path d="M20.4093 3.65C20.2931 3.55602 20.1574 3.48928 20.012 3.45467C19.8666 3.42006 19.7154 3.41846 19.5693 3.45C18.5007 3.67395 17.3976 3.6768 16.3279 3.45839C15.2582 3.23997 14.2445 2.80492 13.3493 2.18C13.1819 2.06388 12.983 2.00165 12.7793 2.00165C12.5756 2.00165 12.3767 2.06388 12.2093 2.18C11.3141 2.80492 10.3004 3.23997 9.23067 3.45839C8.16096 3.6768 7.05787 3.67395 5.9893 3.45C5.84324 3.41846 5.69197 3.42006 5.5466 3.45467C5.40124 3.48928 5.26548 3.55602 5.1493 3.65C5.03328 3.74412 4.93982 3.86304 4.87579 3.99802C4.81177 4.133 4.77879 4.28061 4.7793 4.43V11.88C4.77841 13.3138 5.12008 14.727 5.77584 16.002C6.4316 17.277 7.38248 18.3768 8.5493 19.21L12.1993 21.81C12.3687 21.9306 12.5714 21.9954 12.7793 21.9954C12.9872 21.9954 13.1899 21.9306 13.3593 21.81L17.0093 19.21C18.1761 18.3768 19.127 17.277 19.7828 16.002C20.4385 14.727 20.7802 13.3138 20.7793 11.88V4.43C20.7798 4.28061 20.7468 4.133 20.6828 3.99802C20.6188 3.86304 20.5253 3.74412 20.4093 3.65ZM18.7793 11.88C18.7801 12.9948 18.5146 14.0936 18.005 15.085C17.4953 16.0765 16.7563 16.9319 15.8493 17.58L12.7793 19.77L9.7093 17.58C8.80234 16.9319 8.06329 16.0765 7.55365 15.085C7.04402 14.0936 6.77854 12.9948 6.7793 11.88V5.58C8.87573 5.75944 10.9753 5.27303 12.7793 4.19C14.5833 5.27303 16.6829 5.75944 18.7793 5.58V11.88ZM14.3193 9.59L11.6293 12.29L10.7393 11.39C10.551 11.2017 10.2956 11.0959 10.0293 11.0959C9.763 11.0959 9.50761 11.2017 9.3193 11.39C9.131 11.5783 9.02521 11.8337 9.02521 12.1C9.02521 12.3663 9.131 12.6217 9.3193 12.81L10.9193 14.41C11.0123 14.5037 11.1229 14.5781 11.2447 14.6289C11.3666 14.6797 11.4973 14.7058 11.6293 14.7058C11.7613 14.7058 11.892 14.6797 12.0139 14.6289C12.1357 14.5781 12.2463 14.5037 12.3393 14.41L15.7793 11C15.9676 10.8117 16.0734 10.5563 16.0734 10.29C16.0734 10.0237 15.9676 9.76831 15.7793 9.58C15.591 9.3917 15.3356 9.28591 15.0693 9.28591C14.803 9.28591 14.5476 9.3917 14.3593 9.58L14.3193 9.59Z" fill="#304607"/>
</svg>
