<svg width="25" height="24" viewBox="0 0 25 24" fill="none" xmlns="http://www.w3.org/2000/svg">
<path d="M17.446 16.4444V4H2.7793V16.4444H17.446ZM17.446 16.4444H22.7793V11.7778C22.7793 11.0116 22.4749 10.2768 21.9332 9.73503C21.3914 9.19325 20.6566 8.88889 19.8904 8.88889H17.446V16.4444ZM3.22374 8.98222H8.55707M8.92152 18.8622C8.92152 19.4538 8.44195 19.9333 7.8504 19.9333C7.25884 19.9333 6.7793 19.4538 6.7793 18.8622C6.7793 18.2707 7.25884 17.7911 7.8504 17.7911C8.44195 17.7911 8.92152 18.2707 8.92152 18.8622ZM18.1126 18.8622C18.1126 19.4538 17.6331 19.9333 17.0415 19.9333C16.45 19.9333 15.9704 19.4538 15.9704 18.8622C15.9704 18.2707 16.45 17.7911 17.0415 17.7911C17.6331 17.7911 18.1126 18.2707 18.1126 18.8622Z" stroke="#304607" stroke-width="2" stroke-linecap="round" stroke-linejoin="round"/>
</svg>
