<svg width="25" height="24" viewBox="0 0 25 24" fill="none" xmlns="http://www.w3.org/2000/svg">
<path d="M16.7797 9V6C16.7797 3.79086 14.9888 2 12.7797 2C10.5705 2 8.77967 3.79086 8.77967 6V9M4.37167 10.352L3.77167 16.752C3.60107 18.5717 3.51577 19.4815 3.81772 20.1843C4.08296 20.8016 4.54778 21.3121 5.13768 21.6338C5.80919 22 6.72303 22 8.55071 22H17.0086C18.8363 22 19.7501 22 20.4216 21.6338C21.0115 21.3121 21.4764 20.8016 21.7416 20.1843C22.0436 19.4815 21.9583 18.5717 21.7877 16.752L21.1877 10.352C21.0436 8.81535 20.9716 8.04704 20.626 7.46616C20.3217 6.95458 19.872 6.54511 19.3342 6.28984C18.7237 6 17.952 6 16.4086 6L9.15071 6C7.60736 6 6.83568 6 6.22508 6.28984C5.68733 6.54511 5.23767 6.95458 4.93333 7.46616C4.58776 8.04704 4.51573 8.81534 4.37167 10.352Z" stroke="#304607" stroke-width="2" stroke-linecap="round" stroke-linejoin="round"/>
</svg>
