<svg width="25" height="24" viewBox="0 0 25 24" fill="none" xmlns="http://www.w3.org/2000/svg">
<path d="M6.2993 2.64L4.7393 4.72C4.43031 5.13198 4.27582 5.33797 4.27941 5.51039C4.28252 5.66044 4.35288 5.80115 4.47105 5.89368C4.60684 6 4.86432 6 5.3793 6H20.1793C20.6943 6 20.9518 6 21.0875 5.89368C21.2057 5.80115 21.2761 5.66044 21.2792 5.51039C21.2828 5.33797 21.1283 5.13198 20.8193 4.72L19.2593 2.64M6.2993 2.64C6.4753 2.40533 6.5633 2.288 6.67482 2.20338C6.7736 2.12842 6.88545 2.0725 7.00468 2.03845C7.1393 2 7.28596 2 7.5793 2H17.9793C18.2726 2 18.4193 2 18.5539 2.03845C18.6731 2.0725 18.785 2.12842 18.8838 2.20338C18.9953 2.288 19.0833 2.40533 19.2593 2.64M6.2993 2.64L4.4193 5.14666C4.18184 5.46328 4.06311 5.62159 3.9788 5.79592C3.90398 5.95062 3.84942 6.11431 3.81645 6.28296C3.7793 6.47301 3.7793 6.6709 3.7793 7.06666L3.7793 18.8C3.7793 19.9201 3.7793 20.4802 3.99728 20.908C4.18903 21.2843 4.49499 21.5903 4.87132 21.782C5.29914 22 5.85919 22 6.9793 22L18.5793 22C19.6994 22 20.2595 22 20.6873 21.782C21.0636 21.5903 21.3696 21.2843 21.5613 20.908C21.7793 20.4802 21.7793 19.9201 21.7793 18.8V7.06667C21.7793 6.6709 21.7793 6.47301 21.7421 6.28296C21.7092 6.11431 21.6546 5.95062 21.5798 5.79592C21.4955 5.62159 21.3768 5.46328 21.1393 5.14667L19.2593 2.64M16.7793 10C16.7793 11.0609 16.3579 12.0783 15.6077 12.8284C14.8576 13.5786 13.8402 14 12.7793 14C11.7184 14 10.701 13.5786 9.95087 12.8284C9.20072 12.0783 8.7793 11.0609 8.7793 10" stroke="#304607" stroke-width="2" stroke-linecap="round" stroke-linejoin="round"/>
</svg>
