<svg width="25" height="24" viewBox="0 0 25 24" fill="none" xmlns="http://www.w3.org/2000/svg">
<path d="M8.9593 4.00002H3.7793C3.51408 4.00002 3.25973 4.10538 3.07219 4.29292C2.88465 4.48045 2.7793 4.73481 2.7793 5.00002C2.7793 5.26524 2.88465 5.5196 3.07219 5.70713C3.25973 5.89467 3.51408 6.00002 3.7793 6.00002H8.9593C9.1695 6.57918 9.55293 7.07957 10.0575 7.43318C10.562 7.7868 11.1632 7.9765 11.7793 7.9765C12.3954 7.9765 12.9966 7.7868 13.5011 7.43318C14.0057 7.07957 14.3891 6.57918 14.5993 6.00002L21.7793 6.00002C22.0445 6.00002 22.2989 5.89467 22.4864 5.70713C22.6739 5.5196 22.7793 5.26524 22.7793 5.00002C22.7793 4.73481 22.6739 4.48045 22.4864 4.29292C22.2989 4.10538 22.0445 4.00002 21.7793 4.00002H14.5993C14.3891 3.42087 14.0057 2.92048 13.5011 2.56687C12.9966 2.21325 12.3954 2.02355 11.7793 2.02355C11.1632 2.02355 10.562 2.21325 10.0575 2.56687C9.55293 2.92048 9.1695 3.42087 8.9593 4.00002ZM12.7793 5.00002C12.7793 5.19781 12.7206 5.39115 12.6108 5.5556C12.5009 5.72005 12.3447 5.84822 12.162 5.9239C11.9793 5.99959 11.7782 6.0194 11.5842 5.98081C11.3902 5.94222 11.212 5.84698 11.0722 5.70713C10.9323 5.56728 10.8371 5.3891 10.7985 5.19512C10.7599 5.00113 10.7797 4.80007 10.8554 4.61734C10.9311 4.43462 11.0593 4.27844 11.2237 4.16855C11.3882 4.05867 11.5815 4.00002 11.7793 4.00002C12.0445 4.00002 12.2989 4.10538 12.4864 4.29292C12.6739 4.48045 12.7793 4.73481 12.7793 5.00002ZM14.9593 11H3.7793C3.51408 11 3.25973 11.1054 3.07219 11.2929C2.88465 11.4805 2.7793 11.7348 2.7793 12C2.7793 12.2652 2.88465 12.5196 3.07219 12.7071C3.25973 12.8947 3.51408 13 3.7793 13H14.9593C15.1695 13.5792 15.5529 14.0796 16.0575 14.4332C16.562 14.7868 17.1632 14.9765 17.7793 14.9765C18.3954 14.9765 18.9966 14.7868 19.5011 14.4332C20.0057 14.0796 20.3891 13.5792 20.5993 13H21.7793C22.0445 13 22.2989 12.8947 22.4864 12.7071C22.6739 12.5196 22.7793 12.2652 22.7793 12C22.7793 11.7348 22.6739 11.4805 22.4864 11.2929C22.2989 11.1054 22.0445 11 21.7793 11H20.5993C20.3891 10.4209 20.0057 9.92049 19.5011 9.56687C18.9966 9.21325 18.3954 9.02355 17.7793 9.02355C17.1632 9.02355 16.562 9.21325 16.0575 9.56687C15.5529 9.92049 15.1695 10.4209 14.9593 11ZM18.7793 12C18.7793 12.1978 18.7206 12.3911 18.6108 12.5556C18.5009 12.72 18.3447 12.8482 18.162 12.9239C17.9793 12.9996 17.7782 13.0194 17.5842 12.9808C17.3902 12.9422 17.212 12.847 17.0722 12.7071C16.9323 12.5673 16.8371 12.3891 16.7985 12.1951C16.7599 12.0011 16.7797 11.8001 16.8554 11.6173C16.9311 11.4346 17.0593 11.2784 17.2237 11.1686C17.3882 11.0587 17.5815 11 17.7793 11C18.0445 11 18.2989 11.1054 18.4864 11.2929C18.6739 11.4805 18.7793 11.7348 18.7793 12ZM6.9593 18H3.7793C3.51408 18 3.25973 18.1054 3.07219 18.2929C2.88465 18.4805 2.7793 18.7348 2.7793 19C2.7793 19.2652 2.88465 19.5196 3.07219 19.7071C3.25973 19.8947 3.51408 20 3.7793 20H6.9593C7.1695 20.5792 7.55293 21.0796 8.05746 21.4332C8.562 21.7868 9.16318 21.9765 9.7793 21.9765C10.3954 21.9765 10.9966 21.7868 11.5011 21.4332C12.0057 21.0796 12.3891 20.5792 12.5993 20H21.7793C22.0445 20 22.2989 19.8947 22.4864 19.7071C22.6739 19.5196 22.7793 19.2652 22.7793 19C22.7793 18.7348 22.6739 18.4805 22.4864 18.2929C22.2989 18.1054 22.0445 18 21.7793 18H12.5993C12.3891 17.4209 12.0057 16.9205 11.5011 16.5669C10.9966 16.2132 10.3954 16.0235 9.7793 16.0235C9.16318 16.0235 8.562 16.2132 8.05746 16.5669C7.55293 16.9205 7.1695 17.4209 6.9593 18ZM10.7793 19C10.7793 19.1978 10.7206 19.3911 10.6108 19.5556C10.5009 19.72 10.3447 19.8482 10.162 19.9239C9.97925 19.9996 9.77819 20.0194 9.58421 19.9808C9.39023 19.9422 9.21204 19.847 9.07219 19.7071C8.93234 19.5673 8.8371 19.3891 8.79851 19.1951C8.75993 19.0011 8.77973 18.8001 8.85542 18.6173C8.9311 18.4346 9.05928 18.2784 9.22373 18.1686C9.38818 18.0587 9.58152 18 9.7793 18C10.0445 18 10.2989 18.1054 10.4864 18.2929C10.6739 18.4805 10.7793 18.7348 10.7793 19Z" fill="#304607"/>
</svg>
