<svg width="25" height="24" viewBox="0 0 25 24" fill="none" xmlns="http://www.w3.org/2000/svg">
<path d="M5.7793 12C5.7793 11.7348 5.67394 11.4804 5.4864 11.2929C5.29887 11.1054 5.04451 11 4.7793 11H3.7793C3.51408 11 3.25973 11.1054 3.07219 11.2929C2.88465 11.4804 2.7793 11.7348 2.7793 12C2.7793 12.2652 2.88465 12.5196 3.07219 12.7071C3.25973 12.8946 3.51408 13 3.7793 13H4.7793C5.04451 13 5.29887 12.8946 5.4864 12.7071C5.67394 12.5196 5.7793 12.2652 5.7793 12ZM6.4193 17L5.7093 17.71C5.52305 17.8974 5.4185 18.1508 5.4185 18.415C5.4185 18.6792 5.52305 18.9326 5.7093 19.12C5.89666 19.3063 6.15011 19.4108 6.4143 19.4108C6.67848 19.4108 6.93193 19.3063 7.1193 19.12L7.8293 18.41C7.99312 18.2187 8.07873 17.9726 8.06901 17.7209C8.05929 17.4693 7.95495 17.2305 7.77686 17.0524C7.59877 16.8743 7.36003 16.77 7.10835 16.7603C6.85667 16.7506 6.6106 16.8362 6.4193 17ZM12.7793 5C13.0445 5 13.2989 4.89464 13.4864 4.70711C13.6739 4.51957 13.7793 4.26522 13.7793 4V3C13.7793 2.73478 13.6739 2.48043 13.4864 2.29289C13.2989 2.10536 13.0445 2 12.7793 2C12.5141 2 12.2597 2.10536 12.0722 2.29289C11.8847 2.48043 11.7793 2.73478 11.7793 3V4C11.7793 4.26522 11.8847 4.51957 12.0722 4.70711C12.2597 4.89464 12.5141 5 12.7793 5ZM18.4393 7.34C18.7016 7.3389 18.953 7.23474 19.1393 7.05L19.8493 6.34C19.954 6.25035 20.039 6.14004 20.099 6.01597C20.159 5.89191 20.1928 5.75677 20.1981 5.61905C20.2034 5.48133 20.1802 5.344 20.1299 5.21568C20.0797 5.08735 20.0034 4.9708 19.9059 4.87335C19.8085 4.77589 19.6919 4.69964 19.5636 4.64936C19.4353 4.59909 19.298 4.57588 19.1602 4.5812C19.0225 4.58652 18.8874 4.62025 18.7633 4.68027C18.6393 4.7403 18.5289 4.82532 18.4393 4.93L17.7793 5.64C17.593 5.82736 17.4885 6.08081 17.4885 6.345C17.4885 6.60919 17.593 6.86264 17.7793 7.05C17.9556 7.22536 18.1909 7.32875 18.4393 7.34ZM6.4393 7.05C6.62556 7.23474 6.87696 7.3389 7.1393 7.34C7.2709 7.34076 7.40137 7.31554 7.5232 7.26577C7.64504 7.21601 7.75586 7.14268 7.8493 7.05C8.03555 6.86264 8.14009 6.60919 8.14009 6.345C8.14009 6.08081 8.03555 5.82736 7.8493 5.64L7.1393 4.93C7.04672 4.8361 6.93655 4.76136 6.81508 4.71005C6.69361 4.65873 6.56323 4.63184 6.43137 4.63091C6.29951 4.62998 6.16876 4.65503 6.04658 4.70463C5.9244 4.75424 5.81319 4.82742 5.7193 4.92C5.6254 5.01258 5.55066 5.12275 5.49934 5.24422C5.44802 5.36568 5.42113 5.49607 5.42021 5.62793C5.41833 5.89423 5.52232 6.15037 5.7093 6.34L6.4393 7.05ZM21.7793 11H20.7793C20.5141 11 20.2597 11.1054 20.0722 11.2929C19.8847 11.4804 19.7793 11.7348 19.7793 12C19.7793 12.2652 19.8847 12.5196 20.0722 12.7071C20.2597 12.8946 20.5141 13 20.7793 13H21.7793C22.0445 13 22.2989 12.8946 22.4864 12.7071C22.6739 12.5196 22.7793 12.2652 22.7793 12C22.7793 11.7348 22.6739 11.4804 22.4864 11.2929C22.2989 11.1054 22.0445 11 21.7793 11ZM19.1393 17C18.9493 16.8943 18.7301 16.8534 18.5148 16.8835C18.2995 16.9136 18.0998 17.0131 17.9461 17.1668C17.7924 17.3205 17.6929 17.5202 17.6628 17.7355C17.6327 17.9508 17.6736 18.17 17.7793 18.36L18.4893 19.07C18.6767 19.2563 18.9301 19.3608 19.1943 19.3608C19.4585 19.3608 19.7119 19.2563 19.8993 19.07C20.0855 18.8826 20.1901 18.6292 20.1901 18.365C20.1901 18.1008 20.0855 17.8474 19.8993 17.66L19.1393 17ZM12.7793 6.5C11.6915 6.5 10.6281 6.82257 9.72366 7.42692C8.81919 8.03126 8.11424 8.89025 7.69796 9.89524C7.28168 10.9002 7.17276 12.0061 7.38498 13.073C7.5972 14.1399 8.12102 15.1199 8.89021 15.8891C9.6594 16.6583 10.6394 17.1821 11.7063 17.3943C12.7732 17.6065 13.8791 17.4976 14.8841 17.0813C15.889 16.6651 16.748 15.9601 17.3524 15.0556C17.9567 14.1512 18.2793 13.0878 18.2793 12C18.2767 10.5421 17.6963 9.14471 16.6655 8.11383C15.6346 7.08295 14.2372 6.50264 12.7793 6.5ZM12.7793 15.5C12.0871 15.5 11.4104 15.2947 10.8348 14.9101C10.2592 14.5256 9.81063 13.9789 9.54572 13.3394C9.28081 12.6999 9.2115 11.9961 9.34655 11.3172C9.4816 10.6383 9.81494 10.0146 10.3044 9.52513C10.7939 9.03564 11.4175 8.7023 12.0965 8.56725C12.7754 8.4322 13.4791 8.50151 14.1187 8.76642C14.7582 9.03133 15.3049 9.47993 15.6894 10.0555C16.074 10.6311 16.2793 11.3078 16.2793 12C16.2793 12.9283 15.9105 13.8185 15.2542 14.4749C14.5978 15.1313 13.7076 15.5 12.7793 15.5ZM12.7793 19C12.5141 19 12.2597 19.1054 12.0722 19.2929C11.8847 19.4804 11.7793 19.7348 11.7793 20V21C11.7793 21.2652 11.8847 21.5196 12.0722 21.7071C12.2597 21.8946 12.5141 22 12.7793 22C13.0445 22 13.2989 21.8946 13.4864 21.7071C13.6739 21.5196 13.7793 21.2652 13.7793 21V20C13.7793 19.7348 13.6739 19.4804 13.4864 19.2929C13.2989 19.1054 13.0445 19 12.7793 19Z" fill="#304607"/>
</svg>
