<svg width="25" height="24" viewBox="0 0 25 24" fill="none" xmlns="http://www.w3.org/2000/svg">
<path d="M12.7793 7C13.1749 7 13.5615 6.8827 13.8904 6.66294C14.2193 6.44318 14.4757 6.13082 14.6271 5.76537C14.7784 5.39992 14.818 4.99778 14.7409 4.60982C14.6637 4.22186 14.4732 3.86549 14.1935 3.58579C13.9138 3.30608 13.5574 3.1156 13.1695 3.03843C12.7815 2.96126 12.3794 3.00087 12.0139 3.15224C11.6485 3.30362 11.3361 3.55996 11.1164 3.88886C10.8966 4.21776 10.7793 4.60444 10.7793 5C10.7793 5.53043 10.99 6.03914 11.3651 6.41421C11.7402 6.78929 12.2489 7 12.7793 7ZM12.7793 17C12.3837 17 11.9971 17.1173 11.6682 17.3371C11.3393 17.5568 11.0829 17.8692 10.9315 18.2346C10.7802 18.6001 10.7406 19.0022 10.8177 19.3902C10.8949 19.7781 11.0854 20.1345 11.3651 20.4142C11.6448 20.6939 12.0012 20.8844 12.3891 20.9616C12.7771 21.0387 13.1792 20.9991 13.5447 20.8478C13.9101 20.6964 14.2225 20.44 14.4422 20.1111C14.662 19.7822 14.7793 19.3956 14.7793 19C14.7793 18.4696 14.5686 17.9609 14.1935 17.5858C13.8184 17.2107 13.3097 17 12.7793 17ZM12.7793 10C12.3837 10 11.9971 10.1173 11.6682 10.3371C11.3393 10.5568 11.0829 10.8692 10.9315 11.2346C10.7802 11.6001 10.7406 12.0022 10.8177 12.3902C10.8949 12.7781 11.0854 13.1345 11.3651 13.4142C11.6448 13.6939 12.0012 13.8844 12.3891 13.9616C12.7771 14.0387 13.1792 13.9991 13.5447 13.8478C13.9101 13.6964 14.2225 13.44 14.4422 13.1111C14.662 12.7822 14.7793 12.3956 14.7793 12C14.7793 11.4696 14.5686 10.9609 14.1935 10.5858C13.8184 10.2107 13.3097 10 12.7793 10Z" fill="#304607"/>
</svg>
