<svg width="25" height="24" viewBox="0 0 25 24" fill="none" xmlns="http://www.w3.org/2000/svg">
<path d="M12.7793 10C12.3837 10 11.9971 10.1173 11.6682 10.3371C11.3393 10.5568 11.0829 10.8692 10.9315 11.2346C10.7802 11.6001 10.7406 12.0022 10.8177 12.3902C10.8949 12.7781 11.0854 13.1345 11.3651 13.4142C11.6448 13.6939 12.0012 13.8844 12.3891 13.9616C12.7771 14.0387 13.1792 13.9991 13.5447 13.8478C13.9101 13.6964 14.2225 13.44 14.4422 13.1111C14.662 12.7822 14.7793 12.3956 14.7793 12C14.7793 11.4696 14.5686 10.9609 14.1935 10.5858C13.8184 10.2107 13.3097 10 12.7793 10ZM5.7793 10C5.38374 10 4.99706 10.1173 4.66816 10.3371C4.33926 10.5568 4.08291 10.8692 3.93154 11.2346C3.78016 11.6001 3.74056 12.0022 3.81773 12.3902C3.8949 12.7781 4.08538 13.1345 4.36508 13.4142C4.64479 13.6939 5.00116 13.8844 5.38912 13.9616C5.77708 14.0387 6.17921 13.9991 6.54466 13.8478C6.91012 13.6964 7.22247 13.44 7.44224 13.1111C7.662 12.7822 7.7793 12.3956 7.7793 12C7.7793 11.4696 7.56858 10.9609 7.19351 10.5858C6.81844 10.2107 6.30973 10 5.7793 10ZM19.7793 10C19.3837 10 18.9971 10.1173 18.6682 10.3371C18.3393 10.5568 18.0829 10.8692 17.9315 11.2346C17.7802 11.6001 17.7406 12.0022 17.8177 12.3902C17.8949 12.7781 18.0854 13.1345 18.3651 13.4142C18.6448 13.6939 19.0012 13.8844 19.3891 13.9616C19.7771 14.0387 20.1792 13.9991 20.5447 13.8478C20.9101 13.6964 21.2225 13.44 21.4422 13.1111C21.662 12.7822 21.7793 12.3956 21.7793 12C21.7793 11.4696 21.5686 10.9609 21.1935 10.5858C20.8184 10.2107 20.3097 10 19.7793 10Z" fill="#304607"/>
</svg>
