<svg width="25" height="24" viewBox="0 0 25 24" fill="none" xmlns="http://www.w3.org/2000/svg">
<path d="M10.7793 18C11.0445 18 11.2989 17.8946 11.4864 17.7071C11.6739 17.5196 11.7793 17.2652 11.7793 17V11C11.7793 10.7348 11.6739 10.4804 11.4864 10.2929C11.2989 10.1054 11.0445 10 10.7793 10C10.5141 10 10.2597 10.1054 10.0722 10.2929C9.88465 10.4804 9.7793 10.7348 9.7793 11V17C9.7793 17.2652 9.88465 17.5196 10.0722 17.7071C10.2597 17.8946 10.5141 18 10.7793 18ZM20.7793 6H16.7793V5C16.7793 4.20435 16.4632 3.44129 15.9006 2.87868C15.338 2.31607 14.5749 2 13.7793 2H11.7793C10.9836 2 10.2206 2.31607 9.65798 2.87868C9.09537 3.44129 8.7793 4.20435 8.7793 5V6H4.7793C4.51408 6 4.25973 6.10536 4.07219 6.29289C3.88465 6.48043 3.7793 6.73478 3.7793 7C3.7793 7.26522 3.88465 7.51957 4.07219 7.70711C4.25973 7.89464 4.51408 8 4.7793 8H5.7793V19C5.7793 19.7956 6.09537 20.5587 6.65798 21.1213C7.22059 21.6839 7.98365 22 8.7793 22H16.7793C17.5749 22 18.338 21.6839 18.9006 21.1213C19.4632 20.5587 19.7793 19.7956 19.7793 19V8H20.7793C21.0445 8 21.2989 7.89464 21.4864 7.70711C21.6739 7.51957 21.7793 7.26522 21.7793 7C21.7793 6.73478 21.6739 6.48043 21.4864 6.29289C21.2989 6.10536 21.0445 6 20.7793 6ZM10.7793 5C10.7793 4.73478 10.8847 4.48043 11.0722 4.29289C11.2597 4.10536 11.5141 4 11.7793 4H13.7793C14.0445 4 14.2989 4.10536 14.4864 4.29289C14.6739 4.48043 14.7793 4.73478 14.7793 5V6H10.7793V5ZM17.7793 19C17.7793 19.2652 17.6739 19.5196 17.4864 19.7071C17.2989 19.8946 17.0445 20 16.7793 20H8.7793C8.51408 20 8.25973 19.8946 8.07219 19.7071C7.88465 19.5196 7.7793 19.2652 7.7793 19V8H17.7793V19ZM14.7793 18C15.0445 18 15.2989 17.8946 15.4864 17.7071C15.6739 17.5196 15.7793 17.2652 15.7793 17V11C15.7793 10.7348 15.6739 10.4804 15.4864 10.2929C15.2989 10.1054 15.0445 10 14.7793 10C14.5141 10 14.2597 10.1054 14.0722 10.2929C13.8847 10.4804 13.7793 10.7348 13.7793 11V17C13.7793 17.2652 13.8847 17.5196 14.0722 17.7071C14.2597 17.8946 14.5141 18 14.7793 18Z" fill="#304607"/>
</svg>
