<svg width="25" height="24" viewBox="0 0 25 24" fill="none" xmlns="http://www.w3.org/2000/svg">
<path d="M9.4893 7.71002L11.7793 5.41002V15C11.7793 15.2652 11.8847 15.5196 12.0722 15.7071C12.2597 15.8947 12.5141 16 12.7793 16C13.0445 16 13.2989 15.8947 13.4864 15.7071C13.6739 15.5196 13.7793 15.2652 13.7793 15V5.41002L16.0693 7.71002C16.1623 7.80375 16.2729 7.87814 16.3947 7.92891C16.5166 7.97968 16.6473 8.00582 16.7793 8.00582C16.9113 8.00582 17.042 7.97968 17.1639 7.92891C17.2857 7.87814 17.3963 7.80375 17.4893 7.71002C17.583 7.61706 17.6574 7.50645 17.7082 7.3846C17.759 7.26274 17.7851 7.13203 17.7851 7.00002C17.7851 6.86801 17.759 6.7373 17.7082 6.61544C17.6574 6.49358 17.583 6.38298 17.4893 6.29002L13.4893 2.29002C13.3942 2.19898 13.282 2.12761 13.1593 2.08002C12.9158 1.98 12.6428 1.98 12.3993 2.08002C12.2765 2.12761 12.1644 2.19898 12.0693 2.29002L8.0693 6.29002C7.97606 6.38326 7.9021 6.49395 7.85164 6.61577C7.80118 6.73759 7.77521 6.86816 7.77521 7.00002C7.77521 7.13188 7.80118 7.26245 7.85164 7.38427C7.9021 7.50609 7.97606 7.61678 8.0693 7.71002C8.16254 7.80326 8.27323 7.87722 8.39505 7.92768C8.51687 7.97814 8.64744 8.00411 8.7793 8.00411C8.91116 8.00411 9.04172 7.97814 9.16355 7.92768C9.28537 7.87722 9.39606 7.80326 9.4893 7.71002ZM21.7793 14C21.5141 14 21.2597 14.1054 21.0722 14.2929C20.8847 14.4804 20.7793 14.7348 20.7793 15V19C20.7793 19.2652 20.6739 19.5196 20.4864 19.7071C20.2989 19.8947 20.0445 20 19.7793 20H5.7793C5.51408 20 5.25973 19.8947 5.07219 19.7071C4.88465 19.5196 4.7793 19.2652 4.7793 19V15C4.7793 14.7348 4.67394 14.4804 4.4864 14.2929C4.29887 14.1054 4.04451 14 3.7793 14C3.51408 14 3.25973 14.1054 3.07219 14.2929C2.88465 14.4804 2.7793 14.7348 2.7793 15V19C2.7793 19.7957 3.09537 20.5587 3.65798 21.1213C4.22059 21.6839 4.98365 22 5.7793 22H19.7793C20.5749 22 21.338 21.6839 21.9006 21.1213C22.4632 20.5587 22.7793 19.7957 22.7793 19V15C22.7793 14.7348 22.6739 14.4804 22.4864 14.2929C22.2989 14.1054 22.0445 14 21.7793 14Z" fill="#304607"/>
</svg>
