<svg width="25" height="24" viewBox="0 0 25 24" fill="none" xmlns="http://www.w3.org/2000/svg">
<path d="M22.7793 21V19C22.7793 17.1362 21.5045 15.5701 19.7793 15.126M16.2793 3.29076C17.7452 3.88415 18.7793 5.32131 18.7793 7C18.7793 8.67869 17.7452 10.1159 16.2793 10.7092M17.7793 21C17.7793 19.1362 17.7793 18.2044 17.4748 17.4693C17.0688 16.4892 16.2901 15.7105 15.31 15.3045C14.5749 15 13.6431 15 11.7793 15H8.7793C6.91553 15 5.98365 15 5.24856 15.3045C4.26845 15.7105 3.48975 16.4892 3.08378 17.4693C2.7793 18.2044 2.7793 19.1362 2.7793 21M14.2793 7C14.2793 9.20914 12.4884 11 10.2793 11C8.07016 11 6.2793 9.20914 6.2793 7C6.2793 4.79086 8.07016 3 10.2793 3C12.4884 3 14.2793 4.79086 14.2793 7Z" stroke="#304607" stroke-width="2" stroke-linecap="round" stroke-linejoin="round"/>
</svg>
