<svg width="25" height="24" viewBox="0 0 25 24" fill="none" xmlns="http://www.w3.org/2000/svg">
<path d="M11.7793 15H8.7793C6.91553 15 5.98365 15 5.24856 15.3045C4.26845 15.7105 3.48975 16.4892 3.08378 17.4693C2.7793 18.2044 2.7793 19.1362 2.7793 21M16.2793 3.29076C17.7452 3.88415 18.7793 5.32131 18.7793 7M12.7792 21.5L14.8043 21.095C14.9808 21.0597 15.0691 21.042 15.1514 21.0097C15.2245 20.9811 15.2939 20.9439 15.3583 20.899C15.4309 20.8484 15.4945 20.7848 15.6219 20.6574L22.2793 14C22.8317 13.4477 22.8316 12.5523 22.2793 12C21.727 11.4477 20.8316 11.4477 20.2793 12L13.6218 18.6575C13.4945 18.7848 13.4308 18.8484 13.3803 18.921C13.3354 18.9853 13.2982 19.0548 13.2695 19.1278C13.2373 19.2102 13.2196 19.2984 13.1843 19.475L12.7792 21.5ZM14.2793 7C14.2793 9.20914 12.4884 11 10.2793 11C8.07016 11 6.2793 9.20914 6.2793 7C6.2793 4.79086 8.07016 3 10.2793 3C12.4884 3 14.2793 4.79086 14.2793 7Z" stroke="#304607" stroke-width="2" stroke-linecap="round" stroke-linejoin="round"/>
</svg>
