<svg width="25" height="24" viewBox="0 0 25 24" fill="none" xmlns="http://www.w3.org/2000/svg">
<path d="M6.09559 19.4384C6.70392 18.0052 8.12422 17 9.7793 17H15.7793C17.4344 17 18.8547 18.0052 19.463 19.4384M16.7793 9.5C16.7793 11.7091 14.9884 13.5 12.7793 13.5C10.5702 13.5 8.7793 11.7091 8.7793 9.5C8.7793 7.29086 10.5702 5.5 12.7793 5.5C14.9884 5.5 16.7793 7.29086 16.7793 9.5ZM22.7793 12C22.7793 17.5228 18.3021 22 12.7793 22C7.25645 22 2.7793 17.5228 2.7793 12C2.7793 6.47715 7.25645 2 12.7793 2C18.3021 2 22.7793 6.47715 22.7793 12Z" stroke="#304607" stroke-width="2" stroke-linecap="round" stroke-linejoin="round"/>
</svg>
