<svg width="25" height="24" viewBox="0 0 25 24" fill="none" xmlns="http://www.w3.org/2000/svg">
<path d="M4.77932 21.8174C5.3819 22 6.19579 22 7.5793 22H17.9793C19.3628 22 20.1767 22 20.7793 21.8174M4.77932 21.8174C4.65012 21.7783 4.53063 21.7308 4.41733 21.673C3.85284 21.3854 3.3939 20.9265 3.10628 20.362C2.7793 19.7202 2.7793 18.8802 2.7793 17.2V6.8C2.7793 5.11984 2.7793 4.27976 3.10628 3.63803C3.3939 3.07354 3.85284 2.6146 4.41733 2.32698C5.05906 2 5.89914 2 7.5793 2H17.9793C19.6595 2 20.4995 2 21.1413 2.32698C21.7058 2.6146 22.1647 3.07354 22.4523 3.63803C22.7793 4.27976 22.7793 5.11984 22.7793 6.8V17.2C22.7793 18.8802 22.7793 19.7202 22.4523 20.362C22.1647 20.9265 21.7058 21.3854 21.1413 21.673C21.028 21.7308 20.9085 21.7783 20.7793 21.8174M4.77932 21.8174C4.77965 21.0081 4.7845 20.5799 4.85616 20.2196C5.17178 18.6329 6.41217 17.3925 7.99894 17.0769C8.38533 17 8.84999 17 9.7793 17H15.7793C16.7086 17 17.1733 17 17.5597 17.0769C19.1464 17.3925 20.3868 18.6329 20.7024 20.2196C20.7741 20.5799 20.7789 21.0081 20.7793 21.8174M16.7793 9.5C16.7793 11.7091 14.9884 13.5 12.7793 13.5C10.5702 13.5 8.7793 11.7091 8.7793 9.5C8.7793 7.29086 10.5702 5.5 12.7793 5.5C14.9884 5.5 16.7793 7.29086 16.7793 9.5Z" stroke="#304607" stroke-width="2" stroke-linecap="round" stroke-linejoin="round"/>
</svg>
