<svg width="25" height="24" viewBox="0 0 25 24" fill="none" xmlns="http://www.w3.org/2000/svg">
<path d="M20.7793 21C20.7793 19.6044 20.7793 18.9067 20.6071 18.3389C20.2193 17.0605 19.2188 16.06 17.9404 15.6722C17.3726 15.5 16.6749 15.5 15.2793 15.5H10.2793C8.88373 15.5 8.18595 15.5 7.61816 15.6722C6.33975 16.06 5.33934 17.0605 4.95154 18.3389C4.7793 18.9067 4.7793 19.6044 4.7793 21M17.2793 7.5C17.2793 9.98528 15.2646 12 12.7793 12C10.294 12 8.2793 9.98528 8.2793 7.5C8.2793 5.01472 10.294 3 12.7793 3C15.2646 3 17.2793 5.01472 17.2793 7.5Z" stroke="#304607" stroke-width="2" stroke-linecap="round" stroke-linejoin="round"/>
</svg>
