<svg width="25" height="24" viewBox="0 0 25 24" fill="none" xmlns="http://www.w3.org/2000/svg">
<path d="M9.7793 15.5H8.2793C6.88373 15.5 6.18595 15.5 5.61816 15.6722C4.33975 16.06 3.33934 17.0605 2.95154 18.3389C2.7793 18.9067 2.7793 19.6044 2.7793 21M15.2793 7.5C15.2793 9.98528 13.2646 12 10.7793 12C8.29402 12 6.2793 9.98528 6.2793 7.5C6.2793 5.01472 8.29402 3 10.7793 3C13.2646 3 15.2793 5.01472 15.2793 7.5ZM11.7793 21L14.8807 20.1139C15.0292 20.0715 15.1034 20.0502 15.1727 20.0184C15.2342 19.9902 15.2927 19.9558 15.3472 19.9158C15.4086 19.8707 15.4632 19.8161 15.5725 19.7068L22.0293 13.25C22.7197 12.5597 22.7197 11.4403 22.0293 10.75C21.339 10.0596 20.2197 10.0596 19.5293 10.75L13.0725 17.2068C12.9632 17.3161 12.9086 17.3707 12.8635 17.4321C12.8235 17.4866 12.7891 17.5451 12.7608 17.6066C12.729 17.6759 12.7078 17.7501 12.6654 17.8987L11.7793 21Z" stroke="#304607" stroke-width="2" stroke-linecap="round" stroke-linejoin="round"/>
</svg>
