<svg width="25" height="24" viewBox="0 0 25 24" fill="none" xmlns="http://www.w3.org/2000/svg">
<g clip-path="url(#clip0_118_1222)">
<path d="M5.06145 9.34829L3.15383 7.44067M20.592 9.34829L22.4996 7.44067M12.8267 6.70161V4M2.7793 15.0462C3.41711 12.9093 4.71953 11.0313 6.4974 9.68506C8.27526 8.33882 10.436 7.5944 12.6658 7.55988C14.8956 7.52537 17.0783 8.20257 18.897 9.49313C20.7157 10.7837 22.0756 12.6204 22.7793 14.7366M16.642 16.4794C16.642 18.5865 14.9338 20.2946 12.8267 20.2946C10.7196 20.2946 9.01151 18.5865 9.01151 16.4794C9.01151 14.3723 10.7196 12.6641 12.8267 12.6641C14.9338 12.6641 16.642 14.3723 16.642 16.4794Z" stroke="#304607" stroke-width="2.49688" stroke-linecap="round" stroke-linejoin="round"/>
</g>
<defs>
<clipPath id="clip0_118_1222">
<rect width="24" height="24" fill="white" transform="translate(0.779297)"/>
</clipPath>
</defs>
</svg>
