<svg width="25" height="24" viewBox="0 0 25 24" fill="none" xmlns="http://www.w3.org/2000/svg">
<path d="M17.2793 14H17.2893M3.7793 5V19C3.7793 20.1046 4.67473 21 5.7793 21H19.7793C20.8839 21 21.7793 20.1046 21.7793 19V9C21.7793 7.89543 20.8839 7 19.7793 7L5.7793 7C4.67473 7 3.7793 6.10457 3.7793 5ZM3.7793 5C3.7793 3.89543 4.67473 3 5.7793 3H17.7793M17.7793 14C17.7793 14.2761 17.5554 14.5 17.2793 14.5C17.0032 14.5 16.7793 14.2761 16.7793 14C16.7793 13.7239 17.0032 13.5 17.2793 13.5C17.5554 13.5 17.7793 13.7239 17.7793 14Z" stroke="#304607" stroke-width="2" stroke-linecap="round" stroke-linejoin="round"/>
</svg>
