<svg width="25" height="24" viewBox="0 0 25 24" fill="none" xmlns="http://www.w3.org/2000/svg">
<path d="M12.7793 15C12.186 15 11.606 15.176 11.1126 15.5056C10.6193 15.8353 10.2348 16.3038 10.0077 16.852C9.78063 17.4002 9.72122 18.0034 9.83698 18.5853C9.95274 19.1672 10.2385 19.7018 10.658 20.1213C11.0776 20.5409 11.6121 20.8266 12.1941 20.9424C12.776 21.0581 13.3792 20.9987 13.9274 20.7717C14.4756 20.5446 14.9441 20.1601 15.2737 19.6667C15.6034 19.1734 15.7793 18.5934 15.7793 18C15.7793 17.2044 15.4633 16.4413 14.9007 15.8787C14.338 15.3161 13.575 15 12.7793 15ZM12.7793 19C12.5816 19 12.3882 18.9414 12.2238 18.8315C12.0593 18.7216 11.9311 18.5654 11.8555 18.3827C11.7798 18.2 11.76 17.9989 11.7986 17.8049C11.8371 17.611 11.9324 17.4328 12.0722 17.2929C12.2121 17.1531 12.3903 17.0578 12.5842 17.0192C12.7782 16.9807 12.9793 17.0005 13.162 17.0761C13.3447 17.1518 13.5009 17.28 13.6108 17.4445C13.7207 17.6089 13.7793 17.8022 13.7793 18C13.7793 18.2652 13.674 18.5196 13.4864 18.7071C13.2989 18.8947 13.0446 19 12.7793 19ZM12.7793 11C10.9241 11.0064 9.14589 11.7428 7.82934 13.05C7.64309 13.2374 7.53854 13.4908 7.53854 13.755C7.53854 14.0192 7.64309 14.2727 7.82934 14.46C8.0167 14.6463 8.27015 14.7508 8.53434 14.7508C8.79852 14.7508 9.05197 14.6463 9.23934 14.46C9.70379 13.9944 10.2555 13.625 10.863 13.3729C11.4705 13.1208 12.1217 12.9911 12.7793 12.9911C13.437 12.9911 14.0882 13.1208 14.6957 13.3729C15.3031 13.625 15.8549 13.9944 16.3193 14.46C16.504 14.6484 16.7556 14.7563 17.0193 14.76C17.2222 14.7717 17.4239 14.7213 17.5974 14.6155C17.7709 14.5097 17.9081 14.3535 17.9906 14.1678C18.0732 13.9821 18.0972 13.7756 18.0594 13.5759C18.0217 13.3763 17.924 13.1928 17.7793 13.05C17.1214 12.3967 16.3411 11.8794 15.4832 11.5277C14.6253 11.176 13.7065 10.9967 12.7793 11ZM12.7793 7.00002C9.86332 7.00777 7.06791 8.16474 4.99934 10.22C4.9061 10.3133 4.83214 10.424 4.78168 10.5458C4.73122 10.6676 4.70524 10.7982 4.70524 10.93C4.70524 11.1963 4.81103 11.4517 4.99934 11.64C5.18764 11.8283 5.44303 11.9341 5.70934 11.9341C5.97564 11.9341 6.23103 11.8283 6.41934 11.64C8.10684 9.95462 10.3943 9.00794 12.7793 9.00794C15.1643 9.00794 17.4518 9.95462 19.1393 11.64C19.2328 11.7327 19.3436 11.806 19.4654 11.8558C19.5873 11.9056 19.7177 11.9308 19.8493 11.93C19.9809 11.9308 20.1114 11.9056 20.2332 11.8558C20.3551 11.806 20.4659 11.7327 20.5593 11.64C20.6531 11.5471 20.7275 11.4365 20.7782 11.3146C20.829 11.1927 20.8551 11.062 20.8551 10.93C20.8551 10.798 20.829 10.6673 20.7782 10.5454C20.7275 10.4236 20.6531 10.313 20.5593 10.22C18.4908 8.16474 15.6953 7.00777 12.7793 7.00002ZM23.3893 7.39002C21.9963 5.99613 20.3423 4.89037 18.5218 4.13595C16.7013 3.38153 14.75 2.99323 12.7793 2.99323C10.8087 2.99323 8.85737 3.38153 7.03686 4.13595C5.21635 4.89037 3.56234 5.99613 2.16934 7.39002C1.98103 7.57833 1.87524 7.83372 1.87524 8.10002C1.87524 8.36632 1.98103 8.62172 2.16934 8.81002C2.35764 8.99833 2.61303 9.10411 2.87934 9.10411C3.14564 9.10411 3.40103 8.99833 3.58934 8.81002C6.02711 6.37351 9.33269 5.0048 12.7793 5.0048C16.226 5.0048 19.5316 6.37351 21.9693 8.81002C22.0623 8.90375 22.1729 8.97815 22.2948 9.02891C22.4166 9.07968 22.5473 9.10582 22.6793 9.10582C22.8113 9.10582 22.9421 9.07968 23.0639 9.02891C23.1858 8.97815 23.2964 8.90375 23.3893 8.81002C23.4831 8.71706 23.5575 8.60646 23.6082 8.4846C23.659 8.36274 23.6851 8.23204 23.6851 8.10002C23.6851 7.96801 23.659 7.83731 23.6082 7.71545C23.5575 7.59359 23.4831 7.48299 23.3893 7.39002Z" fill="#304607"/>
</svg>
