<svg width="362" height="93" viewBox="0 0 362 93" fill="none" xmlns="http://www.w3.org/2000/svg">
<path d="M179.01 53.2096H131.313C126.317 53.2096 123.161 58.7056 125.808 62.9433C126.511 64.0629 127.334 65.0714 128.287 65.9596C131.442 68.902 135.319 70.3731 139.909 70.3731C145.608 70.3731 149.864 68.3653 152.668 64.359C153.862 62.6565 155.879 61.7127 157.96 61.7127H173.986C178.834 61.7127 181.989 66.9034 179.649 71.1596C178.409 73.4173 176.947 75.5546 175.263 77.5902C171.358 82.2905 166.473 85.9823 160.588 88.6563C154.704 91.3303 148.134 92.6627 140.862 92.6627C132.09 92.6627 124.29 90.7936 117.453 87.0463C110.606 83.3083 105.267 77.9603 101.418 71.0116C97.5687 64.0629 95.6441 55.9391 95.6441 46.6402C95.6441 37.3414 97.5409 29.2176 101.334 22.2689C105.128 15.3202 110.448 9.97215 117.286 6.2341C124.142 2.47755 131.998 0.608521 140.871 0.608521C149.531 0.608521 157.229 2.43128 163.965 6.0583C170.701 9.69458 175.966 14.876 179.76 21.6119C183.553 28.3478 185.45 36.2033 185.45 45.1876C185.45 45.752 185.441 46.3164 185.431 46.8808C185.33 50.3875 182.517 53.2096 179.01 53.2096ZM148.319 37.9705C154.167 37.9705 157.054 30.698 152.668 26.8304C152.64 26.8026 152.603 26.7749 152.575 26.7471C149.365 23.9713 145.358 22.5742 140.547 22.5742C135.948 22.5742 132.072 23.9158 128.926 26.5806C128.842 26.6453 128.768 26.7194 128.685 26.7841C124.281 30.6702 127.131 37.9613 132.997 37.9613H148.319V37.9705Z" fill="#304607"/>
<path d="M291.272 87.0371C284.268 83.299 278.762 77.951 274.756 71.0023C270.75 64.0536 268.742 55.9298 268.742 46.631C268.742 37.4339 270.768 29.3379 274.839 22.3336C278.901 15.3294 284.462 9.9629 291.512 6.2156C298.572 2.47755 306.483 0.608521 315.245 0.608521C324.008 0.608521 331.919 2.47755 338.978 6.22485C346.038 9.97215 351.59 15.3387 355.652 22.3429C359.713 29.3471 361.749 37.4431 361.749 46.6402C361.749 55.8373 359.686 63.9333 355.578 70.9376C351.46 77.9418 345.853 83.3083 338.738 87.0556C331.623 90.8029 323.693 92.6719 314.922 92.6719C306.159 92.6534 298.276 90.7844 291.272 87.0371ZM328.319 63.1469C332.011 59.2978 333.852 53.7925 333.852 46.631C333.852 39.4695 332.057 33.9642 328.477 30.1151C324.896 26.266 320.482 24.3414 315.245 24.3414C309.897 24.3414 305.465 26.2382 301.94 30.0318C298.415 33.8254 296.648 39.3584 296.648 46.631C296.648 53.7925 298.387 59.2978 301.857 63.1469C305.327 66.9959 309.685 68.9205 314.931 68.9205C320.159 68.9205 324.628 66.9959 328.319 63.1469Z" fill="#304607"/>
<path d="M89.0008 46.3904V77.7382C89.0008 85.2698 82.9033 91.3673 75.3717 91.3673C67.8401 91.3673 61.7426 85.2698 61.7426 77.7382V46.4829C61.7426 40.4965 60.1882 35.8424 57.0886 32.53C53.9889 29.2176 49.816 27.5613 44.579 27.5613C39.3421 27.5613 35.1691 29.2176 32.0695 32.53C28.9699 35.8424 27.4247 40.4965 27.4247 46.4829V77.7382C27.4247 85.2698 21.3272 91.3673 13.7956 91.3673H13.6291C6.09746 91.3673 0 85.2698 0 77.7382V46.3904C0 26.0717 15.1095 7.43694 34.9286 3.07897C53.9612 -1.10321 74.2151 8.23266 83.5695 25.2852C84.1339 26.3122 84.6521 27.3485 85.1332 28.4126C87.6592 34.0567 89.0008 40.2097 89.0008 46.3904Z" fill="#304607"/>
<path d="M249.57 1.89463C245.481 1.89463 241.659 3.89319 239.319 7.24264L227.096 24.7763L214.873 7.24264C212.532 3.89319 208.711 1.89463 204.621 1.89463C194.517 1.89463 188.596 13.2568 194.369 21.5379L211.866 46.631L194.369 71.724C188.596 80.0051 194.517 91.3673 204.621 91.3673C208.711 91.3673 212.532 89.3687 214.873 86.0193L227.096 68.4856L239.319 86.0193C241.659 89.3687 245.481 91.3673 249.57 91.3673C259.674 91.3673 265.596 80.0051 259.822 71.724L242.326 46.631L259.822 21.5379C265.605 13.2476 259.674 1.89463 249.57 1.89463Z" fill="#304607"/>
</svg>
