<svg width="362" height="93" viewBox="0 0 362 93" fill="none" xmlns="http://www.w3.org/2000/svg">
<path d="M179.01 52.6893H131.313C126.317 52.6893 123.161 58.1853 125.808 62.423C126.511 63.5426 127.334 64.5511 128.287 65.4394C131.442 68.3817 135.319 69.8529 139.909 69.8529C145.608 69.8529 149.864 67.8451 152.668 63.8387C153.862 62.1362 155.879 61.1924 157.96 61.1924H173.986C178.834 61.1924 181.989 66.3832 179.649 70.6394C178.409 72.897 176.947 75.0343 175.263 77.0699C171.358 81.7702 166.473 85.462 160.588 88.136C154.704 90.81 148.134 92.1424 140.862 92.1424C132.09 92.1424 124.29 90.2734 117.453 86.5261C110.606 82.788 105.267 77.44 101.418 70.4913C97.5687 63.5426 95.6441 55.4188 95.6441 46.12C95.6441 36.8211 97.5409 28.6973 101.334 21.7486C105.128 14.7999 110.448 9.45189 117.286 5.71384C124.142 1.95728 131.998 0.0882568 140.871 0.0882568C149.531 0.0882568 157.229 1.91102 163.965 5.53804C170.701 9.17431 175.966 14.3558 179.76 21.0917C183.553 27.8276 185.45 35.683 185.45 44.6673C185.45 45.2317 185.441 45.7961 185.431 46.3605C185.33 49.8673 182.517 52.6893 179.01 52.6893ZM148.319 37.4503C154.167 37.4503 157.054 30.1777 152.668 26.3101C152.64 26.2824 152.603 26.2546 152.575 26.2269C149.365 23.4511 145.358 22.0539 140.547 22.0539C135.948 22.0539 132.072 23.3956 128.926 26.0603C128.842 26.1251 128.768 26.1991 128.685 26.2639C124.281 30.15 127.131 37.441 132.997 37.441H148.319V37.4503Z" fill="#83C00A"/>
<path d="M291.272 86.5168C284.268 82.7788 278.762 77.4308 274.756 70.4821C270.75 63.5334 268.742 55.4096 268.742 46.1107C268.742 36.9136 270.768 28.8176 274.839 21.8134C278.901 14.8091 284.462 9.44264 291.512 5.69533C298.572 1.95728 306.483 0.0882568 315.245 0.0882568C324.008 0.0882568 331.919 1.95728 338.978 5.70459C346.038 9.45189 351.59 14.8184 355.652 21.8226C359.713 28.8268 361.749 36.9229 361.749 46.12C361.749 55.317 359.686 63.4131 355.578 70.4173C351.46 77.4215 345.853 82.788 338.738 86.5353C331.623 90.2826 323.693 92.1516 314.922 92.1516C306.159 92.1331 298.276 90.2641 291.272 86.5168ZM328.319 62.6266C332.011 58.7775 333.852 53.2722 333.852 46.1107C333.852 38.9492 332.057 33.4439 328.477 29.5948C324.896 25.7457 320.482 23.8212 315.245 23.8212C309.897 23.8212 305.465 25.718 301.94 29.5115C298.415 33.3051 296.648 38.8382 296.648 46.1107C296.648 53.2722 298.387 58.7775 301.857 62.6266C305.327 66.4757 309.685 68.4002 314.931 68.4002C320.159 68.4002 324.628 66.4757 328.319 62.6266Z" fill="#83C00A"/>
<path d="M89.0008 45.8701V77.2179C89.0008 84.7496 82.9033 90.847 75.3717 90.847C67.8401 90.847 61.7426 84.7496 61.7426 77.2179V45.9627C61.7426 39.9762 60.1882 35.3222 57.0886 32.0097C53.9889 28.6973 49.816 27.0411 44.579 27.0411C39.3421 27.0411 35.1691 28.6973 32.0695 32.0097C28.9699 35.3222 27.4247 39.9762 27.4247 45.9627V77.2179C27.4247 84.7496 21.3272 90.847 13.7956 90.847H13.6291C6.09746 90.847 0 84.7496 0 77.2179V45.8701C0 25.5514 15.1095 6.91668 34.9286 2.5587C53.9612 -1.62347 74.2151 7.7124 83.5695 24.7649C84.1339 25.792 84.6521 26.8283 85.1332 27.8923C87.6592 33.5364 89.0008 39.6894 89.0008 45.8701Z" fill="#83C00A"/>
<path d="M249.57 1.37437C245.481 1.37437 241.659 3.37293 239.319 6.72237L227.096 24.2561L214.873 6.72237C212.532 3.37293 208.711 1.37437 204.621 1.37437C194.517 1.37437 188.596 12.7366 194.369 21.0176L211.866 46.1107L194.369 71.2038C188.596 79.4848 194.517 90.847 204.621 90.847C208.711 90.847 212.532 88.8485 214.873 85.499L227.096 67.9653L239.319 85.499C241.659 88.8485 245.481 90.847 249.57 90.847C259.674 90.847 265.596 79.4848 259.822 71.2038L242.326 46.1107L259.822 21.0176C265.605 12.7273 259.674 1.37437 249.57 1.37437Z" fill="#83C00A"/>
</svg>
