<svg width="362" height="61" viewBox="0 0 362 61" fill="none" xmlns="http://www.w3.org/2000/svg">
<path d="M80.4874 24.1502H59.0416C56.7951 24.1502 55.3764 26.6322 56.5663 28.546C56.8824 29.0516 57.2527 29.507 57.6812 29.9082C59.0998 31.2369 60.8429 31.9013 62.9064 31.9013C65.4691 31.9013 67.3828 30.9946 68.6433 29.1853C69.18 28.4164 70.0869 27.9902 71.0229 27.9902H78.2284C80.4084 27.9902 81.827 30.3344 80.7745 32.2565C80.217 33.276 79.5597 34.2413 78.8025 35.1605C77.0469 37.2832 74.8503 38.9505 72.2045 40.158C69.5586 41.3656 66.6048 41.9673 63.3349 41.9673C59.391 41.9673 55.884 41.1233 52.8096 39.431C49.731 37.7429 47.3306 35.3277 45.6 32.1896C43.8693 29.0516 43.004 25.3828 43.004 21.1834C43.004 16.984 43.8568 13.3153 45.5625 10.1772C47.2682 7.03919 49.6603 4.62401 52.7347 2.9359C55.8091 1.24778 59.3411 0.399541 63.3349 0.399541C67.2289 0.399541 70.6901 1.22271 73.7188 2.86068C76.7474 4.50284 79.1145 6.8428 80.8202 9.88475C82.5259 12.9267 83.3788 16.4743 83.3788 20.5316C83.3788 20.7865 83.3746 21.0414 83.3704 21.2963C83.3288 22.8757 82.0641 24.1502 80.4874 24.1502ZM66.688 17.2724C69.3173 17.2724 70.6152 13.988 68.6433 12.2414C68.6308 12.2289 68.6142 12.2164 68.6017 12.2038C67.1581 10.9503 65.3568 10.3193 63.1935 10.3193C61.1258 10.3193 59.3827 10.9252 57.9682 12.1286C57.9308 12.1579 57.8975 12.1913 57.8601 12.2205C55.8798 13.9755 57.1612 17.2682 59.7987 17.2682H66.688V17.2724Z" fill="#304607"/>
<path d="M130.963 39.431C127.814 37.7429 125.339 35.3277 123.537 32.1896C121.736 29.0516 120.833 25.3828 120.833 21.1834C120.833 17.03 121.744 13.3738 123.575 10.2107C125.401 7.04755 127.901 4.62401 131.071 2.93172C134.246 1.2436 137.798 0.395363 141.742 0.395363C145.682 0.395363 149.239 1.23942 152.413 2.93172C155.587 4.62401 158.084 7.04755 159.91 10.2107C161.736 13.3738 162.651 17.03 162.651 21.1834C162.651 25.3369 161.724 28.9931 159.877 32.1562C158.025 35.3193 155.504 37.7429 152.305 39.4352C149.106 41.1275 145.54 41.9715 141.597 41.9715C137.657 41.9632 134.112 41.1191 130.963 39.431ZM147.621 28.6379C149.281 26.8996 150.108 24.4134 150.108 21.1793C150.108 17.9451 149.301 15.4589 147.691 13.7206C146.081 11.9824 144.097 11.1132 141.742 11.1132C139.338 11.1132 137.345 11.9698 135.76 13.683C134.175 15.3962 133.38 17.895 133.38 21.1793C133.38 24.4134 134.162 26.8996 135.722 28.6379C137.282 30.3762 139.242 31.2453 141.601 31.2453C143.951 31.2453 145.961 30.3762 147.621 28.6379Z" fill="#304607"/>
<path d="M168.201 10.1731C169.907 7.03501 172.286 4.61983 175.34 2.93172C178.394 1.2436 181.888 0.395363 185.832 0.395363C190.878 0.395363 195.097 1.72413 198.487 4.37748C198.912 4.70758 199.315 5.05858 199.702 5.42211C203.563 9.06995 200.925 15.601 195.621 15.601H195.467C193.616 15.601 191.918 14.69 190.758 13.2359C189.551 11.7233 187.837 10.9628 185.616 10.9628C183.357 10.9628 181.555 11.8445 180.207 13.6078C178.86 15.3711 178.19 17.8908 178.19 21.1751C178.19 24.4594 178.864 26.979 180.207 28.7424C181.551 30.5057 183.357 31.3874 185.616 31.3874C187.837 31.3874 189.551 30.6311 190.758 29.1143C191.914 27.6643 193.616 26.7492 195.467 26.7492H195.505C200.805 26.7492 203.467 33.2928 199.59 36.9197C199.228 37.2582 198.845 37.5883 198.45 37.8975C195.034 40.601 190.833 41.9548 185.832 41.9548C181.888 41.9548 178.394 41.1107 175.34 39.4185C172.286 37.7303 169.907 35.3152 168.201 32.1771C166.495 29.039 165.643 25.3703 165.643 21.1709C165.643 16.9715 166.495 13.3111 168.201 10.1731Z" fill="#304607"/>
<path d="M214.654 39.431C211.505 37.7429 209.029 35.3277 207.228 32.1896C205.427 29.0516 204.524 25.3828 204.524 21.1834C204.524 17.03 205.435 13.3738 207.265 10.2107C209.092 7.04755 211.592 4.62401 214.762 2.93172C217.936 1.2436 221.489 0.395363 225.433 0.395363C229.373 0.395363 232.93 1.23942 236.104 2.93172C239.278 4.62401 241.774 7.04755 243.601 10.2107C245.427 13.3738 246.342 17.03 246.342 21.1834C246.342 25.3369 245.414 28.9931 243.567 32.1562C241.716 35.3193 239.191 37.7429 235.996 39.4352C232.801 41.1275 229.231 41.9715 225.287 41.9715C221.348 41.9632 217.803 41.1191 214.654 39.431ZM231.311 28.6379C232.971 26.8996 233.799 24.4134 233.799 21.1793C233.799 17.9451 232.992 15.4589 231.382 13.7206C229.772 11.9824 227.788 11.1132 225.433 11.1132C223.028 11.1132 221.036 11.9698 219.451 13.683C217.866 15.3962 217.071 17.895 217.071 21.1793C217.071 24.4134 217.853 26.8996 219.413 28.6379C220.973 30.3762 222.933 31.2453 225.287 31.2453C227.646 31.2453 229.651 30.3762 231.311 28.6379Z" fill="#304607"/>
<path d="M40.017 21.0748V35.2316C40.017 38.6329 37.2754 41.3865 33.889 41.3865C30.5026 41.3865 27.761 38.6329 27.761 35.2316V21.1166C27.761 18.4131 27.0621 16.3113 25.6684 14.8154C24.2748 13.3195 22.3985 12.5715 20.0439 12.5715C17.6892 12.5715 15.8129 13.3195 14.4193 14.8154C13.0256 16.3113 12.3308 18.4131 12.3308 21.1166V35.2316C12.3308 38.6329 9.58926 41.3865 6.20286 41.3865H6.12798C2.74157 41.3865 0 38.6287 0 35.2316V21.0748C0 11.8988 6.79361 3.4791 15.7048 1.51102C24.2623 -0.377661 33.369 3.83845 37.5749 11.5394C37.8287 12.0033 38.0617 12.4713 38.278 12.9518C39.4137 15.5007 40.017 18.2836 40.017 21.0748Z" fill="#304607"/>
<path d="M315.223 12.956C315.006 12.4754 314.773 12.0033 314.52 11.5436C310.314 3.84263 301.207 -0.373482 292.649 1.5152C289.038 2.3133 285.773 4.16856 283.168 6.70909C278.421 2.1963 271.565 0.0736178 265.03 1.5152C256.119 3.48328 249.325 11.8988 249.325 21.0748V35.2316C249.325 38.6329 252.067 41.3865 255.453 41.3865H255.528C258.914 41.3865 261.656 38.6329 261.656 35.2316V21.1166C261.656 18.4131 262.351 16.3113 263.744 14.8154C265.138 13.3195 267.014 12.5715 269.369 12.5715C271.724 12.5715 273.6 13.3195 274.993 14.8154C276.121 16.0272 276.787 17.6401 277.003 19.6374C276.965 20.1137 276.945 20.5943 276.945 21.0748V35.2316C276.945 38.6329 279.686 41.3865 283.073 41.3865H283.147C283.16 41.3865 283.172 41.3865 283.181 41.3865C283.193 41.3865 283.206 41.3865 283.214 41.3865C286.6 41.3865 289.342 38.6329 289.342 35.2316V21.0748C289.342 20.7322 289.334 20.3853 289.313 20.0427C289.475 17.849 290.157 16.1066 291.36 14.8154C292.753 13.3195 294.63 12.5715 296.984 12.5715C299.339 12.5715 301.215 13.3195 302.609 14.8154C304.003 16.3113 304.701 18.4131 304.701 21.1166V35.2316C304.701 38.6329 307.443 41.3865 310.829 41.3865C314.216 41.3865 316.957 38.6329 316.957 35.2316V21.0748C316.966 18.2836 316.363 15.5007 315.223 12.956Z" fill="#304607"/>
<path d="M359.034 10.2107C357.207 7.04755 354.707 4.62401 351.537 2.93172C343.354 -1.43482 332.113 -0.231413 325.423 6.38734C321.692 10.077 319.957 15.3335 319.957 20.5232C319.957 22.8757 319.957 25.2282 319.957 27.5807C319.957 33.7691 319.957 39.9533 319.957 46.1417C319.957 48.8869 319.957 51.6322 319.957 54.3775C319.957 57.8415 322.753 60.6494 326.206 60.6494C329.659 60.6494 332.454 57.8415 332.454 54.3775V48.1808C332.454 46.1333 333.473 44.1694 335.146 42.9994C337.455 41.3865 340.25 42.0927 342.842 41.8879C345.833 41.6456 348.775 40.8391 351.433 39.4352C354.628 37.747 357.153 35.3193 359.005 32.1562C360.852 28.9972 361.779 25.3369 361.779 21.1876C361.775 17.03 360.86 13.3738 359.034 10.2107ZM346.74 28.6421C345.085 30.3803 343.075 31.2495 340.721 31.2495C338.366 31.2495 336.406 30.3803 334.846 28.6421C333.282 26.9038 332.5 24.4176 332.5 21.1834C332.5 17.8991 333.295 15.4004 334.88 13.6872C336.469 11.974 338.462 11.1174 340.866 11.1174C343.221 11.1174 345.201 11.9865 346.815 13.7206C348.425 15.4589 349.228 17.9493 349.228 21.1834C349.228 24.4176 348.4 26.9038 346.74 28.6421Z" fill="#304607"/>
<path d="M112.213 0.976176C110.374 0.976176 108.656 1.87873 107.604 3.39135L102.108 11.3096L96.6124 3.39135C95.5598 1.87873 93.8417 0.976176 92.0029 0.976176C87.4599 0.976176 84.7974 6.10738 87.3934 9.84715L95.2603 21.1793L87.3934 32.5114C84.7974 36.2511 87.4599 41.3824 92.0029 41.3824C93.8417 41.3824 95.5598 40.4798 96.6124 38.9672L102.108 31.0489L107.604 38.9672C108.656 40.4798 110.374 41.3824 112.213 41.3824C116.756 41.3824 119.419 36.2511 116.823 32.5114L108.956 21.1793L116.823 9.84715C119.423 6.10738 116.756 0.976176 112.213 0.976176Z" fill="#304607"/>
</svg>
